  0
SECTION
  2
HEADER
  0
ENDSEC
  0
SECTION
  2
ENTITIES
  0
3DFACE
  8
0----
 10
0.00
 20
-0.02
 30
0.02
 11
0.29
 21
0.65
 31
0.08
 12
0.40
 22
0.53
 32
0.06
 13
0.40
 23
0.53
 33
0.06
  0
3DFACE
  8
0----
 10
0.00
 20
-0.02
 30
0.02
 11
0.40
 21
0.53
 31
0.06
 12
0.53
 22
0.41
 32
0.02
 13
0.53
 23
0.41
 33
0.02
  0
3DFACE
  8
0----
 10
0.00
 20
-0.02
 30
0.02
 11
0.53
 21
0.41
 31
0.02
 12
0.52
 22
0.27
 32
0.01
 13
0.52
 23
0.27
 33
0.01
  0
3DFACE
  8
0----
 10
0.00
 20
-0.02
 30
0.02
 11
0.52
 21
0.27
 31
0.01
 12
0.48
 22
0.13
 32
0.00
 13
0.48
 23
0.13
 33
0.00
  0
3DFACE
  8
0----
 10
0.00
 20
-0.02
 30
0.02
 11
0.48
 21
0.13
 31
0.00
 12
0.46
 22
0.01
 32
-0.01
 13
0.46
 23
0.01
 33
-0.01
  0
3DFACE
  8
0----
 10
0.00
 20
-0.02
 30
0.02
 11
0.46
 21
0.01
 31
-0.01
 12
0.41
 22
-0.11
 32
-0.04
 13
0.41
 23
-0.11
 33
-0.04
  0
3DFACE
  8
0----
 10
0.00
 20
-0.02
 30
0.02
 11
0.41
 21
-0.11
 31
-0.04
 12
0.37
 22
-0.24
 32
-0.06
 13
0.37
 23
-0.24
 33
-0.06
  0
3DFACE
  8
0----
 10
0.00
 20
-0.02
 30
0.02
 11
0.37
 21
-0.24
 31
-0.06
 12
0.33
 22
-0.34
 32
-0.08
 13
0.33
 23
-0.34
 33
-0.08
  0
3DFACE
  8
0----
 10
0.00
 20
-0.02
 30
0.02
 11
0.33
 21
-0.34
 31
-0.08
 12
0.26
 22
-0.43
 32
-0.10
 13
0.26
 23
-0.43
 33
-0.10
  0
3DFACE
  8
0----
 10
0.00
 20
-0.02
 30
0.02
 11
0.26
 21
-0.43
 31
-0.10
 12
0.10
 22
-0.55
 32
-0.12
 13
0.10
 23
-0.55
 33
-0.12
  0
3DFACE
  8
0----
 10
0.00
 20
-0.02
 30
0.02
 11
0.10
 21
-0.55
 31
-0.12
 12
-0.04
 22
-0.56
 32
-0.11
 13
-0.04
 23
-0.56
 33
-0.11
  0
3DFACE
  8
0----
 10
0.00
 20
-0.02
 30
0.02
 11
-0.04
 21
-0.56
 31
-0.11
 12
-0.24
 22
-0.54
 32
-0.10
 13
-0.24
 23
-0.54
 33
-0.10
  0
3DFACE
  8
0----
 10
-0.24
 20
-0.54
 30
-0.10
 11
-0.04
 21
-0.56
 31
-0.11
 12
-0.04
 22
-0.70
 32
-0.15
 13
-0.04
 23
-0.70
 33
-0.15
  0
3DFACE
  8
0----
 10
-0.04
 20
-0.70
 30
-0.15
 11
-0.30
 21
-0.68
 31
-0.14
 12
-0.24
 22
-0.54
 32
-0.10
 13
-0.24
 23
-0.54
 33
-0.10
  0
3DFACE
  8
0----
 10
-0.04
 20
-0.70
 30
-0.15
 11
-0.08
 21
-0.96
 31
-0.23
 12
-0.40
 22
-0.90
 32
-0.21
 13
-0.40
 23
-0.90
 33
-0.21
  0
3DFACE
  8
0----
 10
-0.40
 20
-0.90
 30
-0.21
 11
-0.08
 21
-0.96
 31
-0.23
 12
-0.12
 22
-1.50
 32
-0.42
 13
-0.12
 23
-1.50
 33
-0.42
  0
3DFACE
  8
0----
 10
-0.65
 20
-1.46
 30
-0.42
 11
-0.12
 21
-1.50
 31
-0.42
 12
-0.17
 22
-1.73
 32
-0.51
 13
-0.17
 23
-1.73
 33
-0.51
  0
3DFACE
  8
0----
 10
-0.17
 20
-1.73
 30
-0.51
 11
-0.78
 21
-1.75
 31
-0.57
 12
-0.65
 22
-1.46
 32
-0.42
 13
-0.65
 23
-1.46
 33
-0.42
  0
3DFACE
  8
0----
 10
-0.78
 20
-1.75
 30
-0.57
 11
-0.17
 21
-1.73
 31
-0.51
 12
-0.22
 22
-2.11
 32
-0.73
 13
-0.22
 23
-2.11
 33
-0.73
  0
3DFACE
  8
0----
 10
-0.22
 20
-2.11
 30
-0.73
 11
-0.93
 21
-2.08
 31
-0.85
 12
-0.78
 22
-1.75
 32
-0.57
 13
-0.78
 23
-1.75
 33
-0.57
  0
3DFACE
  8
0----
 10
-0.93
 20
-2.08
 30
-0.85
 11
-0.22
 21
-2.11
 31
-0.73
 12
-0.65
 22
-2.42
 32
-1.19
 13
-0.65
 23
-2.42
 33
-1.19
  0
3DFACE
  8
0----
 10
-0.65
 20
-2.42
 30
-1.19
 11
-1.02
 21
-2.29
 31
-1.21
 12
-0.93
 22
-2.08
 32
-0.85
 13
-0.93
 23
-2.08
 33
-0.85
  0
3DFACE
  8
0----
 10
-0.22
 20
-2.11
 30
-0.73
 11
-0.33
 21
-2.55
 31
-1.20
 12
-0.65
 22
-2.42
 32
-1.19
 13
-0.65
 23
-2.42
 33
-1.19
  0
3DFACE
  8
0----
 10
-0.30
 20
-0.68
 30
-0.14
 11
-0.04
 21
-0.70
 31
-0.15
 12
-0.40
 22
-0.90
 32
-0.21
 13
-0.40
 23
-0.90
 33
-0.21
  0
3DFACE
  8
0----
 10
-0.40
 20
-0.90
 30
-0.21
 11
-0.12
 21
-1.50
 31
-0.42
 12
-0.65
 22
-1.46
 32
-0.42
 13
-0.65
 23
-1.46
 33
-0.42
  0
3DFACE
  8
0----
 10
-0.65
 20
-2.42
 30
-1.19
 11
-0.33
 21
-2.55
 31
-1.20
 12
-0.38
 22
-2.70
 32
-1.70
 13
-0.38
 23
-2.70
 33
-1.70
  0
3DFACE
  8
0----
 10
-0.38
 20
-2.70
 30
-1.70
 11
-0.72
 21
-2.65
 31
-1.76
 12
-0.65
 22
-2.42
 32
-1.19
 13
-0.65
 23
-2.42
 33
-1.19
  0
3DFACE
  8
0----
 10
-0.65
 20
-2.42
 30
-1.19
 11
-0.72
 21
-2.65
 31
-1.76
 12
-1.12
 22
-2.49
 32
-1.81
 13
-1.12
 23
-2.49
 33
-1.81
  0
3DFACE
  8
0----
 10
-1.12
 20
-2.49
 30
-1.81
 11
-1.02
 21
-2.29
 31
-1.21
 12
-0.65
 22
-2.42
 32
-1.19
 13
-0.65
 23
-2.42
 33
-1.19
  0
3DFACE
  8
0----
 10
-0.72
 20
-2.65
 30
-1.76
 11
-0.38
 21
-2.70
 31
-1.70
 12
-0.43
 22
-2.90
 32
-2.03
 13
-0.43
 23
-2.90
 33
-2.03
  0
3DFACE
  8
0----
 10
-0.43
 20
-2.90
 30
-2.03
 11
-0.82
 21
-2.81
 31
-2.24
 12
-0.72
 22
-2.65
 32
-1.76
 13
-0.72
 23
-2.65
 33
-1.76
  0
3DFACE
  8
0----
 10
-0.72
 20
-2.65
 30
-1.76
 11
-0.82
 21
-2.81
 31
-2.24
 12
-1.18
 22
-2.62
 32
-2.18
 13
-1.18
 23
-2.62
 33
-2.18
  0
3DFACE
  8
0----
 10
-1.18
 20
-2.62
 30
-2.18
 11
-1.12
 21
-2.49
 31
-1.81
 12
-0.72
 22
-2.65
 32
-1.76
 13
-0.72
 23
-2.65
 33
-1.76
  0
3DFACE
  8
0----
 10
-0.38
 20
-2.70
 30
-1.70
 11
0.02
 21
-2.70
 31
-1.83
 12
-0.43
 22
-2.90
 32
-2.03
 13
-0.43
 23
-2.90
 33
-2.03
  0
3DFACE
  8
0----
 10
-0.43
 20
-2.90
 30
-2.03
 11
0.02
 21
-2.70
 31
-1.83
 12
-0.02
 22
-2.84
 32
-2.10
 13
-0.02
 23
-2.84
 33
-2.10
  0
3DFACE
  8
0----
 10
-0.02
 20
-2.84
 30
-2.10
 11
-0.15
 21
-2.88
 31
-2.22
 12
-0.43
 22
-2.90
 32
-2.03
 13
-0.43
 23
-2.90
 33
-2.03
  0
3DFACE
  8
0----
 10
-0.43
 20
-2.90
 30
-2.03
 11
-0.15
 21
-2.88
 31
-2.22
 12
-0.28
 22
-2.88
 32
-2.26
 13
-0.28
 23
-2.88
 33
-2.26
  0
3DFACE
  8
0----
 10
-0.28
 20
-2.88
 30
-2.26
 11
-0.45
 21
-2.84
 31
-2.31
 12
-0.43
 22
-2.90
 32
-2.03
 13
-0.43
 23
-2.90
 33
-2.03
  0
3DFACE
  8
0----
 10
-0.43
 20
-2.90
 30
-2.03
 11
-0.45
 21
-2.84
 31
-2.31
 12
-0.82
 22
-2.81
 32
-2.24
 13
-0.82
 23
-2.81
 33
-2.24
  0
3DFACE
  8
0----
 10
-1.18
 20
-2.62
 30
-2.18
 11
-0.87
 21
-2.56
 31
-2.60
 12
-1.17
 22
-2.59
 32
-2.58
 13
-1.17
 23
-2.59
 33
-2.58
  0
3DFACE
  8
0----
 10
-1.17
 20
-2.59
 30
-2.58
 11
-0.87
 21
-2.56
 31
-2.60
 12
-1.00
 22
-2.60
 32
-2.77
 13
-1.00
 23
-2.60
 33
-2.77
  0
3DFACE
  8
0----
 10
-1.00
 20
-2.60
 30
-2.77
 11
-1.24
 21
-2.74
 31
-2.95
 12
-1.17
 22
-2.59
 32
-2.58
 13
-1.17
 23
-2.59
 33
-2.58
  0
3DFACE
  8
0----
 10
-1.00
 20
-2.60
 30
-2.77
 11
-0.99
 21
-2.68
 31
-2.92
 12
-1.24
 22
-2.74
 32
-2.95
 13
-1.24
 23
-2.74
 33
-2.95
  0
3DFACE
  8
0----
 10
-1.18
 20
-2.62
 30
-2.18
 11
-0.82
 21
-2.81
 31
-2.24
 12
-0.85
 22
-2.70
 32
-2.43
 13
-0.85
 23
-2.70
 33
-2.43
  0
3DFACE
  8
0----
 10
-0.85
 20
-2.70
 30
-2.43
 11
-0.87
 21
-2.56
 31
-2.60
 12
-1.18
 22
-2.62
 32
-2.18
 13
-1.18
 23
-2.62
 33
-2.18
  0
3DFACE
  8
0----
 10
-0.64
 20
-2.69
 30
-2.43
 11
-0.82
 21
-2.81
 31
-2.24
 12
-0.45
 22
-2.84
 32
-2.31
 13
-0.45
 23
-2.84
 33
-2.31
  0
3DFACE
  8
0----
 10
-0.64
 20
-2.69
 30
-2.43
 11
-0.45
 21
-2.84
 31
-2.31
 12
-0.43
 22
-2.71
 32
-2.45
 13
-0.43
 23
-2.71
 33
-2.45
  0
3DFACE
  8
0----
 10
-0.64
 20
-2.69
 30
-2.43
 11
-0.43
 21
-2.71
 31
-2.45
 12
-0.55
 22
-2.59
 32
-2.56
 13
-0.55
 23
-2.59
 33
-2.56
  0
3DFACE
  8
0----
 10
-0.64
 20
-2.69
 30
-2.43
 11
-0.55
 21
-2.59
 31
-2.56
 12
-0.87
 22
-2.56
 32
-2.60
 13
-0.87
 23
-2.56
 33
-2.60
  0
3DFACE
  8
0----
 10
-0.64
 20
-2.69
 30
-2.43
 11
-0.87
 21
-2.56
 31
-2.60
 12
-0.85
 22
-2.70
 32
-2.43
 13
-0.85
 23
-2.70
 33
-2.43
  0
3DFACE
  8
0----
 10
-0.64
 20
-2.69
 30
-2.43
 11
-0.85
 21
-2.70
 31
-2.43
 12
-0.82
 22
-2.81
 32
-2.24
 13
-0.82
 23
-2.81
 33
-2.24
  0
3DFACE
  8
0----
 10
-1.24
 20
-2.74
 30
-2.95
 11
-1.00
 21
-2.73
 31
-3.01
 12
-1.11
 22
-2.80
 32
-3.10
 13
-1.11
 23
-2.80
 33
-3.10
  0
3DFACE
  8
0----
 10
-1.11
 20
-2.80
 30
-3.10
 11
-1.04
 21
-2.81
 31
-3.13
 12
-1.07
 22
-2.87
 32
-3.26
 13
-1.07
 23
-2.87
 33
-3.26
  0
3DFACE
  8
0----
 10
-1.07
 20
-2.87
 30
-3.26
 11
-1.15
 21
-2.87
 31
-3.21
 12
-1.11
 22
-2.80
 32
-3.10
 13
-1.11
 23
-2.80
 33
-3.10
  0
3DFACE
  8
0----
 10
-0.99
 20
-2.68
 30
-2.92
 11
-1.00
 21
-2.73
 31
-3.01
 12
-1.24
 22
-2.74
 32
-2.95
 13
-1.24
 23
-2.74
 33
-2.95
  0
3DFACE
  8
0----
 10
-1.26
 20
-2.80
 30
-3.07
 11
-1.11
 21
-2.80
 31
-3.10
 12
-1.15
 22
-2.87
 32
-3.21
 13
-1.15
 23
-2.87
 33
-3.21
  0
3DFACE
  8
0----
 10
-1.15
 20
-2.87
 30
-3.21
 11
-1.19
 21
-2.90
 31
-3.32
 12
-1.31
 22
-2.91
 32
-3.29
 13
-1.31
 23
-2.91
 33
-3.29
  0
3DFACE
  8
0----
 10
-1.31
 20
-2.91
 30
-3.29
 11
-1.29
 21
-2.86
 31
-3.17
 12
-1.15
 22
-2.87
 32
-3.21
 13
-1.15
 23
-2.87
 33
-3.21
  0
3DFACE
  8
0----
 10
-1.31
 20
-2.91
 30
-3.29
 11
-1.19
 21
-2.90
 31
-3.32
 12
-1.21
 22
-2.79
 32
-3.42
 13
-1.21
 23
-2.79
 33
-3.42
  0
3DFACE
  8
0----
 10
-1.21
 20
-2.79
 30
-3.42
 11
-1.28
 21
-2.83
 31
-3.44
 12
-1.31
 22
-2.91
 32
-3.29
 13
-1.31
 23
-2.91
 33
-3.29
  0
3DFACE
  8
0----
 10
-1.19
 20
-2.90
 30
-3.32
 11
-1.13
 21
-2.81
 31
-3.43
 12
-1.21
 22
-2.79
 32
-3.42
 13
-1.21
 23
-2.79
 33
-3.42
  0
3DFACE
  8
0----
 10
-1.13
 20
-2.81
 30
-3.43
 11
-1.19
 21
-2.90
 31
-3.32
 12
-1.08
 22
-2.89
 32
-3.36
 13
-1.08
 23
-2.89
 33
-3.36
  0
3DFACE
  8
0----
 10
-1.24
 20
-2.74
 30
-2.95
 11
-1.11
 21
-2.80
 31
-3.10
 12
-1.26
 22
-2.80
 32
-3.07
 13
-1.26
 23
-2.80
 33
-3.07
  0
3DFACE
  8
0----
 10
-1.26
 20
-2.80
 30
-3.07
 11
-1.15
 21
-2.87
 31
-3.21
 12
-1.29
 22
-2.86
 32
-3.17
 13
-1.29
 23
-2.86
 33
-3.17
  0
3DFACE
  8
0----
 10
-1.15
 20
-2.87
 30
-3.21
 11
-1.08
 21
-2.89
 31
-3.36
 12
-1.19
 22
-2.90
 32
-3.32
 13
-1.19
 23
-2.90
 33
-3.32
  0
3DFACE
  8
0----
 10
-1.15
 20
-2.87
 30
-3.21
 11
-1.07
 21
-2.87
 31
-3.26
 12
-1.08
 22
-2.89
 32
-3.36
 13
-1.08
 23
-2.89
 33
-3.36
  0
3DFACE
  8
0----
 10
-1.11
 20
-2.80
 30
-3.10
 11
-1.00
 21
-2.73
 31
-3.01
 12
-1.04
 22
-2.81
 32
-3.13
 13
-1.04
 23
-2.81
 33
-3.13
  0
3DFACE
  8
0----
 10
-1.05
 20
-2.86
 30
-3.50
 11
-1.13
 21
-2.81
 31
-3.43
 12
-1.08
 22
-2.89
 32
-3.36
 13
-1.08
 23
-2.89
 33
-3.36
  0
3DFACE
  8
0----
 10
-1.00
 20
-2.60
 30
-2.77
 11
-0.87
 21
-2.56
 31
-2.60
 12
-0.95
 22
-2.62
 32
-2.90
 13
-0.95
 23
-2.62
 33
-2.90
  0
3DFACE
  8
0----
 10
-0.95
 20
-2.62
 30
-2.90
 11
-0.99
 21
-2.68
 31
-2.92
 12
-1.00
 22
-2.60
 32
-2.77
 13
-1.00
 23
-2.60
 33
-2.77
  0
3DFACE
  8
0----
 10
-0.99
 20
-2.68
 30
-2.92
 11
-0.95
 21
-2.62
 31
-2.90
 12
-0.94
 22
-2.67
 32
-3.04
 13
-0.94
 23
-2.67
 33
-3.04
  0
3DFACE
  8
0----
 10
-0.94
 20
-2.67
 30
-3.04
 11
-1.00
 21
-2.73
 31
-3.01
 12
-0.99
 22
-2.68
 32
-2.92
 13
-0.99
 23
-2.68
 33
-2.92
  0
3DFACE
  8
0----
 10
-1.00
 20
-2.73
 30
-3.01
 11
-0.94
 21
-2.67
 31
-3.04
 12
-0.94
 22
-2.75
 32
-3.22
 13
-0.94
 23
-2.75
 33
-3.22
  0
3DFACE
  8
0----
 10
-0.94
 20
-2.75
 30
-3.22
 11
-1.04
 21
-2.81
 31
-3.13
 12
-1.00
 22
-2.73
 32
-3.01
 13
-1.00
 23
-2.73
 33
-3.01
  0
3DFACE
  8
0----
 10
-1.04
 20
-2.81
 30
-3.13
 11
-0.94
 21
-2.75
 31
-3.22
 12
-0.95
 22
-2.81
 32
-3.39
 13
-0.95
 23
-2.81
 33
-3.39
  0
3DFACE
  8
0----
 10
-0.95
 20
-2.81
 30
-3.39
 11
-1.07
 21
-2.87
 31
-3.26
 12
-1.04
 22
-2.81
 32
-3.13
 13
-1.04
 23
-2.81
 33
-3.13
  0
3DFACE
  8
0----
 10
-0.87
 20
-2.56
 30
-2.60
 11
-0.55
 21
-2.59
 31
-2.56
 12
-0.56
 22
-2.49
 32
-2.75
 13
-0.56
 23
-2.49
 33
-2.75
  0
3DFACE
  8
0----
 10
-0.56
 20
-2.49
 30
-2.75
 11
-0.84
 21
-2.51
 31
-2.76
 12
-0.87
 22
-2.56
 32
-2.60
 13
-0.87
 23
-2.56
 33
-2.60
  0
3DFACE
  8
0----
 10
-0.87
 20
-2.56
 30
-2.60
 11
-0.84
 21
-2.51
 31
-2.76
 12
-0.95
 22
-2.62
 32
-2.90
 13
-0.95
 23
-2.62
 33
-2.90
  0
3DFACE
  8
0----
 10
-0.95
 20
-2.62
 30
-2.90
 11
-0.84
 21
-2.51
 31
-2.76
 12
-0.80
 22
-2.49
 32
-2.91
 13
-0.80
 23
-2.49
 33
-2.91
  0
3DFACE
  8
0----
 10
-0.80
 20
-2.49
 30
-2.91
 11
-0.84
 21
-2.59
 31
-3.09
 12
-0.95
 22
-2.62
 32
-2.90
 13
-0.95
 23
-2.62
 33
-2.90
  0
3DFACE
  8
0----
 10
-0.95
 20
-2.62
 30
-2.90
 11
-0.84
 21
-2.59
 31
-3.09
 12
-0.94
 22
-2.67
 32
-3.04
 13
-0.94
 23
-2.67
 33
-3.04
  0
3DFACE
  8
0----
 10
-1.08
 20
-2.89
 30
-3.36
 11
-1.07
 21
-2.87
 31
-3.26
 12
-0.95
 22
-2.81
 32
-3.39
 13
-0.95
 23
-2.81
 33
-3.39
  0
3DFACE
  8
0----
 10
-0.84
 20
-2.51
 30
-2.76
 11
-0.56
 21
-2.49
 31
-2.75
 12
-0.54
 22
-2.47
 32
-2.94
 13
-0.54
 23
-2.47
 33
-2.94
  0
3DFACE
  8
0----
 10
-0.54
 20
-2.47
 30
-2.94
 11
-0.80
 21
-2.49
 31
-2.91
 12
-0.84
 22
-2.51
 32
-2.76
 13
-0.84
 23
-2.51
 33
-2.76
  0
3DFACE
  8
0----
 10
-0.68
 20
-2.52
 30
-3.02
 11
-0.80
 21
-2.49
 31
-2.91
 12
-0.54
 22
-2.47
 32
-2.94
 13
-0.54
 23
-2.47
 33
-2.94
  0
3DFACE
  8
0----
 10
-0.68
 20
-2.52
 30
-3.02
 11
-0.54
 21
-2.47
 31
-2.94
 12
-0.45
 22
-2.52
 32
-3.16
 13
-0.45
 23
-2.52
 33
-3.16
  0
3DFACE
  8
0----
 10
-0.68
 20
-2.52
 30
-3.02
 11
-0.45
 21
-2.52
 31
-3.16
 12
-0.61
 22
-2.54
 32
-3.14
 13
-0.61
 23
-2.54
 33
-3.14
  0
3DFACE
  8
0----
 10
-0.95
 20
-2.81
 30
-3.39
 11
-0.94
 21
-2.82
 31
-3.49
 12
-1.05
 22
-2.86
 32
-3.50
 13
-1.05
 23
-2.86
 33
-3.50
  0
3DFACE
  8
0----
 10
-1.05
 20
-2.86
 30
-3.50
 11
-0.94
 21
-2.82
 31
-3.49
 12
-0.99
 22
-2.85
 32
-3.60
 13
-0.99
 23
-2.85
 33
-3.60
  0
3DFACE
  8
0----
 10
-1.08
 20
-2.89
 30
-3.36
 11
-0.95
 21
-2.81
 31
-3.39
 12
-1.05
 22
-2.86
 32
-3.50
 13
-1.05
 23
-2.86
 33
-3.50
  0
3DFACE
  8
0----
 10
-0.45
 20
-2.84
 30
-2.31
 11
-0.28
 21
-2.88
 31
-2.26
 12
-0.25
 22
-2.82
 32
-2.39
 13
-0.25
 23
-2.82
 33
-2.39
  0
3DFACE
  8
0----
 10
-0.25
 20
-2.82
 30
-2.39
 11
-0.43
 21
-2.71
 31
-2.45
 12
-0.45
 22
-2.84
 32
-2.31
 13
-0.45
 23
-2.84
 33
-2.31
  0
3DFACE
  8
0----
 10
-0.28
 20
-2.88
 30
-2.26
 11
-0.15
 21
-2.88
 31
-2.22
 12
0.04
 22
-2.88
 32
-2.35
 13
0.04
 23
-2.88
 33
-2.35
  0
3DFACE
  8
0----
 10
0.04
 20
-2.88
 30
-2.35
 11
-0.25
 21
-2.82
 31
-2.39
 12
-0.28
 22
-2.88
 32
-2.26
 13
-0.28
 23
-2.88
 33
-2.26
  0
3DFACE
  8
0----
 10
-0.15
 20
-2.88
 30
-2.22
 11
-0.02
 21
-2.84
 31
-2.10
 12
0.04
 22
-2.88
 32
-2.35
 13
0.04
 23
-2.88
 33
-2.35
  0
3DFACE
  8
0----
 10
0.04
 20
-2.88
 30
-2.35
 11
-0.02
 21
-2.84
 31
-2.10
 12
0.37
 22
-2.81
 32
-2.33
 13
0.37
 23
-2.81
 33
-2.33
  0
3DFACE
  8
0----
 10
0.37
 20
-2.81
 30
-2.33
 11
-0.02
 21
-2.84
 31
-2.10
 12
0.38
 22
-2.70
 32
-2.11
 13
0.38
 23
-2.70
 33
-2.11
  0
3DFACE
  8
0----
 10
0.38
 20
-2.70
 30
-2.11
 11
-0.02
 21
-2.84
 31
-2.10
 12
0.36
 22
-2.63
 32
-1.98
 13
0.36
 23
-2.63
 33
-1.98
  0
3DFACE
  8
0----
 10
0.36
 20
-2.63
 30
-1.98
 11
-0.02
 21
-2.84
 31
-2.10
 12
0.02
 22
-2.70
 32
-1.83
 13
0.02
 23
-2.70
 33
-1.83
  0
3DFACE
  8
0----
 10
0.02
 20
-2.70
 30
-1.83
 11
0.36
 21
-2.50
 31
-1.72
 12
0.36
 22
-2.63
 32
-1.98
 13
0.36
 23
-2.63
 33
-1.98
  0
3DFACE
  8
0----
 10
0.36
 20
-2.50
 30
-1.72
 11
0.02
 21
-2.70
 31
-1.83
 12
0.01
 22
-2.66
 32
-1.67
 13
0.01
 23
-2.66
 33
-1.67
  0
3DFACE
  8
0----
 10
0.01
 20
-2.66
 30
-1.67
 11
0.02
 21
-2.70
 31
-1.83
 12
-0.38
 22
-2.70
 32
-1.70
 13
-0.38
 23
-2.70
 33
-1.70
  0
3DFACE
  8
0----
 10
-0.84
 20
-2.59
 30
-3.09
 11
-0.86
 21
-2.68
 31
-3.36
 12
-0.94
 22
-2.75
 32
-3.22
 13
-0.94
 23
-2.75
 33
-3.22
  0
3DFACE
  8
0----
 10
-0.94
 20
-2.75
 30
-3.22
 11
-0.94
 21
-2.67
 31
-3.04
 12
-0.84
 22
-2.59
 32
-3.09
 13
-0.84
 23
-2.59
 33
-3.09
  0
3DFACE
  8
0----
 10
-0.94
 20
-2.75
 30
-3.22
 11
-0.86
 21
-2.68
 31
-3.36
 12
-0.86
 22
-2.70
 32
-3.43
 13
-0.86
 23
-2.70
 33
-3.43
  0
3DFACE
  8
0----
 10
-0.86
 20
-2.70
 30
-3.43
 11
-0.95
 21
-2.81
 31
-3.39
 12
-0.94
 22
-2.75
 32
-3.22
 13
-0.94
 23
-2.75
 33
-3.22
  0
3DFACE
  8
0----
 10
-0.94
 20
-2.82
 30
-3.49
 11
-0.84
 21
-2.74
 31
-3.60
 12
-0.92
 22
-2.79
 32
-3.65
 13
-0.92
 23
-2.79
 33
-3.65
  0
3DFACE
  8
0----
 10
-0.92
 20
-2.79
 30
-3.65
 11
-0.99
 21
-2.85
 31
-3.60
 12
-0.94
 22
-2.82
 32
-3.49
 13
-0.94
 23
-2.82
 33
-3.49
  0
3DFACE
  8
0----
 10
-0.78
 20
-2.74
 30
-3.76
 11
-0.92
 21
-2.79
 31
-3.65
 12
-0.84
 22
-2.74
 32
-3.60
 13
-0.84
 23
-2.74
 33
-3.60
  0
3DFACE
  8
0----
 10
-0.78
 20
-2.74
 30
-3.76
 11
-0.84
 21
-2.74
 31
-3.60
 12
-0.75
 22
-2.71
 32
-3.60
 13
-0.75
 23
-2.71
 33
-3.60
  0
3DFACE
  8
0----
 10
-0.78
 20
-2.74
 30
-3.76
 11
-0.75
 21
-2.71
 31
-3.60
 12
-0.67
 22
-2.66
 32
-3.62
 13
-0.67
 23
-2.66
 33
-3.62
  0
3DFACE
  8
0----
 10
-0.78
 20
-2.74
 30
-3.76
 11
-0.67
 21
-2.66
 31
-3.62
 12
-0.58
 22
-2.63
 32
-3.88
 13
-0.58
 23
-2.63
 33
-3.88
  0
3DFACE
  8
0----
 10
-0.78
 20
-2.74
 30
-3.76
 11
-0.58
 21
-2.63
 31
-3.88
 12
-0.74
 22
-2.76
 32
-3.95
 13
-0.74
 23
-2.76
 33
-3.95
  0
3DFACE
  8
0----
 10
-0.78
 20
-2.74
 30
-3.76
 11
-0.74
 21
-2.76
 31
-3.95
 12
-0.79
 22
-2.73
 32
-3.93
 13
-0.79
 23
-2.73
 33
-3.93
  0
3DFACE
  8
0----
 10
-0.78
 20
-2.74
 30
-3.76
 11
-0.79
 21
-2.73
 31
-3.93
 12
-0.83
 22
-2.77
 32
-3.75
 13
-0.83
 23
-2.77
 33
-3.75
  0
3DFACE
  8
0----
 10
-0.78
 20
-2.74
 30
-3.76
 11
-0.83
 21
-2.77
 31
-3.75
 12
-0.92
 22
-2.79
 32
-3.65
 13
-0.92
 23
-2.79
 33
-3.65
  0
3DFACE
  8
0----
 10
-0.84
 20
-2.74
 30
-3.60
 11
-0.94
 21
-2.82
 31
-3.49
 12
-0.86
 22
-2.70
 32
-3.43
 13
-0.86
 23
-2.70
 33
-3.43
  0
3DFACE
  8
0----
 10
-0.86
 20
-2.70
 30
-3.43
 11
-0.94
 21
-2.82
 31
-3.49
 12
-0.95
 22
-2.81
 32
-3.39
 13
-0.95
 23
-2.81
 33
-3.39
  0
3DFACE
  8
0----
 10
-0.86
 20
-2.70
 30
-3.43
 11
-0.77
 21
-2.65
 31
-3.35
 12
-0.75
 22
-2.71
 32
-3.60
 13
-0.75
 23
-2.71
 33
-3.60
  0
3DFACE
  8
0----
 10
-0.75
 20
-2.71
 30
-3.60
 11
-0.84
 21
-2.74
 31
-3.60
 12
-0.86
 22
-2.70
 32
-3.43
 13
-0.86
 23
-2.70
 33
-3.43
  0
3DFACE
  8
0----
 10
-0.86
 20
-2.68
 30
-3.36
 11
-0.77
 21
-2.65
 31
-3.35
 12
-0.86
 22
-2.70
 32
-3.43
 13
-0.86
 23
-2.70
 33
-3.43
  0
3DFACE
  8
0----
 10
-0.77
 20
-2.65
 30
-3.35
 11
-0.86
 21
-2.68
 31
-3.36
 12
-0.84
 22
-2.59
 32
-3.09
 13
-0.84
 23
-2.59
 33
-3.09
  0
3DFACE
  8
0----
 10
-0.84
 20
-2.59
 30
-3.09
 11
-0.76
 21
-2.58
 31
-3.13
 12
-0.77
 22
-2.65
 32
-3.35
 13
-0.77
 23
-2.65
 33
-3.35
  0
3DFACE
  8
0----
 10
-0.77
 20
-2.65
 30
-3.35
 11
-0.76
 21
-2.58
 31
-3.13
 12
-0.50
 22
-2.56
 32
-3.42
 13
-0.50
 23
-2.56
 33
-3.42
  0
3DFACE
  8
0----
 10
-0.76
 20
-2.58
 30
-3.13
 11
-0.84
 21
-2.59
 31
-3.09
 12
-0.80
 22
-2.49
 32
-2.91
 13
-0.80
 23
-2.49
 33
-2.91
  0
3DFACE
  8
0----
 10
-0.80
 20
-2.49
 30
-2.91
 11
-0.68
 21
-2.52
 31
-3.02
 12
-0.76
 22
-2.58
 32
-3.13
 13
-0.76
 23
-2.58
 33
-3.13
  0
3DFACE
  8
0----
 10
-0.76
 20
-2.58
 30
-3.13
 11
-0.68
 21
-2.52
 31
-3.02
 12
-0.61
 22
-2.54
 32
-3.14
 13
-0.61
 23
-2.54
 33
-3.14
  0
3DFACE
  8
0----
 10
-0.50
 20
-2.56
 30
-3.42
 11
-0.76
 21
-2.58
 31
-3.13
 12
-0.61
 22
-2.54
 32
-3.14
 13
-0.61
 23
-2.54
 33
-3.14
  0
3DFACE
  8
0----
 10
-0.61
 20
-2.54
 30
-3.14
 11
-0.32
 21
-2.60
 31
-3.33
 12
-0.50
 22
-2.56
 32
-3.42
 13
-0.50
 23
-2.56
 33
-3.42
  0
3DFACE
  8
0----
 10
-0.32
 20
-2.60
 30
-3.33
 11
-0.61
 21
-2.54
 31
-3.14
 12
-0.45
 22
-2.52
 32
-3.16
 13
-0.45
 23
-2.52
 33
-3.16
  0
3DFACE
  8
0----
 10
-0.77
 20
-2.65
 30
-3.35
 11
-0.67
 21
-2.66
 31
-3.62
 12
-0.75
 22
-2.71
 32
-3.60
 13
-0.75
 23
-2.71
 33
-3.60
  0
3DFACE
  8
0----
 10
-0.67
 20
-2.66
 30
-3.62
 11
-0.77
 21
-2.65
 31
-3.35
 12
-0.50
 22
-2.56
 32
-3.42
 13
-0.50
 23
-2.56
 33
-3.42
  0
3DFACE
  8
0----
 10
-0.50
 20
-2.56
 30
-3.42
 11
-0.46
 21
-2.57
 31
-3.55
 12
-0.67
 22
-2.66
 32
-3.62
 13
-0.67
 23
-2.66
 33
-3.62
  0
3DFACE
  8
0----
 10
-0.67
 20
-2.66
 30
-3.62
 11
-0.46
 21
-2.57
 31
-3.55
 12
-0.42
 22
-2.58
 32
-3.80
 13
-0.42
 23
-2.58
 33
-3.80
  0
3DFACE
  8
0----
 10
-0.67
 20
-2.66
 30
-3.62
 11
-0.42
 21
-2.58
 31
-3.80
 12
-0.58
 22
-2.63
 32
-3.88
 13
-0.58
 23
-2.63
 33
-3.88
  0
3DFACE
  8
0----
 10
-0.58
 20
-2.63
 30
-3.88
 11
-0.42
 21
-2.58
 31
-3.80
 12
-0.38
 22
-2.57
 32
-4.15
 13
-0.38
 23
-2.57
 33
-4.15
  0
3DFACE
  8
0----
 10
-0.38
 20
-2.57
 30
-4.15
 11
-0.56
 21
-2.58
 31
-4.17
 12
-0.58
 22
-2.63
 32
-3.88
 13
-0.58
 23
-2.63
 33
-3.88
  0
3DFACE
  8
0----
 10
-0.58
 20
-2.63
 30
-3.88
 11
-0.56
 21
-2.58
 31
-4.17
 12
-0.74
 22
-2.76
 32
-3.95
 13
-0.74
 23
-2.76
 33
-3.95
  0
3DFACE
  8
0----
 10
-0.74
 20
-2.76
 30
-3.95
 11
-0.56
 21
-2.58
 31
-4.17
 12
-0.69
 22
-2.69
 32
-4.19
 13
-0.69
 23
-2.69
 33
-4.19
  0
3DFACE
  8
0----
 10
-0.69
 20
-2.69
 30
-4.19
 11
-0.56
 21
-2.58
 31
-4.17
 12
-0.57
 22
-2.57
 32
-4.25
 13
-0.57
 23
-2.57
 33
-4.25
  0
3DFACE
  8
0----
 10
-0.57
 20
-2.57
 30
-4.25
 11
-0.61
 21
-2.65
 31
-4.34
 12
-0.69
 22
-2.69
 32
-4.19
 13
-0.69
 23
-2.69
 33
-4.19
  0
3DFACE
  8
0----
 10
-0.56
 20
-2.58
 30
-4.17
 11
-0.38
 21
-2.57
 31
-4.15
 12
-0.57
 22
-2.57
 32
-4.25
 13
-0.57
 23
-2.57
 33
-4.25
  0
3DFACE
  8
0----
 10
-0.57
 20
-2.57
 30
-4.25
 11
-0.38
 21
-2.57
 31
-4.15
 12
-0.37
 22
-2.55
 32
-4.37
 13
-0.37
 23
-2.55
 33
-4.37
  0
3DFACE
  8
0----
 10
-0.37
 20
-2.55
 30
-4.37
 11
-0.48
 21
-2.56
 31
-4.36
 12
-0.57
 22
-2.57
 32
-4.25
 13
-0.57
 23
-2.57
 33
-4.25
  0
3DFACE
  8
0----
 10
-0.90
 20
-2.58
 30
-4.28
 11
-0.74
 21
-2.61
 31
-4.31
 12
-0.83
 22
-2.71
 32
-4.45
 13
-0.83
 23
-2.71
 33
-4.45
  0
3DFACE
  8
0----
 10
-0.83
 20
-2.71
 30
-4.45
 11
-0.98
 21
-2.71
 31
-4.43
 12
-0.90
 22
-2.58
 32
-4.28
 13
-0.90
 23
-2.58
 33
-4.28
  0
3DFACE
  8
0----
 10
-0.90
 20
-2.58
 30
-4.28
 11
-0.98
 21
-2.71
 31
-4.43
 12
-1.07
 22
-2.58
 32
-4.28
 13
-1.07
 23
-2.58
 33
-4.28
  0
3DFACE
  8
0----
 10
-1.07
 20
-2.58
 30
-4.28
 11
-0.98
 21
-2.71
 31
-4.43
 12
-1.08
 22
-2.73
 32
-4.42
 13
-1.08
 23
-2.73
 33
-4.42
  0
3DFACE
  8
0----
 10
-1.08
 20
-2.73
 30
-4.42
 11
-1.19
 21
-2.61
 31
-4.31
 12
-1.07
 22
-2.58
 32
-4.28
 13
-1.07
 23
-2.58
 33
-4.28
  0
3DFACE
  8
0----
 10
-1.08
 20
-2.73
 30
-4.42
 11
-1.22
 21
-2.68
 31
-4.44
 12
-1.19
 22
-2.61
 32
-4.31
 13
-1.19
 23
-2.61
 33
-4.31
  0
3DFACE
  8
0----
 10
-0.79
 20
-2.73
 30
-3.93
 11
-0.74
 21
-2.76
 31
-3.95
 12
-0.69
 22
-2.69
 32
-4.19
 13
-0.69
 23
-2.69
 33
-4.19
  0
3DFACE
  8
0----
 10
-0.69
 20
-2.69
 30
-4.19
 11
-0.61
 21
-2.65
 31
-4.34
 12
-0.74
 22
-2.61
 32
-4.31
 13
-0.74
 23
-2.61
 33
-4.31
  0
3DFACE
  8
0----
 10
-0.57
 20
-2.57
 30
-4.25
 11
-0.48
 21
-2.56
 31
-4.36
 12
-0.61
 22
-2.65
 32
-4.34
 13
-0.61
 23
-2.65
 33
-4.34
  0
3DFACE
  8
0----
 10
-1.22
 20
-2.68
 30
-4.44
 11
-1.08
 21
-2.73
 31
-4.42
 12
-1.04
 22
-2.64
 32
-4.55
 13
-1.04
 23
-2.64
 33
-4.55
  0
3DFACE
  8
0----
 10
-1.04
 20
-2.64
 30
-4.55
 11
-1.21
 21
-2.65
 31
-4.55
 12
-1.22
 22
-2.68
 32
-4.44
 13
-1.22
 23
-2.68
 33
-4.44
  0
3DFACE
  8
0----
 10
-1.21
 20
-2.65
 30
-4.55
 11
-1.04
 21
-2.64
 31
-4.55
 12
-1.07
 22
-2.63
 32
-4.66
 13
-1.07
 23
-2.63
 33
-4.66
  0
3DFACE
  8
0----
 10
-1.07
 20
-2.63
 30
-4.66
 11
-1.20
 21
-2.64
 31
-4.64
 12
-1.21
 22
-2.65
 32
-4.55
 13
-1.21
 23
-2.65
 33
-4.55
  0
3DFACE
  8
0----
 10
-1.04
 20
-2.64
 30
-4.55
 11
-1.08
 21
-2.73
 31
-4.42
 12
-0.98
 22
-2.71
 32
-4.43
 13
-0.98
 23
-2.71
 33
-4.43
  0
3DFACE
  8
0----
 10
-0.98
 20
-2.71
 30
-4.43
 11
-0.83
 21
-2.71
 31
-4.45
 12
-1.04
 22
-2.64
 32
-4.55
 13
-1.04
 23
-2.64
 33
-4.55
  0
3DFACE
  8
0----
 10
-1.04
 20
-2.64
 30
-4.55
 11
-0.83
 21
-2.71
 31
-4.45
 12
-0.74
 22
-2.63
 32
-4.58
 13
-0.74
 23
-2.63
 33
-4.58
  0
3DFACE
  8
0----
 10
-0.74
 20
-2.63
 30
-4.58
 11
-0.89
 21
-2.65
 31
-4.69
 12
-1.04
 22
-2.64
 32
-4.55
 13
-1.04
 23
-2.64
 33
-4.55
  0
3DFACE
  8
0----
 10
-0.83
 20
-2.71
 30
-4.45
 11
-0.73
 21
-2.67
 31
-4.42
 12
-0.74
 22
-2.63
 32
-4.58
 13
-0.74
 23
-2.63
 33
-4.58
  0
3DFACE
  8
0----
 10
-0.73
 20
-2.67
 30
-4.42
 11
-0.74
 21
-2.61
 31
-4.31
 12
-0.61
 22
-2.65
 32
-4.34
 13
-0.61
 23
-2.65
 33
-4.34
  0
3DFACE
  8
0----
 10
-0.74
 20
-2.61
 30
-4.31
 11
-0.73
 21
-2.67
 31
-4.42
 12
-0.83
 22
-2.71
 32
-4.45
 13
-0.83
 23
-2.71
 33
-4.45
  0
3DFACE
  8
0----
 10
-1.04
 20
-2.64
 30
-4.55
 11
-0.89
 21
-2.65
 31
-4.69
 12
-1.07
 22
-2.63
 32
-4.66
 13
-1.07
 23
-2.63
 33
-4.66
  0
3DFACE
  8
0----
 10
-0.73
 20
-2.67
 30
-4.42
 11
-0.61
 21
-2.65
 31
-4.34
 12
-0.64
 22
-2.63
 32
-4.53
 13
-0.64
 23
-2.63
 33
-4.53
  0
3DFACE
  8
0----
 10
-0.64
 20
-2.63
 30
-4.53
 11
-0.74
 21
-2.63
 31
-4.58
 12
-0.73
 22
-2.67
 32
-4.42
 13
-0.73
 23
-2.67
 33
-4.42
  0
3DFACE
  8
0----
 10
-0.74
 20
-2.63
 30
-4.58
 11
-0.60
 21
-2.63
 31
-4.59
 12
-0.65
 22
-2.68
 32
-4.68
 13
-0.65
 23
-2.68
 33
-4.68
  0
3DFACE
  8
0----
 10
-0.65
 20
-2.68
 30
-4.68
 11
-0.64
 21
-2.74
 31
-4.81
 12
-0.71
 22
-2.65
 32
-4.68
 13
-0.71
 23
-2.65
 33
-4.68
  0
3DFACE
  8
0----
 10
-0.71
 20
-2.65
 30
-4.68
 11
-0.64
 21
-2.74
 31
-4.81
 12
-0.72
 22
-2.72
 32
-4.84
 13
-0.72
 23
-2.72
 33
-4.84
  0
3DFACE
  8
0----
 10
-0.72
 20
-2.72
 30
-4.84
 11
-0.80
 21
-2.71
 31
-4.84
 12
-0.80
 22
-2.68
 32
-4.73
 13
-0.80
 23
-2.68
 33
-4.73
  0
3DFACE
  8
0----
 10
-0.80
 20
-2.68
 30
-4.73
 11
-0.89
 21
-2.65
 31
-4.69
 12
-0.74
 22
-2.63
 32
-4.58
 13
-0.74
 23
-2.63
 33
-4.58
  0
3DFACE
  8
0----
 10
-0.74
 20
-2.63
 30
-4.58
 11
-0.71
 21
-2.65
 31
-4.68
 12
-0.80
 22
-2.68
 32
-4.73
 13
-0.80
 23
-2.68
 33
-4.73
  0
3DFACE
  8
0----
 10
-0.80
 20
-2.68
 30
-4.73
 11
-0.71
 21
-2.65
 31
-4.68
 12
-0.72
 22
-2.72
 32
-4.84
 13
-0.72
 23
-2.72
 33
-4.84
  0
3DFACE
  8
0----
 10
-0.74
 20
-2.63
 30
-4.58
 11
-0.65
 21
-2.68
 31
-4.68
 12
-0.71
 22
-2.65
 32
-4.68
 13
-0.71
 23
-2.65
 33
-4.68
  0
3DFACE
  8
0----
 10
-0.74
 20
-2.63
 30
-4.58
 11
-0.64
 21
-2.63
 31
-4.53
 12
-0.60
 22
-2.63
 32
-4.59
 13
-0.60
 23
-2.63
 33
-4.59
  0
3DFACE
  8
0----
 10
-0.64
 20
-2.63
 30
-4.53
 11
-0.61
 21
-2.65
 31
-4.34
 12
-0.49
 22
-2.59
 32
-4.54
 13
-0.49
 23
-2.59
 33
-4.54
  0
3DFACE
  8
0----
 10
-0.60
 20
-2.63
 30
-4.59
 11
-0.64
 21
-2.63
 31
-4.53
 12
-0.49
 22
-2.59
 32
-4.54
 13
-0.49
 23
-2.59
 33
-4.54
  0
3DFACE
  8
0----
 10
-1.20
 20
-2.64
 30
-4.64
 11
-1.07
 21
-2.63
 31
-4.66
 12
-1.20
 22
-2.64
 32
-4.80
 13
-1.20
 23
-2.64
 33
-4.80
  0
3DFACE
  8
0----
 10
-1.20
 20
-2.64
 30
-4.80
 11
-1.07
 21
-2.63
 31
-4.66
 12
-1.06
 22
-2.67
 32
-4.81
 13
-1.06
 23
-2.67
 33
-4.81
  0
3DFACE
  8
0----
 10
-1.06
 20
-2.67
 30
-4.81
 11
-1.07
 21
-2.63
 31
-4.66
 12
-0.91
 22
-2.69
 32
-4.82
 13
-0.91
 23
-2.69
 33
-4.82
  0
3DFACE
  8
0----
 10
-1.07
 20
-2.63
 30
-4.66
 11
-0.89
 21
-2.65
 31
-4.69
 12
-0.91
 22
-2.69
 32
-4.82
 13
-0.91
 23
-2.69
 33
-4.82
  0
3DFACE
  8
0----
 10
-0.89
 20
-2.65
 30
-4.69
 11
-0.80
 21
-2.68
 31
-4.73
 12
-0.91
 22
-2.69
 32
-4.82
 13
-0.91
 23
-2.69
 33
-4.82
  0
3DFACE
  8
0----
 10
-0.80
 20
-2.68
 30
-4.73
 11
-0.80
 21
-2.71
 31
-4.84
 12
-0.91
 22
-2.69
 32
-4.82
 13
-0.91
 23
-2.69
 33
-4.82
  0
3DFACE
  8
0----
 10
-0.61
 20
-2.65
 30
-4.34
 11
-0.48
 21
-2.56
 31
-4.36
 12
-0.49
 22
-2.59
 32
-4.54
 13
-0.49
 23
-2.59
 33
-4.54
  0
3DFACE
  8
0----
 10
-0.49
 20
-2.59
 30
-4.54
 11
-0.48
 21
-2.56
 31
-4.36
 12
-0.37
 22
-2.55
 32
-4.37
 13
-0.37
 23
-2.55
 33
-4.37
  0
3DFACE
  8
0----
 10
-0.37
 20
-2.55
 30
-4.37
 11
-0.33
 21
-2.54
 31
-4.51
 12
-0.40
 22
-2.56
 32
-4.53
 13
-0.40
 23
-2.56
 33
-4.53
  0
3DFACE
  8
0----
 10
-0.40
 20
-2.56
 30
-4.53
 11
-0.33
 21
-2.54
 31
-4.51
 12
-0.38
 22
-2.59
 32
-4.66
 13
-0.38
 23
-2.59
 33
-4.66
  0
3DFACE
  8
0----
 10
-0.40
 20
-2.56
 30
-4.53
 11
-0.38
 21
-2.59
 31
-4.66
 12
-0.49
 22
-2.59
 32
-4.54
 13
-0.49
 23
-2.59
 33
-4.54
  0
3DFACE
  8
0----
 10
-0.49
 20
-2.59
 30
-4.54
 11
-0.38
 21
-2.59
 31
-4.66
 12
-0.55
 22
-2.63
 32
-4.66
 13
-0.55
 23
-2.63
 33
-4.66
  0
3DFACE
  8
0----
 10
-0.60
 20
-2.63
 30
-4.59
 11
-0.49
 21
-2.59
 31
-4.54
 12
-0.55
 22
-2.63
 32
-4.66
 13
-0.55
 23
-2.63
 33
-4.66
  0
3DFACE
  8
0----
 10
-0.60
 20
-2.63
 30
-4.59
 11
-0.55
 21
-2.63
 31
-4.66
 12
-0.65
 22
-2.68
 32
-4.68
 13
-0.65
 23
-2.68
 33
-4.68
  0
3DFACE
  8
0----
 10
-0.37
 20
-2.55
 30
-4.37
 11
-0.40
 21
-2.56
 31
-4.53
 12
-0.49
 22
-2.59
 32
-4.54
 13
-0.49
 23
-2.59
 33
-4.54
  0
3DFACE
  8
0----
 10
-0.55
 20
-2.63
 30
-4.66
 11
-0.38
 21
-2.59
 31
-4.66
 12
-0.40
 22
-2.63
 32
-4.76
 13
-0.40
 23
-2.63
 33
-4.76
  0
3DFACE
  8
0----
 10
-0.40
 20
-2.63
 30
-4.76
 11
-0.38
 21
-2.59
 31
-4.66
 12
-0.33
 22
-2.55
 32
-4.66
 13
-0.33
 23
-2.55
 33
-4.66
  0
3DFACE
  8
0----
 10
-0.56
 20
-2.69
 30
-4.85
 11
-0.55
 21
-2.63
 31
-4.66
 12
-0.41
 22
-2.65
 32
-4.84
 13
-0.41
 23
-2.65
 33
-4.84
  0
3DFACE
  8
0----
 10
-0.41
 20
-2.65
 30
-4.84
 11
-0.40
 21
-2.63
 31
-4.76
 12
-0.33
 22
-2.58
 32
-4.76
 13
-0.33
 23
-2.58
 33
-4.76
  0
3DFACE
  8
0----
 10
-0.65
 20
-2.68
 30
-4.68
 11
-0.56
 21
-2.69
 31
-4.85
 12
-0.64
 22
-2.74
 32
-4.81
 13
-0.64
 23
-2.74
 33
-4.81
  0
3DFACE
  8
0----
 10
-0.65
 20
-2.68
 30
-4.68
 11
-0.55
 21
-2.63
 31
-4.66
 12
-0.56
 22
-2.69
 32
-4.85
 13
-0.56
 23
-2.69
 33
-4.85
  0
3DFACE
  8
0----
 10
-0.55
 20
-2.63
 30
-4.66
 11
-0.40
 21
-2.63
 31
-4.76
 12
-0.41
 22
-2.65
 32
-4.84
 13
-0.41
 23
-2.65
 33
-4.84
  0
3DFACE
  8
0----
 10
-0.33
 20
-2.58
 30
-4.76
 11
-0.33
 21
-2.55
 31
-4.66
 12
-0.26
 22
-2.54
 32
-4.65
 13
-0.26
 23
-2.54
 33
-4.65
  0
3DFACE
  8
0----
 10
-0.26
 20
-2.54
 30
-4.65
 11
-0.33
 21
-2.55
 31
-4.66
 12
-0.33
 22
-2.54
 32
-4.51
 13
-0.33
 23
-2.54
 33
-4.51
  0
3DFACE
  8
0----
 10
-0.33
 20
-2.54
 30
-4.51
 11
-0.27
 21
-2.54
 31
-4.34
 12
-0.23
 22
-2.48
 32
-4.47
 13
-0.23
 23
-2.48
 33
-4.47
  0
3DFACE
  8
0----
 10
-0.23
 20
-2.48
 30
-4.47
 11
-0.20
 21
-2.50
 31
-4.64
 12
-0.26
 22
-2.54
 32
-4.65
 13
-0.26
 23
-2.54
 33
-4.65
  0
3DFACE
  8
0----
 10
-0.26
 20
-2.54
 30
-4.65
 11
-0.20
 21
-2.50
 31
-4.64
 12
-0.18
 22
-2.50
 32
-4.75
 13
-0.18
 23
-2.50
 33
-4.75
  0
3DFACE
  8
0----
 10
-0.33
 20
-2.54
 30
-4.51
 11
-0.23
 21
-2.48
 31
-4.47
 12
-0.26
 22
-2.54
 32
-4.65
 13
-0.26
 23
-2.54
 33
-4.65
  0
3DFACE
  8
0----
 10
-0.33
 20
-2.54
 30
-4.51
 11
-0.33
 21
-2.55
 31
-4.66
 12
-0.38
 22
-2.59
 32
-4.66
 13
-0.38
 23
-2.59
 33
-4.66
  0
3DFACE
  8
0----
 10
-0.33
 20
-2.55
 30
-4.66
 11
-0.33
 21
-2.58
 31
-4.76
 12
-0.40
 22
-2.63
 32
-4.76
 13
-0.40
 23
-2.63
 33
-4.76
  0
3DFACE
  8
0----
 10
-0.27
 20
-2.54
 30
-4.34
 11
-0.37
 21
-2.55
 31
-4.37
 12
-0.38
 22
-2.57
 32
-4.15
 13
-0.38
 23
-2.57
 33
-4.15
  0
3DFACE
  8
0----
 10
-0.38
 20
-2.57
 30
-4.15
 11
-0.11
 21
-2.51
 31
-4.27
 12
-0.27
 22
-2.54
 32
-4.34
 13
-0.27
 23
-2.54
 33
-4.34
  0
3DFACE
  8
0----
 10
-0.27
 20
-2.54
 30
-4.34
 11
-0.11
 21
-2.51
 31
-4.27
 12
-0.07
 22
-2.45
 32
-4.45
 13
-0.07
 23
-2.45
 33
-4.45
  0
3DFACE
  8
0----
 10
-0.07
 20
-2.45
 30
-4.45
 11
-0.08
 21
-2.45
 31
-4.67
 12
-0.23
 22
-2.48
 32
-4.47
 13
-0.23
 23
-2.48
 33
-4.47
  0
3DFACE
  8
0----
 10
-0.08
 20
-2.45
 30
-4.67
 11
-0.10
 21
-2.47
 31
-4.75
 12
-0.20
 22
-2.50
 32
-4.64
 13
-0.20
 23
-2.50
 33
-4.64
  0
3DFACE
  8
0----
 10
-0.20
 20
-2.50
 30
-4.64
 11
-0.10
 21
-2.47
 31
-4.75
 12
-0.18
 22
-2.50
 32
-4.75
 13
-0.18
 23
-2.50
 33
-4.75
  0
3DFACE
  8
0----
 10
-0.18
 20
-2.50
 30
-4.75
 11
-0.10
 21
-2.47
 31
-4.75
 12
-0.10
 22
-2.47
 32
-4.81
 13
-0.10
 23
-2.47
 33
-4.81
  0
3DFACE
  8
0----
 10
-0.10
 20
-2.47
 30
-4.81
 11
-0.18
 21
-2.52
 31
-4.83
 12
-0.18
 22
-2.50
 32
-4.75
 13
-0.18
 23
-2.50
 33
-4.75
  0
3DFACE
  8
0----
 10
-0.37
 20
-2.55
 30
-4.37
 11
-0.27
 21
-2.54
 31
-4.34
 12
-0.33
 22
-2.54
 32
-4.51
 13
-0.33
 23
-2.54
 33
-4.51
  0
3DFACE
  8
0----
 10
-0.27
 20
-2.54
 30
-4.34
 11
-0.07
 21
-2.45
 31
-4.45
 12
-0.23
 22
-2.48
 32
-4.47
 13
-0.23
 23
-2.48
 33
-4.47
  0
3DFACE
  8
0----
 10
-0.23
 20
-2.48
 30
-4.47
 11
-0.08
 21
-2.45
 31
-4.67
 12
-0.20
 22
-2.50
 32
-4.64
 13
-0.20
 23
-2.50
 33
-4.64
  0
3DFACE
  8
0----
 10
-0.34
 20
-2.58
 30
-4.86
 11
-0.33
 21
-2.58
 31
-4.76
 12
-0.25
 22
-2.56
 32
-4.84
 13
-0.25
 23
-2.56
 33
-4.84
  0
3DFACE
  8
0----
 10
-0.25
 20
-2.56
 30
-4.84
 11
-0.26
 21
-2.56
 31
-4.76
 12
-0.18
 22
-2.52
 32
-4.83
 13
-0.18
 23
-2.52
 33
-4.83
  0
3DFACE
  8
0----
 10
-0.18
 20
-2.52
 30
-4.83
 11
-0.26
 21
-2.56
 31
-4.76
 12
-0.18
 22
-2.50
 32
-4.75
 13
-0.18
 23
-2.50
 33
-4.75
  0
3DFACE
  8
0----
 10
-0.26
 20
-2.54
 30
-4.65
 11
-0.18
 21
-2.50
 31
-4.75
 12
-0.26
 22
-2.56
 32
-4.76
 13
-0.26
 23
-2.56
 33
-4.76
  0
3DFACE
  8
0----
 10
-0.26
 20
-2.54
 30
-4.65
 11
-0.26
 21
-2.56
 31
-4.76
 12
-0.33
 22
-2.58
 32
-4.76
 13
-0.33
 23
-2.58
 33
-4.76
  0
3DFACE
  8
0----
 10
-0.33
 20
-2.58
 30
-4.76
 11
-0.26
 21
-2.56
 31
-4.76
 12
-0.25
 22
-2.56
 32
-4.84
 13
-0.25
 23
-2.56
 33
-4.84
  0
3DFACE
  8
0----
 10
-0.41
 20
-2.65
 30
-4.84
 11
-0.33
 21
-2.58
 31
-4.76
 12
-0.34
 22
-2.58
 32
-4.86
 13
-0.34
 23
-2.58
 33
-4.86
  0
3DFACE
  8
0----
 10
-0.38
 20
-2.57
 30
-4.15
 11
-0.42
 21
-2.58
 31
-3.80
 12
-0.27
 22
-2.56
 32
-3.76
 13
-0.27
 23
-2.56
 33
-3.76
  0
3DFACE
  8
0----
 10
-0.33
 20
-2.61
 30
-3.49
 11
-0.46
 21
-2.57
 31
-3.55
 12
-0.50
 22
-2.56
 32
-3.42
 13
-0.50
 23
-2.56
 33
-3.42
  0
3DFACE
  8
0----
 10
-0.50
 20
-2.56
 30
-3.42
 11
-0.32
 21
-2.60
 31
-3.33
 12
-0.33
 22
-2.61
 32
-3.49
 13
-0.33
 23
-2.61
 33
-3.49
  0
3DFACE
  8
0----
 10
-0.54
 20
-2.47
 30
-2.94
 11
-0.41
 21
-2.40
 31
-2.98
 12
-0.33
 22
-2.46
 32
-3.17
 13
-0.33
 23
-2.46
 33
-3.17
  0
3DFACE
  8
0----
 10
-0.33
 20
-2.46
 30
-3.17
 11
-0.45
 21
-2.52
 31
-3.16
 12
-0.54
 22
-2.47
 32
-2.94
 13
-0.54
 23
-2.47
 33
-2.94
  0
3DFACE
  8
0----
 10
-0.41
 20
-2.40
 30
-2.98
 11
-0.54
 21
-2.47
 31
-2.94
 12
-0.56
 22
-2.49
 32
-2.75
 13
-0.56
 23
-2.49
 33
-2.75
  0
3DFACE
  8
0----
 10
-0.56
 20
-2.49
 30
-2.75
 11
-0.43
 21
-2.37
 31
-2.82
 12
-0.41
 22
-2.40
 32
-2.98
 13
-0.41
 23
-2.40
 33
-2.98
  0
3DFACE
  8
0----
 10
-0.43
 20
-2.37
 30
-2.82
 11
-0.56
 21
-2.49
 31
-2.75
 12
-0.40
 22
-2.36
 32
-2.64
 13
-0.40
 23
-2.36
 33
-2.64
  0
3DFACE
  8
0----
 10
-0.40
 20
-2.36
 30
-2.64
 11
-0.56
 21
-2.49
 31
-2.75
 12
-0.55
 22
-2.59
 32
-2.56
 13
-0.55
 23
-2.59
 33
-2.56
  0
3DFACE
  8
0----
 10
-0.45
 20
-2.52
 30
-3.16
 11
-0.33
 21
-2.46
 31
-3.17
 12
-0.32
 22
-2.60
 32
-3.33
 13
-0.32
 23
-2.60
 33
-3.33
  0
3DFACE
  8
0----
 10
-0.32
 20
-2.60
 30
-3.33
 11
-0.33
 21
-2.46
 31
-3.17
 12
-0.24
 22
-2.52
 32
-3.30
 13
-0.24
 23
-2.52
 33
-3.30
  0
3DFACE
  8
0----
 10
-0.55
 20
-2.59
 30
-2.56
 11
-0.43
 21
-2.71
 31
-2.45
 12
-0.34
 22
-2.44
 32
-2.57
 13
-0.34
 23
-2.44
 33
-2.57
  0
3DFACE
  8
0----
 10
-0.34
 20
-2.44
 30
-2.57
 11
-0.40
 21
-2.36
 31
-2.64
 12
-0.55
 22
-2.59
 32
-2.56
 13
-0.55
 23
-2.59
 33
-2.56
  0
3DFACE
  8
0----
 10
-0.34
 20
-2.44
 30
-2.57
 11
-0.43
 21
-2.71
 31
-2.45
 12
-0.25
 22
-2.82
 32
-2.39
 13
-0.25
 23
-2.82
 33
-2.39
  0
3DFACE
  8
0----
 10
-0.25
 20
-2.82
 30
-2.39
 11
-0.22
 21
-2.53
 31
-2.49
 12
-0.34
 22
-2.44
 32
-2.57
 13
-0.34
 23
-2.44
 33
-2.57
  0
3DFACE
  8
0----
 10
-0.22
 20
-2.53
 30
-2.49
 11
-0.25
 21
-2.82
 31
-2.39
 12
0.04
 22
-2.88
 32
-2.35
 13
0.04
 23
-2.88
 33
-2.35
  0
3DFACE
  8
0----
 10
0.04
 20
-2.88
 30
-2.35
 11
-0.05
 21
-2.60
 31
-2.42
 12
-0.22
 22
-2.53
 32
-2.49
 13
-0.22
 23
-2.53
 33
-2.49
  0
3DFACE
  8
0----
 10
-0.05
 20
-2.60
 30
-2.42
 11
0.04
 21
-2.88
 31
-2.35
 12
0.12
 22
-2.63
 32
-2.40
 13
0.12
 23
-2.63
 33
-2.40
  0
3DFACE
  8
0----
 10
0.12
 20
-2.63
 30
-2.40
 11
0.04
 21
-2.88
 31
-2.35
 12
0.37
 22
-2.81
 32
-2.33
 13
0.37
 23
-2.81
 33
-2.33
  0
3DFACE
  8
0----
 10
0.37
 20
-2.81
 30
-2.33
 11
0.26
 21
-2.64
 31
-2.43
 12
0.12
 22
-2.63
 32
-2.40
 13
0.12
 23
-2.63
 33
-2.40
  0
3DFACE
  8
0----
 10
0.46
 20
-2.63
 30
-2.60
 11
0.26
 21
-2.64
 31
-2.43
 12
0.52
 22
-2.71
 32
-2.50
 13
0.52
 23
-2.71
 33
-2.50
  0
3DFACE
  8
0----
 10
0.52
 20
-2.71
 30
-2.50
 11
0.26
 21
-2.64
 31
-2.43
 12
0.37
 22
-2.81
 32
-2.33
 13
0.37
 23
-2.81
 33
-2.33
  0
3DFACE
  8
0----
 10
0.37
 20
-2.81
 30
-2.33
 11
0.63
 21
-2.71
 31
-2.36
 12
0.52
 22
-2.71
 32
-2.50
 13
0.52
 23
-2.71
 33
-2.50
  0
3DFACE
  8
0----
 10
0.62
 20
-2.70
 30
-2.27
 11
0.63
 21
-2.71
 31
-2.36
 12
0.37
 22
-2.81
 32
-2.33
 13
0.37
 23
-2.81
 33
-2.33
  0
3DFACE
  8
0----
 10
0.37
 20
-2.81
 30
-2.33
 11
0.38
 21
-2.70
 31
-2.11
 12
0.62
 22
-2.70
 32
-2.27
 13
0.62
 23
-2.70
 33
-2.27
  0
3DFACE
  8
0----
 10
0.62
 20
-2.70
 30
-2.27
 11
0.38
 21
-2.70
 31
-2.11
 12
0.65
 22
-2.55
 32
-2.16
 13
0.65
 23
-2.55
 33
-2.16
  0
3DFACE
  8
0----
 10
0.65
 20
-2.55
 30
-2.16
 11
0.89
 21
-2.48
 31
-2.37
 12
0.67
 22
-2.63
 32
-2.26
 13
0.67
 23
-2.63
 33
-2.26
  0
3DFACE
  8
0----
 10
0.67
 20
-2.63
 30
-2.26
 11
0.89
 21
-2.48
 31
-2.37
 12
0.79
 22
-2.67
 32
-2.53
 13
0.79
 23
-2.67
 33
-2.53
  0
3DFACE
  8
0----
 10
0.79
 20
-2.67
 30
-2.53
 11
0.63
 21
-2.71
 31
-2.36
 12
0.67
 22
-2.63
 32
-2.26
 13
0.67
 23
-2.63
 33
-2.26
  0
3DFACE
  8
0----
 10
0.65
 20
-2.55
 30
-2.16
 11
0.67
 21
-2.63
 31
-2.26
 12
0.62
 22
-2.70
 32
-2.27
 13
0.62
 23
-2.70
 33
-2.27
  0
3DFACE
  8
0----
 10
0.62
 20
-2.70
 30
-2.27
 11
0.67
 21
-2.63
 31
-2.26
 12
0.63
 22
-2.71
 32
-2.36
 13
0.63
 23
-2.71
 33
-2.36
  0
3DFACE
  8
0----
 10
0.65
 20
-2.55
 30
-2.16
 11
0.36
 21
-2.63
 31
-1.98
 12
0.75
 22
-2.22
 32
-1.64
 13
0.75
 23
-2.22
 33
-1.64
  0
3DFACE
  8
0----
 10
0.75
 20
-2.22
 30
-1.64
 11
0.36
 21
-2.63
 31
-1.98
 12
0.36
 22
-2.50
 32
-1.72
 13
0.36
 23
-2.50
 33
-1.72
  0
3DFACE
  8
0----
 10
0.36
 20
-2.63
 30
-1.98
 11
0.65
 21
-2.55
 31
-2.16
 12
0.38
 22
-2.70
 32
-2.11
 13
0.38
 23
-2.70
 33
-2.11
  0
3DFACE
  8
0----
 10
0.04
 20
-2.58
 30
-1.44
 11
0.01
 21
-2.66
 31
-1.67
 12
-0.38
 22
-2.70
 32
-1.70
 13
-0.38
 23
-2.70
 33
-1.70
  0
3DFACE
  8
0----
 10
0.04
 20
-2.58
 30
-1.44
 11
-0.38
 21
-2.70
 31
-1.70
 12
-0.33
 22
-2.55
 32
-1.20
 13
-0.33
 23
-2.55
 33
-1.20
  0
3DFACE
  8
0----
 10
0.04
 20
-2.58
 30
-1.44
 11
-0.33
 21
-2.55
 31
-1.20
 12
0.02
 22
-2.31
 32
-0.94
 13
0.02
 23
-2.31
 33
-0.94
  0
3DFACE
  8
0----
 10
0.04
 20
-2.58
 30
-1.44
 11
0.02
 21
-2.31
 31
-0.94
 12
0.38
 22
-2.36
 32
-1.28
 13
0.38
 23
-2.36
 33
-1.28
  0
3DFACE
  8
0----
 10
0.04
 20
-2.58
 30
-1.44
 11
0.38
 21
-2.36
 31
-1.28
 12
0.36
 22
-2.50
 32
-1.72
 13
0.36
 23
-2.50
 33
-1.72
  0
3DFACE
  8
0----
 10
0.04
 20
-2.58
 30
-1.44
 11
0.36
 21
-2.50
 31
-1.72
 12
0.01
 22
-2.66
 32
-1.67
 13
0.01
 23
-2.66
 33
-1.67
  0
3DFACE
  8
0----
 10
0.75
 20
-2.22
 30
-1.64
 11
0.36
 21
-2.50
 31
-1.72
 12
0.38
 22
-2.36
 32
-1.28
 13
0.38
 23
-2.36
 33
-1.28
  0
3DFACE
  8
0----
 10
0.38
 20
-2.36
 30
-1.28
 11
1.12
 21
-1.73
 31
-1.27
 12
0.75
 22
-2.22
 32
-1.64
 13
0.75
 23
-2.22
 33
-1.64
  0
3DFACE
  8
0----
 10
0.75
 20
-2.22
 30
-1.64
 11
1.12
 21
-1.73
 31
-1.27
 12
1.02
 22
-2.13
 32
-1.89
 13
1.02
 23
-2.13
 33
-1.89
  0
3DFACE
  8
0----
 10
0.89
 20
-2.48
 30
-2.37
 11
0.75
 21
-2.22
 31
-1.64
 12
1.02
 22
-2.13
 32
-1.89
 13
1.02
 23
-2.13
 33
-1.89
  0
3DFACE
  8
0----
 10
0.89
 20
-2.48
 30
-2.37
 11
0.65
 21
-2.55
 31
-2.16
 12
0.75
 22
-2.22
 32
-1.64
 13
0.75
 23
-2.22
 33
-1.64
  0
3DFACE
  8
0----
 10
0.02
 20
-2.31
 30
-0.94
 11
-0.33
 21
-2.55
 31
-1.20
 12
-0.22
 22
-2.11
 32
-0.73
 13
-0.22
 23
-2.11
 33
-0.73
  0
3DFACE
  8
0----
 10
0.63
 20
-2.71
 30
-2.36
 11
0.79
 21
-2.67
 31
-2.53
 12
0.65
 22
-2.70
 32
-2.90
 13
0.65
 23
-2.70
 33
-2.90
  0
3DFACE
  8
0----
 10
0.65
 20
-2.70
 30
-2.90
 11
0.52
 21
-2.71
 31
-2.50
 12
0.63
 22
-2.71
 32
-2.36
 13
0.63
 23
-2.71
 33
-2.36
  0
3DFACE
  8
0----
 10
0.46
 20
-2.63
 30
-2.60
 11
0.65
 21
-2.70
 31
-2.90
 12
0.56
 22
-2.64
 32
-2.89
 13
0.56
 23
-2.64
 33
-2.89
  0
3DFACE
  8
0----
 10
0.65
 20
-2.70
 30
-2.90
 11
0.46
 21
-2.63
 31
-2.60
 12
0.52
 22
-2.71
 32
-2.50
 13
0.52
 23
-2.71
 33
-2.50
  0
3DFACE
  8
0----
 10
0.04
 20
-2.56
 30
-4.16
 11
-0.10
 21
-2.55
 31
-4.15
 12
-0.10
 22
-2.57
 32
-3.95
 13
-0.10
 23
-2.57
 33
-3.95
  0
3DFACE
  8
0----
 10
-0.10
 20
-2.55
 30
-4.15
 11
-0.11
 21
-2.51
 31
-4.27
 12
-0.38
 22
-2.57
 32
-4.15
 13
-0.38
 23
-2.57
 33
-4.15
  0
3DFACE
  8
0----
 10
-0.10
 20
-2.57
 30
-3.95
 11
-0.10
 21
-2.55
 31
-4.15
 12
-0.38
 22
-2.57
 32
-4.15
 13
-0.38
 23
-2.57
 33
-4.15
  0
3DFACE
  8
0----
 10
-0.10
 20
-2.47
 30
-4.75
 11
-0.08
 21
-2.45
 31
-4.67
 12
0.02
 22
-2.30
 32
-4.63
 13
0.02
 23
-2.30
 33
-4.63
  0
3DFACE
  8
0----
 10
-0.10
 20
-2.47
 30
-4.75
 11
0.02
 21
-2.30
 31
-4.63
 12
0.03
 22
-2.34
 32
-4.84
 13
0.03
 23
-2.34
 33
-4.84
  0
3DFACE
  8
0----
 10
0.03
 20
-2.34
 30
-4.84
 11
-0.10
 21
-2.47
 31
-4.81
 12
-0.10
 22
-2.47
 32
-4.75
 13
-0.10
 23
-2.47
 33
-4.75
  0
3DFACE
  8
0----
 10
0.02
 20
-2.30
 30
-4.63
 11
-0.08
 21
-2.45
 31
-4.67
 12
0.01
 22
-2.31
 32
-4.49
 13
0.01
 23
-2.31
 33
-4.49
  0
3DFACE
  8
0----
 10
0.01
 20
-2.31
 30
-4.49
 11
-0.08
 21
-2.45
 31
-4.67
 12
-0.07
 22
-2.45
 32
-4.45
 13
-0.07
 23
-2.45
 33
-4.45
  0
3DFACE
  8
0----
 10
-0.07
 20
-2.45
 30
-4.45
 11
0.10
 21
-2.27
 31
-4.36
 12
0.01
 22
-2.31
 32
-4.49
 13
0.01
 23
-2.31
 33
-4.49
  0
3DFACE
  8
0----
 10
0.01
 20
-2.31
 30
-4.49
 11
0.10
 21
-2.27
 31
-4.36
 12
0.08
 22
-2.22
 32
-4.58
 13
0.08
 23
-2.22
 33
-4.58
  0
3DFACE
  8
0----
 10
0.08
 20
-2.22
 30
-4.58
 11
0.02
 21
-2.30
 31
-4.63
 12
0.01
 22
-2.31
 32
-4.49
 13
0.01
 23
-2.31
 33
-4.49
  0
3DFACE
  8
0----
 10
-0.07
 20
-2.45
 30
-4.45
 11
-0.02
 21
-2.47
 31
-4.35
 12
0.10
 22
-2.27
 32
-4.36
 13
0.10
 23
-2.27
 33
-4.36
  0
3DFACE
  8
0----
 10
-0.07
 20
-2.45
 30
-4.45
 11
-0.11
 21
-2.51
 31
-4.27
 12
-0.02
 22
-2.47
 32
-4.35
 13
-0.02
 23
-2.47
 33
-4.35
  0
3DFACE
  8
0----
 10
-0.02
 20
-2.47
 30
-4.35
 11
-0.11
 21
-2.51
 31
-4.27
 12
0.02
 22
-2.52
 32
-4.23
 13
0.02
 23
-2.52
 33
-4.23
  0
3DFACE
  8
0----
 10
0.02
 20
-2.52
 30
-4.23
 11
0.10
 21
-2.27
 31
-4.36
 12
-0.02
 22
-2.47
 32
-4.35
 13
-0.02
 23
-2.47
 33
-4.35
  0
3DFACE
  8
0----
 10
0.02
 20
-2.52
 30
-4.23
 11
-0.11
 21
-2.51
 31
-4.27
 12
-0.10
 22
-2.55
 32
-4.15
 13
-0.10
 23
-2.55
 33
-4.15
  0
3DFACE
  8
0----
 10
-0.10
 20
-2.55
 30
-4.15
 11
0.04
 21
-2.56
 31
-4.16
 12
0.02
 22
-2.52
 32
-4.23
 13
0.02
 23
-2.52
 33
-4.23
  0
3DFACE
  8
0----
 10
0.10
 20
-2.27
 30
-4.36
 11
0.16
 21
-2.13
 31
-4.34
 12
0.13
 22
-2.12
 32
-4.52
 13
0.13
 23
-2.12
 33
-4.52
  0
3DFACE
  8
0----
 10
0.13
 20
-2.12
 30
-4.52
 11
0.08
 21
-2.22
 31
-4.58
 12
0.10
 22
-2.27
 32
-4.36
 13
0.10
 23
-2.27
 33
-4.36
  0
3DFACE
  8
0----
 10
0.02
 20
-2.30
 30
-4.63
 11
0.08
 21
-2.22
 31
-4.58
 12
0.10
 22
-2.25
 32
-4.78
 13
0.10
 23
-2.25
 33
-4.78
  0
3DFACE
  8
0----
 10
0.10
 20
-2.25
 30
-4.78
 11
0.03
 21
-2.34
 31
-4.84
 12
0.02
 22
-2.30
 32
-4.63
 13
0.02
 23
-2.30
 33
-4.63
  0
3DFACE
  8
0----
 10
0.08
 20
-2.22
 30
-4.58
 11
0.13
 21
-2.12
 31
-4.52
 12
0.17
 22
-2.14
 32
-4.76
 13
0.17
 23
-2.14
 33
-4.76
  0
3DFACE
  8
0----
 10
0.17
 20
-2.14
 30
-4.76
 11
0.10
 21
-2.25
 31
-4.78
 12
0.08
 22
-2.22
 32
-4.58
 13
0.08
 23
-2.22
 33
-4.58
  0
3DFACE
  8
0----
 10
0.89
 20
-2.48
 30
-2.37
 11
1.00
 21
-2.47
 31
-2.51
 12
0.91
 22
-2.66
 32
-2.64
 13
0.91
 23
-2.66
 33
-2.64
  0
3DFACE
  8
0----
 10
0.91
 20
-2.66
 30
-2.64
 11
1.00
 21
-2.47
 31
-2.51
 12
0.98
 22
-2.64
 32
-2.75
 13
0.98
 23
-2.64
 33
-2.75
  0
3DFACE
  8
0----
 10
0.98
 20
-2.64
 30
-2.75
 11
1.00
 21
-2.47
 31
-2.51
 12
1.12
 22
-2.48
 32
-2.71
 13
1.12
 23
-2.48
 33
-2.71
  0
3DFACE
  8
0----
 10
0.89
 20
-2.48
 30
-2.37
 11
0.91
 21
-2.66
 31
-2.64
 12
0.79
 22
-2.67
 32
-2.53
 13
0.79
 23
-2.67
 33
-2.53
  0
3DFACE
  8
0----
 10
1.48
 20
-2.27
 30
-3.22
 11
1.45
 21
-2.21
 31
-3.03
 12
1.60
 22
-1.92
 32
-3.31
 13
1.60
 23
-1.92
 33
-3.31
  0
3DFACE
  8
0----
 10
1.42
 20
-2.15
 30
-2.59
 11
1.12
 21
-2.48
 31
-2.71
 12
1.00
 22
-2.47
 32
-2.51
 13
1.00
 23
-2.47
 33
-2.51
  0
3DFACE
  8
0----
 10
1.00
 20
-2.47
 30
-2.51
 11
1.32
 21
-2.05
 31
-2.23
 12
1.42
 22
-2.15
 32
-2.59
 13
1.42
 23
-2.15
 33
-2.59
  0
3DFACE
  8
0----
 10
0.89
 20
-2.48
 30
-2.37
 11
1.32
 21
-2.05
 31
-2.23
 12
1.00
 22
-2.47
 32
-2.51
 13
1.00
 23
-2.47
 33
-2.51
  0
3DFACE
  8
0----
 10
1.32
 20
-2.05
 30
-2.23
 11
0.89
 21
-2.48
 31
-2.37
 12
1.02
 22
-2.13
 32
-1.89
 13
1.02
 23
-2.13
 33
-1.89
  0
3DFACE
  8
0----
 10
1.02
 20
-2.13
 30
-1.89
 11
1.22
 21
-1.88
 31
-1.77
 12
1.32
 22
-2.05
 32
-2.23
 13
1.32
 23
-2.05
 33
-2.23
  0
3DFACE
  8
0----
 10
1.32
 20
-2.05
 30
-2.23
 11
1.22
 21
-1.88
 31
-1.77
 12
1.41
 22
-1.65
 32
-1.63
 13
1.41
 23
-1.65
 33
-1.63
  0
3DFACE
  8
0----
 10
1.41
 20
-1.65
 30
-1.63
 11
1.72
 21
-1.52
 31
-2.08
 12
1.32
 22
-2.05
 32
-2.23
 13
1.32
 23
-2.05
 33
-2.23
  0
3DFACE
  8
0----
 10
1.32
 20
-2.05
 30
-2.23
 11
1.72
 21
-1.52
 31
-2.08
 12
1.42
 22
-2.15
 32
-2.59
 13
1.42
 23
-2.15
 33
-2.59
  0
3DFACE
  8
0----
 10
1.42
 20
-2.15
 30
-2.59
 11
1.72
 21
-1.52
 31
-2.08
 12
1.71
 22
-1.64
 32
-2.67
 13
1.71
 23
-1.64
 33
-2.67
  0
3DFACE
  8
0----
 10
1.71
 20
-1.64
 30
-2.67
 11
1.71
 21
-1.59
 31
-2.95
 12
1.42
 22
-2.15
 32
-2.59
 13
1.42
 23
-2.15
 33
-2.59
  0
3DFACE
  8
0----
 10
1.42
 20
-2.15
 30
-2.59
 11
1.71
 21
-1.59
 31
-2.95
 12
1.61
 22
-1.80
 32
-3.08
 13
1.61
 23
-1.80
 33
-3.08
  0
3DFACE
  8
0----
 10
1.61
 20
-1.80
 30
-3.08
 11
1.45
 21
-2.21
 31
-3.03
 12
1.42
 22
-2.15
 32
-2.59
 13
1.42
 23
-2.15
 33
-2.59
  0
3DFACE
  8
0----
 10
1.12
 20
-1.73
 30
-1.27
 11
1.22
 21
-1.88
 31
-1.77
 12
1.02
 22
-2.13
 32
-1.89
 13
1.02
 23
-2.13
 33
-1.89
  0
3DFACE
  8
0----
 10
1.22
 20
-1.88
 30
-1.77
 11
1.12
 21
-1.73
 31
-1.27
 12
1.41
 22
-1.65
 32
-1.63
 13
1.41
 23
-1.65
 33
-1.63
  0
3DFACE
  8
0----
 10
0.80
 20
-1.85
 30
-1.00
 11
1.12
 21
-1.73
 31
-1.27
 12
0.38
 22
-2.36
 32
-1.28
 13
0.38
 23
-2.36
 33
-1.28
  0
3DFACE
  8
0----
 10
0.38
 20
-2.36
 30
-1.28
 11
0.33
 21
-2.00
 31
-0.77
 12
0.80
 22
-1.85
 32
-1.00
 13
0.80
 23
-1.85
 33
-1.00
  0
3DFACE
  8
0----
 10
0.38
 20
-2.36
 30
-1.28
 11
0.02
 21
-2.31
 31
-0.94
 12
0.33
 22
-2.00
 32
-0.77
 13
0.33
 23
-2.00
 33
-0.77
  0
3DFACE
  8
0----
 10
0.33
 20
-2.00
 30
-0.77
 11
0.02
 21
-2.31
 31
-0.94
 12
-0.22
 22
-2.11
 32
-0.73
 13
-0.22
 23
-2.11
 33
-0.73
  0
3DFACE
  8
0----
 10
-0.22
 20
-2.11
 30
-0.73
 11
-0.17
 21
-1.73
 31
-0.51
 12
0.33
 22
-2.00
 32
-0.77
 13
0.33
 23
-2.00
 33
-0.77
  0
3DFACE
  8
0----
 10
1.60
 20
-1.92
 30
-3.31
 11
1.45
 21
-2.21
 31
-3.03
 12
1.61
 22
-1.80
 32
-3.08
 13
1.61
 23
-1.80
 33
-3.08
  0
3DFACE
  8
0----
 10
1.41
 20
-1.65
 30
-1.63
 11
1.52
 21
-1.33
 31
-1.24
 12
1.72
 22
-1.52
 32
-2.08
 13
1.72
 23
-1.52
 33
-2.08
  0
3DFACE
  8
0----
 10
1.52
 20
-1.33
 30
-1.24
 11
1.41
 21
-1.65
 31
-1.63
 12
1.12
 22
-1.73
 32
-1.27
 13
1.12
 23
-1.73
 33
-1.27
  0
3DFACE
  8
0----
 10
-0.17
 20
-1.73
 30
-0.51
 11
-0.12
 21
-1.50
 31
-0.42
 12
0.28
 22
-1.44
 32
-0.42
 13
0.28
 23
-1.44
 33
-0.42
  0
3DFACE
  8
0----
 10
0.28
 20
-1.44
 30
-0.42
 11
0.32
 21
-1.71
 31
-0.57
 12
-0.17
 22
-1.73
 32
-0.51
 13
-0.17
 23
-1.73
 33
-0.51
  0
3DFACE
  8
0----
 10
0.28
 20
-1.44
 30
-0.42
 11
0.77
 21
-1.16
 31
-0.41
 12
0.91
 22
-1.37
 32
-0.62
 13
0.91
 23
-1.37
 33
-0.62
  0
3DFACE
  8
0----
 10
0.91
 20
-1.37
 30
-0.62
 11
0.32
 21
-1.71
 31
-0.57
 12
0.28
 22
-1.44
 32
-0.42
 13
0.28
 23
-1.44
 33
-0.42
  0
3DFACE
  8
0----
 10
0.80
 20
-1.85
 30
-1.00
 11
1.01
 21
-1.56
 31
-0.85
 12
1.12
 22
-1.73
 32
-1.27
 13
1.12
 23
-1.73
 33
-1.27
  0
3DFACE
  8
0----
 10
1.01
 20
-1.56
 30
-0.85
 11
0.80
 21
-1.85
 31
-1.00
 12
0.33
 22
-2.00
 32
-0.77
 13
0.33
 23
-2.00
 33
-0.77
  0
3DFACE
  8
0----
 10
0.33
 20
-2.00
 30
-0.77
 11
0.91
 21
-1.37
 31
-0.62
 12
1.01
 22
-1.56
 32
-0.85
 13
1.01
 23
-1.56
 33
-0.85
  0
3DFACE
  8
0----
 10
0.91
 20
-1.37
 30
-0.62
 11
0.33
 21
-2.00
 31
-0.77
 12
0.32
 22
-1.71
 32
-0.57
 13
0.32
 23
-1.71
 33
-0.57
  0
3DFACE
  8
0----
 10
-0.17
 20
-1.73
 30
-0.51
 11
0.32
 21
-1.71
 31
-0.57
 12
0.33
 22
-2.00
 32
-0.77
 13
0.33
 23
-2.00
 33
-0.77
  0
3DFACE
  8
0----
 10
-0.08
 20
-0.96
 30
-0.23
 11
0.17
 21
-1.00
 31
-0.25
 12
0.28
 22
-1.44
 32
-0.42
 13
0.28
 23
-1.44
 33
-0.42
  0
3DFACE
  8
0----
 10
0.28
 20
-1.44
 30
-0.42
 11
-0.12
 21
-1.50
 31
-0.42
 12
-0.08
 22
-0.96
 32
-0.23
 13
-0.08
 23
-0.96
 33
-0.23
  0
3DFACE
  8
0----
 10
-0.08
 20
-0.96
 30
-0.23
 11
-0.04
 21
-0.70
 31
-0.15
 12
0.13
 22
-0.76
 32
-0.17
 13
0.13
 23
-0.76
 33
-0.17
  0
3DFACE
  8
0----
 10
0.13
 20
-0.76
 30
-0.17
 11
0.17
 21
-1.00
 31
-0.25
 12
-0.08
 22
-0.96
 32
-0.23
 13
-0.08
 23
-0.96
 33
-0.23
  0
3DFACE
  8
0----
 10
0.13
 20
-0.76
 30
-0.17
 11
-0.04
 21
-0.70
 31
-0.15
 12
0.10
 22
-0.55
 32
-0.12
 13
0.10
 23
-0.55
 33
-0.12
  0
3DFACE
  8
0----
 10
0.10
 20
-0.55
 30
-0.12
 11
-0.04
 21
-0.70
 31
-0.15
 12
-0.04
 22
-0.56
 32
-0.11
 13
-0.04
 23
-0.56
 33
-0.11
  0
3DFACE
  8
0----
 10
0.10
 20
-0.55
 30
-0.12
 11
0.26
 21
-0.43
 31
-0.10
 12
0.43
 22
-0.67
 32
-0.18
 13
0.43
 23
-0.67
 33
-0.18
  0
3DFACE
  8
0----
 10
0.43
 20
-0.67
 30
-0.18
 11
0.13
 21
-0.76
 31
-0.17
 12
0.10
 22
-0.55
 32
-0.12
 13
0.10
 23
-0.55
 33
-0.12
  0
3DFACE
  8
0----
 10
0.13
 20
-0.76
 30
-0.17
 11
0.43
 21
-0.67
 31
-0.18
 12
0.58
 22
-0.88
 32
-0.25
 13
0.58
 23
-0.88
 33
-0.25
  0
3DFACE
  8
0----
 10
0.58
 20
-0.88
 30
-0.25
 11
0.17
 21
-1.00
 31
-0.25
 12
0.13
 22
-0.76
 32
-0.17
 13
0.13
 23
-0.76
 33
-0.17
  0
3DFACE
  8
0----
 10
0.17
 20
-1.00
 30
-0.25
 11
0.58
 21
-0.88
 31
-0.25
 12
0.77
 22
-1.16
 32
-0.41
 13
0.77
 23
-1.16
 33
-0.41
  0
3DFACE
  8
0----
 10
0.77
 20
-1.16
 30
-0.41
 11
0.28
 21
-1.44
 31
-0.42
 12
0.17
 22
-1.00
 32
-0.25
 13
0.17
 23
-1.00
 33
-0.25
  0
3DFACE
  8
0----
 10
0.26
 20
-0.43
 30
-0.10
 11
0.33
 21
-0.34
 31
-0.08
 12
0.53
 22
-0.54
 32
-0.14
 13
0.53
 23
-0.54
 33
-0.14
  0
3DFACE
  8
0----
 10
0.53
 20
-0.54
 30
-0.14
 11
0.43
 21
-0.67
 31
-0.18
 12
0.26
 22
-0.43
 32
-0.10
 13
0.26
 23
-0.43
 33
-0.10
  0
3DFACE
  8
0----
 10
0.53
 20
-0.54
 30
-0.14
 11
0.78
 21
-0.74
 31
-0.25
 12
0.58
 22
-0.88
 32
-0.25
 13
0.58
 23
-0.88
 33
-0.25
  0
3DFACE
  8
0----
 10
0.58
 20
-0.88
 30
-0.25
 11
0.43
 21
-0.67
 31
-0.18
 12
0.53
 22
-0.54
 32
-0.14
 13
0.53
 23
-0.54
 33
-0.14
  0
3DFACE
  8
0----
 10
0.58
 20
-0.88
 30
-0.25
 11
0.78
 21
-0.74
 31
-0.25
 12
0.99
 22
-0.94
 32
-0.41
 13
0.99
 23
-0.94
 33
-0.41
  0
3DFACE
  8
0----
 10
0.99
 20
-0.94
 30
-0.41
 11
0.77
 21
-1.16
 31
-0.41
 12
0.58
 22
-0.88
 32
-0.25
 13
0.58
 23
-0.88
 33
-0.25
  0
3DFACE
  8
0----
 10
0.77
 20
-1.16
 30
-0.41
 11
0.99
 21
-0.94
 31
-0.41
 12
1.18
 22
-1.07
 32
-0.58
 13
1.18
 23
-1.07
 33
-0.58
  0
3DFACE
  8
0----
 10
1.18
 20
-1.07
 30
-0.58
 11
0.91
 21
-1.37
 31
-0.62
 12
0.77
 22
-1.16
 32
-0.41
 13
0.77
 23
-1.16
 33
-0.41
  0
3DFACE
  8
0----
 10
0.91
 20
-1.37
 30
-0.62
 11
1.18
 21
-1.07
 31
-0.58
 12
1.38
 22
-1.19
 32
-0.86
 13
1.38
 23
-1.19
 33
-0.86
  0
3DFACE
  8
0----
 10
1.38
 20
-1.19
 30
-0.86
 11
1.01
 21
-1.56
 31
-0.85
 12
0.91
 22
-1.37
 32
-0.62
 13
0.91
 23
-1.37
 33
-0.62
  0
3DFACE
  8
0----
 10
1.01
 20
-1.56
 30
-0.85
 11
1.38
 21
-1.19
 31
-0.86
 12
1.52
 22
-1.33
 32
-1.24
 13
1.52
 23
-1.33
 33
-1.24
  0
3DFACE
  8
0----
 10
1.52
 20
-1.33
 30
-1.24
 11
1.12
 21
-1.73
 31
-1.27
 12
1.01
 22
-1.56
 32
-0.85
 13
1.01
 23
-1.56
 33
-0.85
  0
3DFACE
  8
0----
 10
0.33
 20
-0.34
 30
-0.08
 11
0.37
 21
-0.24
 31
-0.06
 12
0.59
 22
-0.35
 32
-0.10
 13
0.59
 23
-0.35
 33
-0.10
  0
3DFACE
  8
0----
 10
0.67
 20
-0.16
 30
-0.06
 11
0.59
 21
-0.35
 31
-0.10
 12
0.37
 22
-0.24
 32
-0.06
 13
0.37
 23
-0.24
 33
-0.06
  0
3DFACE
  8
0----
 10
0.59
 20
-0.35
 30
-0.10
 11
0.53
 21
-0.54
 31
-0.14
 12
0.33
 22
-0.34
 32
-0.08
 13
0.33
 23
-0.34
 33
-0.08
  0
3DFACE
  8
0----
 10
0.41
 20
-0.11
 30
-0.04
 11
0.67
 21
-0.16
 31
-0.06
 12
0.37
 22
-0.24
 32
-0.06
 13
0.37
 23
-0.24
 33
-0.06
  0
3DFACE
  8
0----
 10
0.67
 20
-0.16
 30
-0.06
 11
0.41
 21
-0.11
 31
-0.04
 12
0.46
 22
0.01
 32
-0.01
 13
0.46
 23
0.01
 33
-0.01
  0
3DFACE
  8
0----
 10
0.46
 20
0.01
 30
-0.01
 11
0.70
 21
0.04
 31
-0.02
 12
0.67
 22
-0.16
 32
-0.06
 13
0.67
 23
-0.16
 33
-0.06
  0
3DFACE
  8
0----
 10
0.70
 20
0.04
 30
-0.02
 11
0.46
 21
0.01
 31
-0.01
 12
0.48
 22
0.13
 32
0.00
 13
0.48
 23
0.13
 33
0.00
  0
3DFACE
  8
0----
 10
0.48
 20
0.13
 30
0.00
 11
0.74
 21
0.18
 31
-0.01
 12
0.70
 22
0.04
 32
-0.02
 13
0.70
 23
0.04
 33
-0.02
  0
3DFACE
  8
0----
 10
0.53
 20
-0.54
 30
-0.14
 11
0.59
 21
-0.35
 31
-0.10
 12
1.00
 22
-0.54
 32
-0.24
 13
1.00
 23
-0.54
 33
-0.24
  0
3DFACE
  8
0----
 10
1.00
 20
-0.54
 30
-0.24
 11
0.78
 21
-0.74
 31
-0.25
 12
0.53
 22
-0.54
 32
-0.14
 13
0.53
 23
-0.54
 33
-0.14
  0
3DFACE
  8
0----
 10
0.78
 20
-0.74
 30
-0.25
 11
1.00
 21
-0.54
 31
-0.24
 12
1.22
 22
-0.64
 32
-0.39
 13
1.22
 23
-0.64
 33
-0.39
  0
3DFACE
  8
0----
 10
1.22
 20
-0.64
 30
-0.39
 11
0.99
 21
-0.94
 31
-0.41
 12
0.78
 22
-0.74
 32
-0.25
 13
0.78
 23
-0.74
 33
-0.25
  0
3DFACE
  8
0----
 10
1.72
 20
-1.52
 30
-2.08
 11
1.98
 21
-0.98
 31
-2.76
 12
1.71
 22
-1.64
 32
-2.67
 13
1.71
 23
-1.64
 33
-2.67
  0
3DFACE
  8
0----
 10
1.71
 20
-1.64
 30
-2.67
 11
1.98
 21
-0.98
 31
-2.76
 12
1.71
 22
-1.59
 32
-2.95
 13
1.71
 23
-1.59
 33
-2.95
  0
3DFACE
  8
0----
 10
1.71
 20
-1.59
 30
-2.95
 11
1.98
 21
-0.98
 31
-2.76
 12
1.83
 22
-1.56
 32
-3.06
 13
1.83
 23
-1.56
 33
-3.06
  0
3DFACE
  8
0----
 10
1.83
 20
-1.56
 30
-3.06
 11
1.61
 21
-1.80
 31
-3.08
 12
1.71
 22
-1.59
 32
-2.95
 13
1.71
 23
-1.59
 33
-2.95
  0
3DFACE
  8
0----
 10
1.61
 20
-1.80
 30
-3.08
 11
1.83
 21
-1.56
 31
-3.06
 12
1.64
 22
-1.81
 32
-3.25
 13
1.64
 23
-1.81
 33
-3.25
  0
3DFACE
  8
0----
 10
1.64
 20
-1.81
 30
-3.25
 11
1.60
 21
-1.92
 31
-3.31
 12
1.61
 22
-1.80
 32
-3.08
 13
1.61
 23
-1.80
 33
-3.08
  0
3DFACE
  8
0----
 10
1.60
 20
-1.92
 30
-3.31
 11
1.64
 21
-1.81
 31
-3.25
 12
1.64
 22
-1.71
 32
-3.44
 13
1.64
 23
-1.71
 33
-3.44
  0
3DFACE
  8
0----
 10
1.64
 20
-1.71
 30
-3.44
 11
1.41
 21
-1.95
 31
-3.62
 12
1.60
 22
-1.92
 32
-3.31
 13
1.60
 23
-1.92
 33
-3.31
  0
3DFACE
  8
0----
 10
1.83
 20
-1.56
 30
-3.06
 11
1.98
 21
-0.98
 31
-2.76
 12
1.97
 22
-1.19
 32
-3.14
 13
1.97
 23
-1.19
 33
-3.14
  0
3DFACE
  8
0----
 10
1.98
 20
-0.98
 30
-2.76
 11
1.93
 21
-0.92
 31
-3.15
 12
1.97
 22
-1.19
 32
-3.14
 13
1.97
 23
-1.19
 33
-3.14
  0
3DFACE
  8
0----
 10
1.97
 20
-1.19
 30
-3.14
 11
1.89
 21
-1.15
 31
-3.26
 12
1.92
 22
-1.30
 32
-3.32
 13
1.92
 23
-1.30
 33
-3.32
  0
3DFACE
  8
0----
 10
1.92
 20
-1.30
 30
-3.32
 11
1.86
 21
-1.37
 31
-3.39
 12
1.83
 22
-1.56
 32
-3.06
 13
1.83
 23
-1.56
 33
-3.06
  0
3DFACE
  8
0----
 10
1.86
 20
-1.37
 30
-3.39
 11
1.64
 21
-1.71
 31
-3.44
 12
1.83
 22
-1.56
 32
-3.06
 13
1.83
 23
-1.56
 33
-3.06
  0
3DFACE
  8
0----
 10
1.83
 20
-1.56
 30
-3.06
 11
1.64
 21
-1.71
 31
-3.44
 12
1.64
 22
-1.81
 32
-3.25
 13
1.64
 23
-1.81
 33
-3.25
  0
3DFACE
  8
0----
 10
1.83
 20
-1.56
 30
-3.06
 11
1.97
 21
-1.19
 31
-3.14
 12
1.92
 22
-1.30
 32
-3.32
 13
1.92
 23
-1.30
 33
-3.32
  0
3DFACE
  8
0----
 10
1.98
 20
-0.98
 30
-2.76
 11
1.72
 21
-1.52
 31
-2.08
 12
2.01
 22
-1.05
 32
-2.32
 13
2.01
 23
-1.05
 33
-2.32
  0
3DFACE
  8
0----
 10
2.01
 20
-1.05
 30
-2.32
 11
1.72
 21
-1.52
 31
-2.08
 12
1.92
 22
-1.05
 32
-1.64
 13
1.92
 23
-1.05
 33
-1.64
  0
3DFACE
  8
0----
 10
1.92
 20
-1.05
 30
-1.64
 11
1.72
 21
-1.52
 31
-2.08
 12
1.52
 22
-1.33
 32
-1.24
 13
1.52
 23
-1.33
 33
-1.24
  0
3DFACE
  8
0----
 10
1.52
 20
-1.33
 30
-1.24
 11
1.76
 21
-0.97
 31
-1.24
 12
1.92
 22
-1.05
 32
-1.64
 13
1.92
 23
-1.05
 33
-1.64
  0
3DFACE
  8
0----
 10
1.76
 20
-0.97
 30
-1.24
 11
1.52
 21
-1.33
 31
-1.24
 12
1.59
 22
-0.89
 32
-0.84
 13
1.59
 23
-0.89
 33
-0.84
  0
3DFACE
  8
0----
 10
1.59
 20
-0.89
 30
-0.84
 11
1.52
 21
-1.33
 31
-1.24
 12
1.38
 22
-1.19
 32
-0.86
 13
1.38
 23
-1.19
 33
-0.86
  0
3DFACE
  8
0----
 10
1.39
 20
-0.76
 30
-0.52
 11
1.59
 21
-0.89
 31
-0.84
 12
1.18
 22
-1.07
 32
-0.58
 13
1.18
 23
-1.07
 33
-0.58
  0
3DFACE
  8
0----
 10
1.18
 20
-1.07
 30
-0.58
 11
1.59
 21
-0.89
 31
-0.84
 12
1.38
 22
-1.19
 32
-0.86
 13
1.38
 23
-1.19
 33
-0.86
  0
3DFACE
  8
0----
 10
0.99
 20
-0.94
 30
-0.41
 11
1.22
 21
-0.64
 31
-0.39
 12
1.39
 22
-0.76
 32
-0.52
 13
1.39
 23
-0.76
 33
-0.52
  0
3DFACE
  8
0----
 10
1.39
 20
-0.76
 30
-0.52
 11
1.18
 21
-1.07
 31
-0.58
 12
0.99
 22
-0.94
 32
-0.41
 13
0.99
 23
-0.94
 33
-0.41
  0
3DFACE
  8
0----
 10
1.97
 20
-1.19
 30
-3.14
 11
1.93
 21
-0.92
 31
-3.15
 12
1.89
 22
-1.15
 32
-3.26
 13
1.89
 23
-1.15
 33
-3.26
  0
3DFACE
  8
0----
 10
2.01
 20
-0.61
 30
-3.21
 11
1.93
 21
-0.92
 31
-3.15
 12
1.98
 22
-0.98
 32
-2.76
 13
1.98
 23
-0.98
 33
-2.76
  0
3DFACE
  8
0----
 10
1.98
 20
-0.98
 30
-2.76
 11
2.16
 21
-0.20
 31
-3.28
 12
2.01
 22
-0.61
 32
-3.21
 13
2.01
 23
-0.61
 33
-3.21
  0
3DFACE
  8
0----
 10
2.16
 20
-0.20
 30
-3.28
 11
1.98
 21
-0.98
 31
-2.76
 12
2.35
 22
-0.05
 32
-2.68
 13
2.35
 23
-0.05
 33
-2.68
  0
3DFACE
  8
0----
 10
2.35
 20
-0.05
 30
-2.68
 11
2.19
 21
0.17
 31
-3.33
 12
2.16
 22
-0.20
 32
-3.28
 13
2.16
 23
-0.20
 33
-3.28
  0
3DFACE
  8
0----
 10
2.16
 20
-0.20
 30
-3.28
 11
1.95
 21
-0.45
 31
-3.87
 12
2.01
 22
-0.61
 32
-3.21
 13
2.01
 23
-0.61
 33
-3.21
  0
3DFACE
  8
0----
 10
1.77
 20
-0.63
 30
-3.65
 11
2.01
 21
-0.61
 31
-3.21
 12
1.95
 22
-0.45
 32
-3.87
 13
1.95
 23
-0.45
 33
-3.87
  0
3DFACE
  8
0----
 10
1.77
 20
-0.63
 30
-3.65
 11
1.95
 21
-0.45
 31
-3.87
 12
1.80
 22
-0.56
 32
-3.98
 13
1.80
 23
-0.56
 33
-3.98
  0
3DFACE
  8
0----
 10
1.77
 20
-0.63
 30
-3.65
 11
1.80
 21
-0.56
 31
-3.98
 12
1.65
 22
-0.68
 32
-3.82
 13
1.65
 23
-0.68
 33
-3.82
  0
3DFACE
  8
0----
 10
1.77
 20
-0.63
 30
-3.65
 11
1.65
 21
-0.68
 31
-3.82
 12
1.39
 22
-0.81
 32
-3.60
 13
1.39
 23
-0.81
 33
-3.60
  0
3DFACE
  8
0----
 10
1.77
 20
-0.63
 30
-3.65
 11
1.39
 21
-0.81
 31
-3.60
 12
1.46
 22
-0.71
 32
-3.31
 13
1.46
 23
-0.71
 33
-3.31
  0
3DFACE
  8
0----
 10
1.77
 20
-0.63
 30
-3.65
 11
1.46
 21
-0.71
 31
-3.31
 12
1.74
 22
-0.66
 32
-3.28
 13
1.74
 23
-0.66
 33
-3.28
  0
3DFACE
  8
0----
 10
1.77
 20
-0.63
 30
-3.65
 11
1.74
 21
-0.66
 31
-3.28
 12
2.01
 22
-0.61
 32
-3.21
 13
2.01
 23
-0.61
 33
-3.21
  0
3DFACE
  8
0----
 10
1.46
 20
-0.71
 30
-3.31
 11
1.89
 21
-1.15
 31
-3.26
 12
1.93
 22
-0.92
 32
-3.15
 13
1.93
 23
-0.92
 33
-3.15
  0
3DFACE
  8
0----
 10
1.74
 20
-0.66
 30
-3.28
 11
1.46
 21
-0.71
 31
-3.31
 12
1.93
 22
-0.92
 32
-3.15
 13
1.93
 23
-0.92
 33
-3.15
  0
3DFACE
  8
0----
 10
1.93
 20
-0.92
 30
-3.15
 11
2.01
 21
-0.61
 31
-3.21
 12
1.74
 22
-0.66
 32
-3.28
 13
1.74
 23
-0.66
 33
-3.28
  0
3DFACE
  8
0----
 10
1.98
 20
-0.98
 30
-2.76
 11
2.01
 21
-1.05
 31
-2.32
 12
2.40
 22
-0.13
 32
-2.27
 13
2.40
 23
-0.13
 33
-2.27
  0
3DFACE
  8
0----
 10
2.40
 20
-0.13
 30
-2.27
 11
2.35
 21
-0.05
 31
-2.68
 12
1.98
 22
-0.98
 32
-2.76
 13
1.98
 23
-0.98
 33
-2.76
  0
3DFACE
  8
0----
 10
2.40
 20
-0.13
 30
-2.27
 11
2.01
 21
-1.05
 31
-2.32
 12
1.92
 22
-1.05
 32
-1.64
 13
1.92
 23
-1.05
 33
-1.64
  0
3DFACE
  8
0----
 10
1.92
 20
-1.05
 30
-1.64
 11
2.35
 21
-0.21
 31
-1.87
 12
2.40
 22
-0.13
 32
-2.27
 13
2.40
 23
-0.13
 33
-2.27
  0
3DFACE
  8
0----
 10
2.35
 20
-0.21
 30
-1.87
 11
1.92
 21
-1.05
 31
-1.64
 12
2.25
 22
-0.27
 32
-1.53
 13
2.25
 23
-0.27
 33
-1.53
  0
3DFACE
  8
0----
 10
2.25
 20
-0.27
 30
-1.53
 11
1.92
 21
-1.05
 31
-1.64
 12
1.76
 22
-0.97
 32
-1.24
 13
1.76
 23
-0.97
 33
-1.24
  0
3DFACE
  8
0----
 10
1.76
 20
-0.97
 30
-1.24
 11
2.07
 21
-0.32
 31
-1.13
 12
2.25
 22
-0.27
 32
-1.53
 13
2.25
 23
-0.27
 33
-1.53
  0
3DFACE
  8
0----
 10
2.07
 20
-0.32
 30
-1.13
 11
1.76
 21
-0.97
 31
-1.24
 12
1.59
 22
-0.89
 32
-0.84
 13
1.59
 23
-0.89
 33
-0.84
  0
3DFACE
  8
0----
 10
1.59
 20
-0.89
 30
-0.84
 11
1.84
 21
-0.32
 31
-0.75
 12
2.07
 22
-0.32
 32
-1.13
 13
2.07
 23
-0.32
 33
-1.13
  0
3DFACE
  8
0----
 10
1.84
 20
-0.32
 30
-0.75
 11
1.59
 21
-0.89
 31
-0.84
 12
1.39
 22
-0.76
 32
-0.52
 13
1.39
 23
-0.76
 33
-0.52
  0
3DFACE
  8
0----
 10
1.39
 20
-0.76
 30
-0.52
 11
1.57
 21
-0.29
 31
-0.45
 12
1.84
 22
-0.32
 32
-0.75
 13
1.84
 23
-0.32
 33
-0.75
  0
3DFACE
  8
0----
 10
1.35
 20
-0.26
 30
-0.31
 11
1.57
 21
-0.29
 31
-0.45
 12
1.39
 22
-0.76
 32
-0.52
 13
1.39
 23
-0.76
 33
-0.52
  0
3DFACE
  8
0----
 10
1.39
 20
-0.76
 30
-0.52
 11
1.22
 21
-0.64
 31
-0.39
 12
1.35
 22
-0.26
 32
-0.31
 13
1.35
 23
-0.26
 33
-0.31
  0
3DFACE
  8
0----
 10
0.59
 20
-0.35
 30
-0.10
 11
0.67
 21
-0.16
 31
-0.06
 12
1.14
 22
-0.22
 32
-0.19
 13
1.14
 23
-0.22
 33
-0.19
  0
3DFACE
  8
0----
 10
0.59
 20
-0.35
 30
-0.10
 11
1.14
 21
-0.22
 31
-0.19
 12
1.00
 22
-0.54
 32
-0.24
 13
1.00
 23
-0.54
 33
-0.24
  0
3DFACE
  8
0----
 10
1.00
 20
-0.54
 30
-0.24
 11
1.14
 21
-0.22
 31
-0.19
 12
1.35
 22
-0.26
 32
-0.31
 13
1.35
 23
-0.26
 33
-0.31
  0
3DFACE
  8
0----
 10
1.35
 20
-0.26
 30
-0.31
 11
1.22
 21
-0.64
 31
-0.39
 12
1.00
 22
-0.54
 32
-0.24
 13
1.00
 23
-0.54
 33
-0.24
  0
3DFACE
  8
0----
 10
0.67
 20
-0.16
 30
-0.06
 11
0.70
 21
0.04
 31
-0.02
 12
1.22
 22
0.11
 32
-0.14
 13
1.22
 23
0.11
 33
-0.14
  0
3DFACE
  8
0----
 10
1.22
 20
0.11
 30
-0.14
 11
1.14
 21
-0.22
 31
-0.19
 12
0.67
 22
-0.16
 32
-0.06
 13
0.67
 23
-0.16
 33
-0.06
  0
3DFACE
  8
0----
 10
0.70
 20
0.04
 30
-0.02
 11
0.74
 21
0.18
 31
-0.01
 12
1.20
 22
0.34
 32
-0.10
 13
1.20
 23
0.34
 33
-0.10
  0
3DFACE
  8
0----
 10
1.20
 20
0.34
 30
-0.10
 11
1.22
 21
0.11
 31
-0.14
 12
0.70
 22
0.04
 32
-0.02
 13
0.70
 23
0.04
 33
-0.02
  0
3DFACE
  8
0----
 10
0.74
 20
0.18
 30
-0.01
 11
0.48
 21
0.13
 31
0.00
 12
0.52
 22
0.27
 32
0.01
 13
0.52
 23
0.27
 33
0.01
  0
3DFACE
  8
0----
 10
0.52
 20
0.27
 30
0.01
 11
0.76
 21
0.39
 31
0.02
 12
0.74
 22
0.18
 32
-0.01
 13
0.74
 23
0.18
 33
-0.01
  0
3DFACE
  8
0----
 10
0.76
 20
0.39
 30
0.02
 11
1.13
 21
0.62
 31
-0.06
 12
1.20
 22
0.34
 32
-0.10
 13
1.20
 23
0.34
 33
-0.10
  0
3DFACE
  8
0----
 10
1.20
 20
0.34
 30
-0.10
 11
0.74
 21
0.18
 31
-0.01
 12
0.76
 22
0.39
 32
0.02
 13
0.76
 23
0.39
 33
0.02
  0
3DFACE
  8
0----
 10
1.14
 20
-0.22
 30
-0.19
 11
1.22
 21
0.11
 31
-0.14
 12
1.40
 22
0.11
 32
-0.24
 13
1.40
 23
0.11
 33
-0.24
  0
3DFACE
  8
0----
 10
1.40
 20
0.11
 30
-0.24
 11
1.35
 21
-0.26
 31
-0.31
 12
1.14
 22
-0.22
 32
-0.19
 13
1.14
 23
-0.22
 33
-0.19
  0
3DFACE
  8
0----
 10
1.40
 20
0.11
 30
-0.24
 11
1.69
 21
0.13
 31
-0.44
 12
1.57
 22
-0.29
 32
-0.45
 13
1.57
 23
-0.29
 33
-0.45
  0
3DFACE
  8
0----
 10
1.57
 20
-0.29
 30
-0.45
 11
1.35
 21
-0.26
 31
-0.31
 12
1.40
 22
0.11
 32
-0.24
 13
1.40
 23
0.11
 33
-0.24
  0
3DFACE
  8
0----
 10
1.57
 20
-0.29
 30
-0.45
 11
1.69
 21
0.13
 31
-0.44
 12
1.89
 22
0.15
 32
-0.64
 13
1.89
 23
0.15
 33
-0.64
  0
3DFACE
  8
0----
 10
1.89
 20
0.15
 30
-0.64
 11
1.84
 21
-0.32
 31
-0.75
 12
1.57
 22
-0.29
 32
-0.45
 13
1.57
 23
-0.29
 33
-0.45
  0
3DFACE
  8
0----
 10
1.84
 20
-0.32
 30
-0.75
 11
1.89
 21
0.15
 31
-0.64
 12
2.15
 22
0.23
 32
-1.04
 13
2.15
 23
0.23
 33
-1.04
  0
3DFACE
  8
0----
 10
2.15
 20
0.23
 30
-1.04
 11
2.07
 21
-0.32
 31
-1.13
 12
1.84
 22
-0.32
 32
-0.75
 13
1.84
 23
-0.32
 33
-0.75
  0
3DFACE
  8
0----
 10
2.15
 20
0.23
 30
-1.04
 11
2.35
 21
0.34
 31
-1.47
 12
2.25
 22
-0.27
 32
-1.53
 13
2.25
 23
-0.27
 33
-1.53
  0
3DFACE
  8
0----
 10
2.25
 20
-0.27
 30
-1.53
 11
2.07
 21
-0.32
 31
-1.13
 12
2.15
 22
0.23
 32
-1.04
 13
2.15
 23
0.23
 33
-1.04
  0
3DFACE
  8
0----
 10
2.35
 20
0.34
 30
-1.47
 11
2.45
 21
0.41
 31
-2.23
 12
2.40
 22
-0.13
 32
-2.27
 13
2.40
 23
-0.13
 33
-2.27
  0
3DFACE
  8
0----
 10
2.40
 20
-0.13
 30
-2.27
 11
2.35
 21
-0.21
 31
-1.87
 12
2.35
 22
0.34
 32
-1.47
 13
2.35
 23
0.34
 33
-1.47
  0
3DFACE
  8
0----
 10
2.35
 20
0.34
 30
-1.47
 11
2.35
 21
-0.21
 31
-1.87
 12
2.25
 22
-0.27
 32
-1.53
 13
2.25
 23
-0.27
 33
-1.53
  0
3DFACE
  8
0----
 10
2.40
 20
-0.13
 30
-2.27
 11
2.45
 21
0.41
 31
-2.23
 12
2.35
 22
-0.05
 32
-2.68
 13
2.35
 23
-0.05
 33
-2.68
  0
3DFACE
  8
0----
 10
2.35
 20
-0.05
 30
-2.68
 11
2.45
 21
0.41
 31
-2.23
 12
2.41
 22
0.45
 32
-2.66
 13
2.41
 23
0.45
 33
-2.66
  0
3DFACE
  8
0----
 10
2.41
 20
0.45
 30
-2.66
 11
2.22
 21
0.51
 31
-3.36
 12
2.19
 22
0.17
 32
-3.33
 13
2.19
 23
0.17
 33
-3.33
  0
3DFACE
  8
0----
 10
2.19
 20
0.17
 30
-3.33
 11
2.35
 21
-0.05
 31
-2.68
 12
2.41
 22
0.45
 32
-2.66
 13
2.41
 23
0.45
 33
-2.66
  0
3DFACE
  8
0----
 10
2.16
 20
-0.20
 30
-3.28
 11
2.08
 21
0.22
 31
-3.56
 12
1.95
 22
-0.45
 32
-3.87
 13
1.95
 23
-0.45
 33
-3.87
  0
3DFACE
  8
0----
 10
1.95
 20
-0.45
 30
-3.87
 11
2.08
 21
0.22
 31
-3.56
 12
1.90
 22
0.20
 32
-3.81
 13
1.90
 23
0.20
 33
-3.81
  0
3DFACE
  8
0----
 10
1.90
 20
0.20
 30
-3.81
 11
2.08
 21
0.22
 31
-3.56
 12
1.97
 22
0.47
 32
-3.71
 13
1.97
 23
0.47
 33
-3.71
  0
3DFACE
  8
0----
 10
1.97
 20
0.47
 30
-3.71
 11
2.08
 21
0.22
 31
-3.56
 12
2.22
 22
0.51
 32
-3.36
 13
2.22
 23
0.51
 33
-3.36
  0
3DFACE
  8
0----
 10
2.22
 20
0.51
 30
-3.36
 11
2.08
 21
0.22
 31
-3.56
 12
2.19
 22
0.17
 32
-3.33
 13
2.19
 23
0.17
 33
-3.33
  0
3DFACE
  8
0----
 10
2.19
 20
0.17
 30
-3.33
 11
2.08
 21
0.22
 31
-3.56
 12
2.16
 22
-0.20
 32
-3.28
 13
2.16
 23
-0.20
 33
-3.28
  0
3DFACE
  8
0----
 10
1.95
 20
-0.45
 30
-3.87
 11
1.90
 21
0.20
 31
-3.81
 12
1.81
 22
-0.17
 32
-4.08
 13
1.81
 23
-0.17
 33
-4.08
  0
3DFACE
  8
0----
 10
1.81
 20
-0.17
 30
-4.08
 11
1.80
 21
-0.56
 31
-3.98
 12
1.95
 22
-0.45
 32
-3.87
 13
1.95
 23
-0.45
 33
-3.87
  0
3DFACE
  8
0----
 10
1.80
 20
-0.56
 30
-3.98
 11
1.81
 21
-0.17
 31
-4.08
 12
1.61
 22
-0.33
 32
-4.17
 13
1.61
 23
-0.33
 33
-4.17
  0
3DFACE
  8
0----
 10
1.61
 20
-0.33
 30
-4.17
 11
1.45
 21
-0.50
 31
-4.17
 12
1.80
 22
-0.56
 32
-3.98
 13
1.80
 23
-0.56
 33
-3.98
  0
3DFACE
  8
0----
 10
1.80
 20
-0.56
 30
-3.98
 11
1.45
 21
-0.50
 31
-4.17
 12
1.61
 22
-0.60
 32
-4.01
 13
1.61
 23
-0.60
 33
-4.01
  0
3DFACE
  8
0----
 10
1.61
 20
-0.60
 30
-4.01
 11
1.29
 21
-0.60
 31
-4.08
 12
1.28
 22
-0.83
 32
-3.72
 13
1.28
 23
-0.83
 33
-3.72
  0
3DFACE
  8
0----
 10
1.28
 20
-0.83
 30
-3.72
 11
1.39
 21
-0.81
 31
-3.60
 12
1.61
 22
-0.60
 32
-4.01
 13
1.61
 23
-0.60
 33
-4.01
  0
3DFACE
  8
0----
 10
1.65
 20
-0.68
 30
-3.82
 11
1.80
 21
-0.56
 31
-3.98
 12
1.61
 22
-0.60
 32
-4.01
 13
1.61
 23
-0.60
 33
-4.01
  0
3DFACE
  8
0----
 10
1.39
 20
-0.81
 30
-3.60
 11
1.65
 21
-0.68
 31
-3.82
 12
1.61
 22
-0.60
 32
-4.01
 13
1.61
 23
-0.60
 33
-4.01
  0
3DFACE
  8
0----
 10
1.61
 20
-0.60
 30
-4.01
 11
1.45
 21
-0.50
 31
-4.17
 12
1.29
 22
-0.60
 32
-4.08
 13
1.29
 23
-0.60
 33
-4.08
  0
3DFACE
  8
0----
 10
1.90
 20
0.20
 30
-3.81
 11
1.61
 21
0.18
 31
-4.06
 12
1.81
 22
-0.17
 32
-4.08
 13
1.81
 23
-0.17
 33
-4.08
  0
3DFACE
  8
0----
 10
1.81
 20
-0.17
 30
-4.08
 11
1.61
 21
0.18
 31
-4.06
 12
1.39
 22
0.00
 32
-4.17
 13
1.39
 23
0.00
 33
-4.17
  0
3DFACE
  8
0----
 10
1.23
 20
-0.16
 30
-4.25
 11
1.61
 21
-0.33
 31
-4.17
 12
1.81
 22
-0.17
 32
-4.08
 13
1.81
 23
-0.17
 33
-4.08
  0
3DFACE
  8
0----
 10
1.61
 20
-0.33
 30
-4.17
 11
1.23
 21
-0.16
 31
-4.25
 12
1.45
 22
-0.50
 32
-4.17
 13
1.45
 23
-0.50
 33
-4.17
  0
3DFACE
  8
0----
 10
1.45
 20
-0.50
 30
-4.17
 11
1.12
 21
-0.44
 31
-4.21
 12
1.29
 22
-0.60
 32
-4.08
 13
1.29
 23
-0.60
 33
-4.08
  0
3DFACE
  8
0----
 10
1.81
 20
-0.17
 30
-4.08
 11
1.39
 21
0.00
 31
-4.17
 12
1.23
 22
-0.16
 32
-4.25
 13
1.23
 23
-0.16
 33
-4.25
  0
3DFACE
  8
0----
 10
1.45
 20
-0.50
 30
-4.17
 11
1.23
 21
-0.16
 31
-4.25
 12
1.12
 22
-0.44
 32
-4.21
 13
1.12
 23
-0.44
 33
-4.21
  0
3DFACE
  8
0----
 10
1.90
 20
0.20
 30
-3.81
 11
1.97
 21
0.47
 31
-3.71
 12
1.50
 22
0.44
 32
-4.07
 13
1.50
 23
0.44
 33
-4.07
  0
3DFACE
  8
0----
 10
1.50
 20
0.44
 30
-4.07
 11
1.61
 21
0.18
 31
-4.06
 12
1.90
 22
0.20
 32
-3.81
 13
1.90
 23
0.20
 33
-3.81
  0
3DFACE
  8
0----
 10
1.61
 20
0.18
 30
-4.06
 11
1.50
 21
0.44
 31
-4.06
 12
1.25
 22
0.27
 32
-4.27
 13
1.25
 23
0.27
 33
-4.27
  0
3DFACE
  8
0----
 10
1.25
 20
0.27
 30
-4.27
 11
1.39
 21
0.00
 31
-4.17
 12
1.61
 22
0.18
 32
-4.06
 13
1.61
 23
0.18
 33
-4.06
  0
3DFACE
  8
0----
 10
1.39
 20
0.00
 30
-4.17
 11
1.25
 21
0.27
 31
-4.27
 12
1.05
 22
-0.05
 32
-4.36
 13
1.05
 23
-0.05
 33
-4.36
  0
3DFACE
  8
0----
 10
1.05
 20
-0.05
 30
-4.36
 11
1.23
 21
-0.16
 31
-4.25
 12
1.39
 22
0.00
 32
-4.17
 13
1.39
 23
0.00
 33
-4.17
  0
3DFACE
  8
0----
 10
1.23
 20
-0.16
 30
-4.25
 11
1.05
 21
-0.05
 31
-4.36
 12
0.93
 22
-0.25
 32
-4.38
 13
0.93
 23
-0.25
 33
-4.38
  0
3DFACE
  8
0----
 10
0.93
 20
-0.25
 30
-4.38
 11
1.12
 21
-0.44
 31
-4.21
 12
1.23
 22
-0.16
 32
-4.25
 13
1.23
 23
-0.16
 33
-4.25
  0
3DFACE
  8
0----
 10
-0.98
 20
0.83
 30
-4.24
 11
-1.11
 21
0.56
 31
-4.20
 12
-0.84
 22
0.54
 32
-4.37
 13
-0.84
 23
0.54
 33
-4.37
  0
3DFACE
  8
0----
 10
-0.84
 20
0.54
 30
-4.37
 11
-0.77
 21
0.77
 31
-4.35
 12
-0.98
 22
0.83
 32
-4.24
 13
-0.98
 23
0.83
 33
-4.24
  0
3DFACE
  8
0----
 10
-0.96
 20
1.05
 30
-4.16
 11
-0.98
 21
0.83
 31
-4.24
 12
-0.77
 22
0.77
 32
-4.35
 13
-0.77
 23
0.77
 33
-4.35
  0
3DFACE
  8
0----
 10
-0.77
 20
0.77
 30
-4.35
 11
-0.67
 21
1.13
 31
-4.26
 12
-0.96
 22
1.05
 32
-4.16
 13
-0.96
 23
1.05
 33
-4.16
  0
3DFACE
  8
0----
 10
-0.97
 20
1.33
 30
-4.04
 11
-0.96
 21
1.05
 31
-4.16
 12
-0.67
 22
1.13
 32
-4.26
 13
-0.67
 23
1.13
 33
-4.26
  0
3DFACE
  8
0----
 10
-0.67
 20
1.13
 30
-4.26
 11
-0.71
 21
1.43
 31
-4.05
 12
-0.97
 22
1.33
 32
-4.04
 13
-0.97
 23
1.33
 33
-4.04
  0
3DFACE
  8
0----
 10
-1.15
 20
1.56
 30
-3.79
 11
-0.97
 21
1.33
 31
-4.04
 12
-0.71
 22
1.43
 32
-4.06
 13
-0.71
 23
1.43
 33
-4.06
  0
3DFACE
  8
0----
 10
-0.71
 20
1.43
 30
-4.06
 11
-0.99
 21
1.79
 31
-3.69
 12
-1.15
 22
1.56
 32
-3.79
 13
-1.15
 23
1.56
 33
-3.79
  0
3DFACE
  8
0----
 10
-1.11
 20
0.56
 30
-4.20
 11
-0.98
 21
0.83
 31
-4.24
 12
-1.37
 22
0.76
 32
-4.15
 13
-1.37
 23
0.76
 33
-4.15
  0
3DFACE
  8
0----
 10
-0.98
 20
0.83
 30
-4.24
 11
-0.96
 21
1.05
 31
-4.16
 12
-1.37
 22
1.25
 32
-4.06
 13
-1.37
 23
1.25
 33
-4.06
  0
3DFACE
  8
0----
 10
-1.34
 20
0.58
 30
-4.06
 11
-1.11
 21
0.56
 31
-4.20
 12
-1.37
 22
0.76
 32
-4.15
 13
-1.37
 23
0.76
 33
-4.15
  0
3DFACE
  8
0----
 10
-1.37
 20
0.76
 30
-4.15
 11
-0.98
 21
0.83
 31
-4.24
 12
-1.35
 22
1.00
 32
-4.15
 13
-1.35
 23
1.00
 33
-4.15
  0
3DFACE
  8
0----
 10
-1.37
 20
1.25
 30
-4.06
 11
-1.35
 21
1.00
 31
-4.15
 12
-0.98
 22
0.83
 32
-4.24
 13
-0.98
 23
0.83
 33
-4.24
  0
3DFACE
  8
0----
 10
-0.96
 20
1.05
 30
-4.16
 11
-0.97
 21
1.33
 31
-4.04
 12
-1.37
 22
1.25
 32
-4.06
 13
-1.37
 23
1.25
 33
-4.06
  0
3DFACE
  8
0----
 10
-1.37
 20
1.25
 30
-4.06
 11
-0.97
 21
1.33
 31
-4.04
 12
-1.15
 22
1.56
 32
-3.79
 13
-1.15
 23
1.56
 33
-3.79
  0
3DFACE
  8
0----
 10
-1.34
 20
0.58
 30
-4.06
 11
-1.37
 21
0.76
 31
-4.15
 12
-1.55
 22
0.81
 32
-3.99
 13
-1.55
 23
0.81
 33
-3.99
  0
3DFACE
  8
0----
 10
-1.55
 20
0.81
 30
-3.99
 11
-1.64
 21
0.79
 31
-3.80
 12
-1.56
 22
0.51
 32
-3.58
 13
-1.56
 23
0.51
 33
-3.58
  0
3DFACE
  8
0----
 10
-1.55
 20
0.81
 30
-3.99
 11
-1.65
 21
0.98
 31
-3.96
 12
-1.64
 22
0.79
 32
-3.80
 13
-1.64
 23
0.79
 33
-3.80
  0
3DFACE
  8
0----
 10
-1.55
 20
0.81
 30
-3.99
 11
-1.56
 21
0.51
 31
-3.58
 12
-1.50
 22
0.41
 32
-3.70
 13
-1.50
 23
0.41
 33
-3.70
  0
3DFACE
  8
0----
 10
-1.50
 20
0.41
 30
-3.70
 11
-1.34
 21
0.58
 31
-4.06
 12
-1.55
 22
0.81
 32
-3.99
 13
-1.55
 23
0.81
 33
-3.99
  0
3DFACE
  8
0----
 10
-1.55
 20
0.81
 30
-3.99
 11
-1.37
 21
0.76
 31
-4.15
 12
-1.65
 22
0.98
 32
-3.96
 13
-1.65
 23
0.98
 33
-3.96
  0
3DFACE
  8
0----
 10
-1.65
 20
0.98
 30
-3.96
 11
-1.37
 21
0.76
 31
-4.15
 12
-1.35
 22
1.00
 32
-4.15
 13
-1.35
 23
1.00
 33
-4.15
  0
3DFACE
  8
0----
 10
-1.35
 20
1.00
 30
-4.15
 11
-1.37
 21
1.25
 31
-4.06
 12
-1.65
 22
0.98
 32
-3.96
 13
-1.65
 23
0.98
 33
-3.96
  0
3DFACE
  8
0----
 10
-1.67
 20
1.17
 30
-3.85
 11
-1.65
 21
0.98
 31
-3.96
 12
-1.37
 22
1.25
 32
-4.06
 13
-1.37
 23
1.25
 33
-4.06
  0
3DFACE
  8
0----
 10
-1.37
 20
1.25
 30
-4.06
 11
-1.15
 21
1.56
 31
-3.79
 12
-1.67
 22
1.17
 32
-3.85
 13
-1.67
 23
1.17
 33
-3.85
  0
3DFACE
  8
0----
 10
-1.62
 20
1.49
 30
-3.26
 11
-1.25
 21
1.71
 31
-3.54
 12
-1.36
 22
1.76
 32
-3.31
 13
-1.36
 23
1.76
 33
-3.31
  0
3DFACE
  8
0----
 10
-1.36
 20
1.76
 30
-3.31
 11
-1.25
 21
1.71
 31
-3.54
 12
-1.13
 22
2.01
 32
-3.34
 13
-1.13
 23
2.01
 33
-3.34
  0
3DFACE
  8
0----
 10
-1.13
 20
2.01
 30
-3.34
 11
-1.25
 21
1.71
 31
-3.54
 12
-0.99
 22
1.79
 32
-3.69
 13
-0.99
 23
1.79
 33
-3.69
  0
3DFACE
  8
0----
 10
-0.99
 20
1.79
 30
-3.69
 11
-1.25
 21
1.71
 31
-3.54
 12
-1.15
 22
1.56
 32
-3.79
 13
-1.15
 23
1.56
 33
-3.79
  0
3DFACE
  8
0----
 10
-1.15
 20
1.56
 30
-3.79
 11
-1.25
 21
1.71
 31
-3.54
 12
-1.67
 22
1.17
 32
-3.85
 13
-1.67
 23
1.17
 33
-3.85
  0
3DFACE
  8
0----
 10
-1.67
 20
1.17
 30
-3.85
 11
-1.25
 21
1.71
 31
-3.54
 12
-1.62
 22
1.49
 32
-3.26
 13
-1.62
 23
1.49
 33
-3.26
  0
3DFACE
  8
0----
 10
-1.29
 20
2.10
 30
-2.64
 11
-1.62
 21
1.73
 31
-2.66
 12
-1.36
 22
1.76
 32
-3.31
 13
-1.36
 23
1.76
 33
-3.31
  0
3DFACE
  8
0----
 10
-1.36
 20
1.76
 30
-3.31
 11
-1.13
 21
2.01
 31
-3.34
 12
-1.29
 22
2.10
 32
-2.64
 13
-1.29
 23
2.10
 33
-2.64
  0
3DFACE
  8
0----
 10
-1.29
 20
2.10
 30
-2.64
 11
-1.34
 21
2.11
 31
-2.21
 12
-1.62
 22
1.73
 32
-2.66
 13
-1.62
 23
1.73
 33
-2.66
  0
3DFACE
  8
0----
 10
-1.62
 20
1.73
 30
-2.66
 11
-1.34
 21
2.11
 31
-2.21
 12
-1.71
 22
1.71
 32
-2.24
 13
-1.71
 23
1.71
 33
-2.24
  0
3DFACE
  8
0----
 10
-1.71
 20
1.50
 30
-1.51
 11
-1.74
 21
1.62
 31
-1.84
 12
-1.32
 22
1.98
 32
-1.45
 13
-1.32
 23
1.98
 33
-1.45
  0
3DFACE
  8
0----
 10
-1.32
 20
1.98
 30
-1.45
 11
-1.74
 21
1.62
 31
-1.84
 12
-1.71
 22
1.71
 32
-2.24
 13
-1.71
 23
1.71
 33
-2.24
  0
3DFACE
  8
0----
 10
-1.71
 20
1.71
 30
-2.24
 11
-1.34
 21
2.11
 31
-2.21
 12
-1.32
 22
1.98
 32
-1.45
 13
-1.32
 23
1.98
 33
-1.45
  0
3DFACE
  8
0----
 10
-1.27
 20
1.76
 30
-1.02
 11
-1.62
 21
1.33
 31
-1.11
 12
-1.71
 22
1.50
 32
-1.51
 13
-1.71
 23
1.50
 33
-1.51
  0
3DFACE
  8
0----
 10
-1.71
 20
1.50
 30
-1.51
 11
-1.32
 21
1.98
 31
-1.45
 12
-1.27
 22
1.76
 32
-1.02
 13
-1.27
 23
1.76
 33
-1.02
  0
3DFACE
  8
0----
 10
-2.46
 20
-0.98
 30
-4.14
 11
-2.36
 21
-0.76
 31
-4.07
 12
-2.50
 22
-0.65
 32
-3.93
 13
-2.50
 23
-0.65
 33
-3.93
  0
3DFACE
  8
0----
 10
-1.47
 20
1.16
 30
-0.73
 11
-1.62
 21
1.33
 31
-1.11
 12
-1.27
 22
1.76
 32
-1.02
 13
-1.27
 23
1.76
 33
-1.02
  0
3DFACE
  8
0----
 10
-1.27
 20
1.76
 30
-1.02
 11
-1.15
 21
1.51
 31
-0.62
 12
-1.47
 22
1.16
 32
-0.73
 13
-1.47
 23
1.16
 33
-0.73
  0
3DFACE
  8
0----
 10
-1.26
 20
0.98
 30
-0.43
 11
-1.47
 21
1.16
 31
-0.73
 12
-1.15
 22
1.51
 32
-0.62
 13
-1.15
 23
1.51
 33
-0.62
  0
3DFACE
  8
0----
 10
-1.15
 20
1.51
 30
-0.62
 11
-1.03
 21
1.34
 31
-0.42
 12
-1.26
 22
0.98
 32
-0.43
 13
-1.26
 23
0.98
 33
-0.43
  0
3DFACE
  8
0----
 10
-0.85
 20
1.11
 30
-0.23
 11
-1.09
 21
0.83
 31
-0.30
 12
-1.26
 22
0.98
 32
-0.43
 13
-1.26
 23
0.98
 33
-0.43
  0
3DFACE
  8
0----
 10
-1.26
 20
0.98
 30
-0.43
 11
-1.03
 21
1.34
 31
-0.42
 12
-0.85
 22
1.11
 32
-0.23
 13
-0.85
 23
1.11
 33
-0.23
  0
3DFACE
  8
0----
 10
-0.92
 20
0.70
 30
-0.18
 11
-1.09
 21
0.83
 31
-0.30
 12
-0.85
 22
1.11
 32
-0.23
 13
-0.85
 23
1.11
 33
-0.23
  0
3DFACE
  8
0----
 10
-0.85
 20
1.11
 30
-0.23
 11
-0.73
 21
0.98
 31
-0.13
 12
-0.92
 22
0.70
 32
-0.18
 13
-0.92
 23
0.70
 33
-0.18
  0
3DFACE
  8
0----
 10
-0.21
 20
0.82
 30
0.03
 11
-0.35
 21
0.67
 31
0.00
 12
-0.54
 22
1.12
 32
-0.09
 13
-0.54
 23
1.12
 33
-0.09
  0
3DFACE
  8
0----
 10
-0.54
 20
1.12
 30
-0.09
 11
-0.28
 21
1.25
 31
-0.05
 12
-0.21
 22
0.82
 32
0.03
 13
-0.21
 23
0.82
 33
0.03
  0
3DFACE
  8
0----
 10
-0.35
 20
0.67
 30
0.00
 11
-0.21
 21
0.82
 31
0.03
 12
-0.14
 22
0.56
 32
0.01
 13
-0.14
 23
0.56
 33
0.01
  0
3DFACE
  8
0----
 10
-0.14
 20
0.56
 30
0.01
 11
-0.22
 21
0.44
 31
0.00
 12
-0.35
 22
0.67
 32
0.00
 13
-0.35
 23
0.67
 33
0.00
  0
3DFACE
  8
0----
 10
-0.43
 20
0.54
 30
-0.01
 11
-0.73
 21
0.98
 31
-0.13
 12
-0.54
 22
1.12
 32
-0.09
 13
-0.54
 23
1.12
 33
-0.09
  0
3DFACE
  8
0----
 10
-0.54
 20
1.12
 30
-0.09
 11
-0.35
 21
0.67
 31
0.00
 12
-0.43
 22
0.54
 32
-0.01
 13
-0.43
 23
0.54
 33
-0.01
  0
3DFACE
  8
0----
 10
-0.56
 20
0.39
 30
-0.05
 11
-0.92
 21
0.70
 31
-0.18
 12
-0.73
 22
0.98
 32
-0.13
 13
-0.73
 23
0.98
 33
-0.13
  0
3DFACE
  8
0----
 10
-0.73
 20
0.98
 30
-0.13
 11
-0.43
 21
0.54
 31
-0.01
 12
-0.56
 22
0.39
 32
-0.05
 13
-0.56
 23
0.39
 33
-0.05
  0
3DFACE
  8
0----
 10
-1.06
 20
0.38
 30
-0.23
 11
-1.29
 21
0.48
 31
-0.37
 12
-1.09
 22
0.83
 32
-0.30
 13
-1.09
 23
0.83
 33
-0.30
  0
3DFACE
  8
0----
 10
-1.09
 20
0.83
 30
-0.30
 11
-0.92
 21
0.70
 31
-0.18
 12
-1.06
 22
0.38
 32
-0.23
 13
-1.06
 23
0.38
 33
-0.23
  0
3DFACE
  8
0----
 10
-1.06
 20
0.38
 30
-0.23
 11
-0.92
 21
0.70
 31
-0.18
 12
-0.65
 22
0.20
 32
-0.09
 13
-0.65
 23
0.20
 33
-0.09
  0
3DFACE
  8
0----
 10
-0.92
 20
0.70
 30
-0.18
 11
-0.56
 21
0.39
 31
-0.05
 12
-0.65
 22
0.20
 32
-0.09
 13
-0.65
 23
0.20
 33
-0.09
  0
3DFACE
  8
0----
 10
-1.09
 20
0.83
 30
-0.30
 11
-1.29
 21
0.48
 31
-0.37
 12
-1.49
 22
0.53
 32
-0.50
 13
-1.49
 23
0.53
 33
-0.50
  0
3DFACE
  8
0----
 10
-1.49
 20
0.53
 30
-0.50
 11
-1.26
 21
0.98
 31
-0.43
 12
-1.09
 22
0.83
 32
-0.30
 13
-1.09
 23
0.83
 33
-0.30
  0
3DFACE
  8
0----
 10
-1.47
 20
1.16
 30
-0.73
 11
-1.26
 21
0.98
 31
-0.43
 12
-1.49
 22
0.53
 32
-0.50
 13
-1.49
 23
0.53
 33
-0.50
  0
3DFACE
  8
0----
 10
-1.49
 20
0.53
 30
-0.50
 11
-1.72
 21
0.59
 31
-0.82
 12
-1.47
 22
1.16
 32
-0.73
 13
-1.47
 23
1.16
 33
-0.73
  0
3DFACE
  8
0----
 10
-1.62
 20
1.33
 30
-1.11
 11
-1.47
 21
1.16
 31
-0.73
 12
-1.72
 22
0.59
 32
-0.82
 13
-1.72
 23
0.59
 33
-0.82
  0
3DFACE
  8
0----
 10
-1.72
 20
0.59
 30
-0.82
 11
-1.90
 21
0.67
 31
-1.22
 12
-1.62
 22
1.33
 32
-1.11
 13
-1.62
 23
1.33
 33
-1.11
  0
3DFACE
  8
0----
 10
-1.71
 20
1.50
 30
-1.51
 11
-1.62
 21
1.33
 31
-1.11
 12
-1.90
 22
0.67
 32
-1.22
 13
-1.90
 23
0.67
 33
-1.22
  0
3DFACE
  8
0----
 10
-1.90
 20
0.67
 30
-1.22
 11
-2.07
 21
0.73
 31
-1.62
 12
-1.71
 22
1.50
 32
-1.51
 13
-1.71
 23
1.50
 33
-1.51
  0
3DFACE
  8
0----
 10
-1.71
 20
1.50
 30
-1.51
 11
-2.07
 21
0.73
 31
-1.62
 12
-1.74
 22
1.62
 32
-1.84
 13
-1.74
 23
1.62
 33
-1.84
  0
3DFACE
  8
0----
 10
-1.71
 20
1.71
 30
-2.24
 11
-1.74
 21
1.62
 31
-1.84
 12
-2.07
 22
0.73
 32
-1.62
 13
-2.07
 23
0.73
 33
-1.62
  0
3DFACE
  8
0----
 10
-2.07
 20
0.73
 30
-1.62
 11
-2.14
 21
0.80
 31
-2.29
 12
-1.71
 22
1.71
 32
-2.24
 13
-1.71
 23
1.71
 33
-2.24
  0
3DFACE
  8
0----
 10
-2.07
 20
0.83
 30
-2.74
 11
-1.62
 21
1.73
 31
-2.66
 12
-1.71
 22
1.71
 32
-2.24
 13
-1.71
 23
1.71
 33
-2.24
  0
3DFACE
  8
0----
 10
-1.71
 20
1.71
 30
-2.24
 11
-2.14
 21
0.80
 31
-2.29
 12
-2.07
 22
0.83
 32
-2.74
 13
-2.07
 23
0.83
 33
-2.74
  0
3DFACE
  8
0----
 10
-1.68
 20
0.87
 30
-3.26
 11
-1.82
 21
1.10
 31
-3.19
 12
-2.00
 22
0.84
 32
-3.13
 13
-2.00
 23
0.84
 33
-3.13
  0
3DFACE
  8
0----
 10
-2.00
 20
0.84
 30
-3.13
 11
-1.53
 21
0.63
 31
-3.29
 12
-1.68
 22
0.87
 32
-3.26
 13
-1.68
 23
0.87
 33
-3.26
  0
3DFACE
  8
0----
 10
-2.00
 20
0.84
 30
-3.13
 11
-2.14
 21
0.65
 31
-3.24
 12
-1.53
 22
0.63
 32
-3.29
 13
-1.53
 23
0.63
 33
-3.29
  0
3DFACE
  8
0----
 10
-1.82
 20
1.10
 30
-3.19
 11
-1.68
 21
0.87
 31
-3.26
 12
-1.68
 22
0.91
 32
-3.63
 13
-1.68
 23
0.91
 33
-3.63
  0
3DFACE
  8
0----
 10
-1.68
 20
0.87
 30
-3.26
 11
-1.53
 21
0.63
 31
-3.29
 12
-1.68
 22
0.91
 32
-3.63
 13
-1.68
 23
0.91
 33
-3.63
  0
3DFACE
  8
0----
 10
-1.53
 20
0.63
 30
-3.29
 11
-1.56
 21
0.51
 31
-3.58
 12
-1.68
 22
0.91
 32
-3.63
 13
-1.68
 23
0.91
 33
-3.63
  0
3DFACE
  8
0----
 10
-1.56
 20
0.51
 30
-3.58
 11
-1.64
 21
0.79
 31
-3.80
 12
-1.68
 22
0.91
 32
-3.63
 13
-1.68
 23
0.91
 33
-3.63
  0
3DFACE
  8
0----
 10
-1.64
 20
0.79
 30
-3.80
 11
-1.65
 21
0.98
 31
-3.96
 12
-1.68
 22
0.91
 32
-3.63
 13
-1.68
 23
0.91
 33
-3.63
  0
3DFACE
  8
0----
 10
-1.65
 20
0.98
 30
-3.96
 11
-1.67
 21
1.17
 31
-3.85
 12
-1.68
 22
0.91
 32
-3.63
 13
-1.68
 23
0.91
 33
-3.63
  0
3DFACE
  8
0----
 10
-1.67
 20
1.17
 30
-3.85
 11
-1.82
 21
1.10
 31
-3.19
 12
-1.68
 22
0.91
 32
-3.63
 13
-1.68
 23
0.91
 33
-3.63
  0
3DFACE
  8
0----
 10
-1.82
 20
1.10
 30
-3.19
 11
-1.67
 21
1.17
 31
-3.85
 12
-1.62
 22
1.49
 32
-3.26
 13
-1.62
 23
1.49
 33
-3.26
  0
3DFACE
  8
0----
 10
-1.62
 20
1.49
 30
-3.26
 11
-1.36
 21
1.76
 31
-3.31
 12
-1.62
 22
1.73
 32
-2.66
 13
-1.62
 23
1.73
 33
-2.66
  0
3DFACE
  8
0----
 10
-1.62
 20
1.73
 30
-2.66
 11
-2.07
 21
0.83
 31
-2.74
 12
-1.62
 22
1.49
 32
-3.26
 13
-1.62
 23
1.49
 33
-3.26
  0
3DFACE
  8
0----
 10
-1.82
 20
1.10
 30
-3.19
 11
-1.62
 21
1.49
 31
-3.26
 12
-2.07
 22
0.83
 32
-2.74
 13
-2.07
 23
0.83
 33
-2.74
  0
3DFACE
  8
0----
 10
-2.07
 20
0.83
 30
-2.74
 11
-2.00
 21
0.84
 31
-3.13
 12
-1.82
 22
1.10
 32
-3.19
 13
-1.82
 23
1.10
 33
-3.19
  0
3DFACE
  8
0----
 10
-2.14
 20
0.65
 30
-3.24
 11
-2.00
 21
0.84
 31
-3.13
 12
-2.22
 22
0.69
 32
-3.11
 13
-2.22
 23
0.69
 33
-3.11
  0
3DFACE
  8
0----
 10
-1.36
 20
0.11
 30
-0.40
 11
-1.58
 21
0.17
 31
-0.56
 12
-1.49
 22
0.53
 32
-0.50
 13
-1.49
 23
0.53
 33
-0.50
  0
3DFACE
  8
0----
 10
-1.49
 20
0.53
 30
-0.50
 11
-1.29
 21
0.48
 31
-0.37
 12
-1.36
 22
0.11
 32
-0.40
 13
-1.36
 23
0.11
 33
-0.40
  0
3DFACE
  8
0----
 10
-1.81
 20
0.24
 30
-0.84
 11
-1.72
 21
0.59
 31
-0.82
 12
-1.58
 22
0.17
 32
-0.56
 13
-1.58
 23
0.17
 33
-0.56
  0
3DFACE
  8
0----
 10
-1.58
 20
0.17
 30
-0.56
 11
-1.72
 21
0.59
 31
-0.82
 12
-1.49
 22
0.53
 32
-0.50
 13
-1.49
 23
0.53
 33
-0.50
  0
3DFACE
  8
0----
 10
-1.81
 20
0.24
 30
-0.84
 11
-2.01
 21
0.25
 31
-1.22
 12
-1.72
 22
0.59
 32
-0.82
 13
-1.72
 23
0.59
 33
-0.82
  0
3DFACE
  8
0----
 10
-1.72
 20
0.59
 30
-0.82
 11
-2.01
 21
0.25
 31
-1.22
 12
-1.90
 22
0.67
 32
-1.22
 13
-1.90
 23
0.67
 33
-1.22
  0
3DFACE
  8
0----
 10
-2.07
 20
0.73
 30
-1.62
 11
-1.90
 21
0.67
 31
-1.22
 12
-2.01
 22
0.25
 32
-1.22
 13
-2.01
 23
0.25
 33
-1.22
  0
3DFACE
  8
0----
 10
-2.01
 20
0.25
 30
-1.22
 11
-2.29
 21
0.27
 31
-2.06
 12
-2.07
 22
0.73
 32
-1.62
 13
-2.07
 23
0.73
 33
-1.62
  0
3DFACE
  8
0----
 10
-2.07
 20
0.73
 30
-1.62
 11
-2.29
 21
0.27
 31
-2.06
 12
-2.14
 22
0.80
 32
-2.29
 13
-2.14
 23
0.80
 33
-2.29
  0
3DFACE
  8
0----
 10
-2.14
 20
0.80
 30
-2.29
 11
-2.29
 21
0.27
 31
-2.06
 12
-2.07
 22
0.83
 32
-2.74
 13
-2.07
 23
0.83
 33
-2.74
  0
3DFACE
  8
0----
 10
-2.28
 20
0.58
 30
-3.29
 11
-2.22
 21
0.69
 31
-3.11
 12
-2.41
 22
0.33
 32
-3.03
 13
-2.41
 23
0.33
 33
-3.03
  0
3DFACE
  8
0----
 10
-2.47
 20
0.03
 30
-3.22
 11
-2.40
 21
0.09
 31
-3.42
 12
-2.41
 22
0.33
 32
-3.03
 13
-2.41
 23
0.33
 33
-3.03
  0
3DFACE
  8
0----
 10
-2.41
 20
0.33
 30
-3.03
 11
-2.40
 21
0.09
 31
-3.42
 12
-2.29
 22
0.48
 32
-3.36
 13
-2.29
 23
0.48
 33
-3.36
  0
3DFACE
  8
0----
 10
-2.41
 20
0.33
 30
-3.03
 11
-2.29
 21
0.48
 31
-3.36
 12
-2.28
 22
0.58
 32
-3.29
 13
-2.28
 23
0.58
 33
-3.29
  0
3DFACE
  8
0----
 10
-2.28
 20
0.58
 30
-3.29
 11
-2.14
 21
0.65
 31
-3.24
 12
-2.22
 22
0.69
 32
-3.11
 13
-2.22
 23
0.69
 33
-3.11
  0
3DFACE
  8
0----
 10
-2.22
 20
0.69
 30
-3.11
 11
-2.00
 21
0.84
 31
-3.13
 12
-2.07
 22
0.83
 32
-2.74
 13
-2.07
 23
0.83
 33
-2.74
  0
3DFACE
  8
0----
 10
-2.22
 20
0.69
 30
-3.11
 11
-2.07
 21
0.83
 31
-2.74
 12
-2.41
 22
0.33
 32
-3.03
 13
-2.41
 23
0.33
 33
-3.03
  0
3DFACE
  8
0----
 10
-2.52
 20
-0.08
 30
-3.28
 11
-2.42
 21
-0.24
 31
-3.60
 12
-2.40
 22
0.09
 32
-3.42
 13
-2.40
 23
0.09
 33
-3.42
  0
3DFACE
  8
0----
 10
-2.40
 20
0.09
 30
-3.42
 11
-2.47
 21
0.03
 31
-3.22
 12
-2.52
 22
-0.08
 32
-3.28
 13
-2.52
 23
-0.08
 33
-3.28
  0
3DFACE
  8
0----
 10
-2.44
 20
0.01
 30
-3.06
 11
-2.52
 21
-0.08
 31
-3.28
 12
-2.47
 22
0.03
 32
-3.22
 13
-2.47
 23
0.03
 33
-3.22
  0
3DFACE
  8
0----
 10
-2.47
 20
0.03
 30
-3.22
 11
-2.41
 21
0.33
 31
-3.03
 12
-2.44
 22
0.01
 32
-3.06
 13
-2.44
 23
0.01
 33
-3.06
  0
3DFACE
  8
0----
 10
-2.35
 20
0.22
 30
-2.93
 11
-2.44
 21
0.01
 31
-3.06
 12
-2.41
 22
0.33
 32
-3.03
 13
-2.41
 23
0.33
 33
-3.03
  0
3DFACE
  8
0----
 10
-2.41
 20
0.33
 30
-3.03
 11
-2.07
 21
0.83
 31
-2.74
 12
-2.35
 22
0.22
 32
-2.93
 13
-2.35
 23
0.22
 33
-2.93
  0
3DFACE
  8
0----
 10
-2.35
 20
0.22
 30
-2.93
 11
-2.07
 21
0.83
 31
-2.74
 12
-2.38
 22
0.19
 32
-2.64
 13
-2.38
 23
0.19
 33
-2.64
  0
3DFACE
  8
0----
 10
-2.38
 20
0.19
 30
-2.64
 11
-2.07
 21
0.83
 31
-2.74
 12
-2.29
 22
0.27
 32
-2.06
 13
-2.29
 23
0.27
 33
-2.06
  0
3DFACE
  8
0----
 10
-1.98
 20
-1.21
 30
-4.29
 11
-1.68
 21
-0.98
 31
-4.30
 12
-2.00
 22
-0.86
 32
-4.24
 13
-2.00
 23
-0.86
 33
-4.24
  0
3DFACE
  8
0----
 10
-2.00
 20
-0.86
 30
-4.24
 11
-2.17
 21
-0.98
 31
-4.23
 12
-1.98
 22
-1.21
 32
-4.29
 13
-1.98
 23
-1.21
 33
-4.29
  0
3DFACE
  8
0----
 10
-2.07
 20
-0.60
 30
-3.90
 11
-2.42
 21
-0.24
 31
-3.60
 12
-2.31
 22
-0.62
 32
-3.94
 13
-2.31
 23
-0.62
 33
-3.94
  0
3DFACE
  8
0----
 10
-2.31
 20
-0.62
 30
-3.94
 11
-2.42
 21
-0.24
 31
-3.60
 12
-2.50
 22
-0.65
 32
-3.93
 13
-2.50
 23
-0.65
 33
-3.93
  0
3DFACE
  8
0----
 10
-2.50
 20
-0.65
 30
-3.93
 11
-2.36
 21
-0.76
 31
-4.07
 12
-2.31
 22
-0.62
 32
-3.94
 13
-2.31
 23
-0.62
 33
-3.94
  0
3DFACE
  8
0----
 10
-2.07
 20
-0.60
 30
-3.90
 11
-2.31
 21
-0.62
 31
-3.94
 12
-2.00
 22
-0.86
 32
-4.24
 13
-2.00
 23
-0.86
 33
-4.24
  0
3DFACE
  8
0----
 10
-2.00
 20
-0.86
 30
-4.24
 11
-2.31
 21
-0.62
 31
-3.94
 12
-2.36
 22
-0.76
 32
-4.07
 13
-2.36
 23
-0.76
 33
-4.07
  0
3DFACE
  8
0----
 10
-2.36
 20
-0.76
 30
-4.07
 11
-2.17
 21
-0.98
 31
-4.23
 12
-2.00
 22
-0.86
 32
-4.24
 13
-2.00
 23
-0.86
 33
-4.24
  0
3DFACE
  8
0----
 10
-2.17
 20
-0.98
 30
-4.23
 11
-2.36
 21
-0.76
 31
-4.07
 12
-2.46
 22
-0.98
 32
-4.14
 13
-2.46
 23
-0.98
 33
-4.14
  0
3DFACE
  8
0----
 10
-2.46
 20
-0.98
 30
-4.14
 11
-2.39
 21
-1.14
 31
-4.21
 12
-2.17
 22
-0.98
 32
-4.23
 13
-2.17
 23
-0.98
 33
-4.23
  0
3DFACE
  8
0----
 10
-1.07
 20
0.09
 30
-0.24
 11
-1.36
 21
0.11
 31
-0.40
 12
-1.29
 22
0.48
 32
-0.37
 13
-1.29
 23
0.48
 33
-0.37
  0
3DFACE
  8
0----
 10
-1.29
 20
0.48
 30
-0.37
 11
-1.06
 21
0.38
 31
-0.23
 12
-1.07
 22
0.09
 32
-0.24
 13
-1.07
 23
0.09
 33
-0.24
  0
3DFACE
  8
0----
 10
-0.75
 20
0.03
 30
-0.13
 11
-1.07
 21
0.09
 31
-0.24
 12
-1.06
 22
0.38
 32
-0.23
 13
-1.06
 23
0.38
 33
-0.23
  0
3DFACE
  8
0----
 10
-1.06
 20
0.38
 30
-0.23
 11
-0.65
 21
0.20
 31
-0.09
 12
-0.75
 22
0.03
 32
-0.13
 13
-0.75
 23
0.03
 33
-0.13
  0
3DFACE
  8
0----
 10
-0.43
 20
0.54
 30
-0.01
 11
-0.35
 21
0.67
 31
0.00
 12
-0.22
 22
0.44
 32
0.00
 13
-0.22
 23
0.44
 33
0.00
  0
3DFACE
  8
0----
 10
-0.22
 20
0.44
 30
0.00
 11
-0.29
 21
0.35
 31
-0.01
 12
-0.43
 22
0.54
 32
-0.01
 13
-0.43
 23
0.54
 33
-0.01
  0
3DFACE
  8
0----
 10
-0.56
 20
0.39
 30
-0.05
 11
-0.43
 21
0.54
 31
-0.01
 12
-0.29
 22
0.35
 32
-0.01
 13
-0.29
 23
0.35
 33
-0.01
  0
3DFACE
  8
0----
 10
-0.29
 20
0.35
 30
-0.01
 11
-0.35
 21
0.23
 31
-0.04
 12
-0.56
 22
0.39
 32
-0.05
 13
-0.56
 23
0.39
 33
-0.05
  0
3DFACE
  8
0----
 10
-0.42
 20
0.11
 30
-0.06
 11
-0.56
 21
0.39
 31
-0.05
 12
-0.35
 22
0.23
 32
-0.04
 13
-0.35
 23
0.23
 33
-0.04
  0
3DFACE
  8
0----
 10
-0.47
 20
0.02
 30
-0.08
 11
-0.75
 21
0.03
 31
-0.13
 12
-0.65
 22
0.20
 32
-0.09
 13
-0.65
 23
0.20
 33
-0.09
  0
3DFACE
  8
0----
 10
-0.42
 20
0.11
 30
-0.06
 11
-0.65
 21
0.20
 31
-0.09
 12
-0.56
 22
0.39
 32
-0.05
 13
-0.56
 23
0.39
 33
-0.05
  0
3DFACE
  8
0----
 10
-0.65
 20
0.20
 30
-0.09
 11
-0.42
 21
0.11
 31
-0.06
 12
-0.47
 22
0.02
 32
-0.08
 13
-0.47
 23
0.02
 33
-0.08
  0
3DFACE
  8
0----
 10
-1.84
 20
-0.29
 30
-0.83
 11
-2.04
 21
-0.32
 31
-1.25
 12
-2.01
 22
0.25
 32
-1.22
 13
-2.01
 23
0.25
 33
-1.22
  0
3DFACE
  8
0----
 10
-2.01
 20
0.25
 30
-1.22
 11
-1.81
 21
0.24
 31
-0.84
 12
-1.84
 22
-0.29
 32
-0.83
 13
-1.84
 23
-0.29
 33
-0.83
  0
3DFACE
  8
0----
 10
-1.63
 20
-0.24
 30
-0.60
 11
-1.84
 21
-0.29
 31
-0.83
 12
-1.81
 22
0.24
 32
-0.84
 13
-1.81
 23
0.24
 33
-0.84
  0
3DFACE
  8
0----
 10
-1.81
 20
0.24
 30
-0.84
 11
-1.58
 21
0.17
 31
-0.56
 12
-1.63
 22
-0.24
 32
-0.60
 13
-1.63
 23
-0.24
 33
-0.60
  0
3DFACE
  8
0----
 10
-1.37
 20
-0.20
 30
-0.40
 11
-1.63
 21
-0.24
 31
-0.60
 12
-1.58
 22
0.17
 32
-0.56
 13
-1.58
 23
0.17
 33
-0.56
  0
3DFACE
  8
0----
 10
-1.58
 20
0.17
 30
-0.56
 11
-1.36
 21
0.11
 31
-0.40
 12
-1.37
 22
-0.20
 32
-0.40
 13
-1.37
 23
-0.20
 33
-0.40
  0
3DFACE
  8
0----
 10
-1.04
 20
-0.16
 30
-0.24
 11
-1.37
 21
-0.20
 31
-0.40
 12
-1.36
 22
0.11
 32
-0.40
 13
-1.36
 23
0.11
 33
-0.40
  0
3DFACE
  8
0----
 10
-1.36
 20
0.11
 30
-0.40
 11
-1.07
 21
0.09
 31
-0.24
 12
-1.04
 22
-0.16
 32
-0.24
 13
-1.04
 23
-0.16
 33
-0.24
  0
3DFACE
  8
0----
 10
-0.75
 20
0.03
 30
-0.13
 11
-0.78
 21
-0.13
 31
-0.17
 12
-1.04
 22
-0.16
 32
-0.24
 13
-1.04
 23
-0.16
 33
-0.24
  0
3DFACE
  8
0----
 10
-1.04
 20
-0.16
 30
-0.24
 11
-1.07
 21
0.09
 31
-0.24
 12
-0.75
 22
0.03
 32
-0.13
 13
-0.75
 23
0.03
 33
-0.13
  0
3DFACE
  8
0----
 10
-0.49
 20
-0.10
 30
-0.10
 11
-0.78
 21
-0.13
 31
-0.17
 12
-0.75
 22
0.03
 32
-0.13
 13
-0.75
 23
0.03
 33
-0.13
  0
3DFACE
  8
0----
 10
-0.75
 20
0.03
 30
-0.13
 11
-0.47
 21
0.02
 31
-0.08
 12
-0.49
 22
-0.10
 32
-0.10
 13
-0.49
 23
-0.10
 33
-0.10
  0
3DFACE
  8
0----
 10
-0.85
 20
-0.54
 30
-0.24
 11
-1.26
 21
-0.75
 31
-0.41
 12
-1.37
 22
-0.20
 32
-0.40
 13
-1.37
 23
-0.20
 33
-0.40
  0
3DFACE
  8
0----
 10
-1.37
 20
-0.20
 30
-0.40
 11
-1.04
 21
-0.16
 31
-0.24
 12
-0.85
 22
-0.54
 32
-0.24
 13
-0.85
 23
-0.54
 33
-0.24
  0
3DFACE
  8
0----
 10
-0.65
 20
-0.41
 30
-0.17
 11
-0.85
 21
-0.54
 31
-0.24
 12
-1.04
 22
-0.16
 32
-0.24
 13
-1.04
 23
-0.16
 33
-0.24
  0
3DFACE
  8
0----
 10
-1.04
 20
-0.16
 30
-0.24
 11
-0.78
 21
-0.13
 31
-0.17
 12
-0.65
 22
-0.41
 32
-0.17
 13
-0.65
 23
-0.41
 33
-0.17
  0
3DFACE
  8
0----
 10
-0.47
 20
-0.30
 30
-0.12
 11
-0.65
 21
-0.41
 31
-0.17
 12
-0.78
 22
-0.13
 32
-0.17
 13
-0.78
 23
-0.13
 33
-0.17
  0
3DFACE
  8
0----
 10
-0.78
 20
-0.13
 30
-0.17
 11
-0.49
 21
-0.10
 31
-0.10
 12
-0.47
 22
-0.30
 32
-0.12
 13
-0.47
 23
-0.30
 33
-0.12
  0
3DFACE
  8
0----
 10
-0.38
 20
-0.41
 30
-0.11
 11
-0.49
 21
-0.50
 31
-0.15
 12
-0.47
 22
-0.30
 32
-0.12
 13
-0.47
 23
-0.30
 33
-0.12
  0
3DFACE
  8
0----
 10
-0.47
 20
-0.30
 30
-0.12
 11
-0.49
 21
-0.50
 31
-0.15
 12
-0.65
 22
-0.41
 32
-0.17
 13
-0.65
 23
-0.41
 33
-0.17
  0
3DFACE
  8
0----
 10
-0.66
 20
-0.70
 30
-0.23
 11
-0.85
 21
-0.54
 31
-0.24
 12
-0.65
 22
-0.41
 32
-0.17
 13
-0.65
 23
-0.41
 33
-0.17
  0
3DFACE
  8
0----
 10
-0.65
 20
-0.41
 30
-0.17
 11
-0.49
 21
-0.50
 31
-0.15
 12
-0.66
 22
-0.70
 32
-0.23
 13
-0.66
 23
-0.70
 33
-0.23
  0
3DFACE
  8
0----
 10
-0.66
 20
-0.70
 30
-0.23
 11
-1.03
 21
-1.09
 31
-0.41
 12
-1.26
 22
-0.75
 32
-0.41
 13
-1.26
 23
-0.75
 33
-0.41
  0
3DFACE
  8
0----
 10
-1.26
 20
-0.75
 30
-0.41
 11
-0.85
 21
-0.54
 31
-0.24
 12
-0.66
 22
-0.70
 32
-0.23
 13
-0.66
 23
-0.70
 33
-0.23
  0
3DFACE
  8
0----
 10
-1.71
 20
-1.09
 30
-0.76
 11
-1.49
 21
-0.90
 31
-0.56
 12
-1.17
 22
-1.28
 32
-0.50
 13
-1.17
 23
-1.28
 33
-0.50
  0
3DFACE
  8
0----
 10
-1.49
 20
-0.90
 30
-0.56
 11
-1.71
 21
-1.09
 31
-0.76
 12
-1.63
 22
-0.24
 32
-0.60
 13
-1.63
 23
-0.24
 33
-0.60
  0
3DFACE
  8
0----
 10
-1.84
 20
-0.29
 30
-0.83
 11
-1.63
 21
-0.24
 31
-0.60
 12
-1.71
 22
-1.09
 32
-0.76
 13
-1.71
 23
-1.09
 33
-0.76
  0
3DFACE
  8
0----
 10
-1.71
 20
-1.09
 30
-0.76
 11
-1.91
 21
-0.64
 31
-0.98
 12
-1.84
 22
-0.29
 32
-0.83
 13
-1.84
 23
-0.29
 33
-0.83
  0
3DFACE
  8
0----
 10
-2.04
 20
-0.32
 30
-1.25
 11
-1.84
 21
-0.29
 31
-0.83
 12
-1.91
 22
-0.64
 32
-0.98
 13
-1.91
 23
-0.64
 33
-0.98
  0
3DFACE
  8
0----
 10
-1.26
 20
-0.75
 30
-0.41
 11
-1.49
 21
-0.90
 31
-0.56
 12
-1.63
 22
-0.24
 32
-0.60
 13
-1.63
 23
-0.24
 33
-0.60
  0
3DFACE
  8
0----
 10
-1.63
 20
-0.24
 30
-0.60
 11
-1.37
 21
-0.20
 31
-0.40
 12
-1.26
 22
-0.75
 32
-0.41
 13
-1.26
 23
-0.75
 33
-0.41
  0
3DFACE
  8
0----
 10
-1.17
 20
-1.28
 30
-0.50
 11
-1.49
 21
-0.90
 31
-0.56
 12
-1.26
 22
-0.75
 32
-0.41
 13
-1.26
 23
-0.75
 33
-0.41
  0
3DFACE
  8
0----
 10
-1.26
 20
-0.75
 30
-0.41
 11
-1.03
 21
-1.09
 31
-0.41
 12
-1.17
 22
-1.28
 32
-0.50
 13
-1.17
 23
-1.28
 33
-0.50
  0
3DFACE
  8
0----
 10
-2.04
 20
-0.32
 30
-1.25
 11
-2.18
 21
-0.05
 31
-1.61
 12
-2.01
 22
0.25
 32
-1.22
 13
-2.01
 23
0.25
 33
-1.22
  0
3DFACE
  8
0----
 10
-2.29
 20
0.27
 30
-2.06
 11
-2.01
 21
0.25
 31
-1.22
 12
-2.18
 22
-0.05
 32
-1.61
 13
-2.18
 23
-0.05
 33
-1.61
  0
3DFACE
  8
0----
 10
-2.44
 20
0.01
 30
-3.06
 11
-2.64
 21
-0.38
 31
-3.00
 12
-2.52
 22
-0.08
 32
-3.28
 13
-2.52
 23
-0.08
 33
-3.28
  0
3DFACE
  8
0----
 10
-2.53
 20
-0.62
 30
-3.49
 11
-2.52
 21
-0.55
 31
-3.34
 12
-2.54
 22
-0.72
 32
-3.37
 13
-2.54
 23
-0.72
 33
-3.37
  0
3DFACE
  8
0----
 10
-2.58
 20
-0.90
 30
-3.78
 11
-2.50
 21
-0.65
 31
-3.93
 12
-2.57
 22
-0.62
 32
-3.72
 13
-2.57
 23
-0.62
 33
-3.72
  0
3DFACE
  8
0----
 10
-2.58
 20
-0.90
 30
-3.78
 11
-2.57
 21
-0.62
 31
-3.72
 12
-2.59
 22
-1.02
 32
-3.62
 13
-2.59
 23
-1.02
 33
-3.62
  0
3DFACE
  8
0----
 10
-1.71
 20
-1.09
 30
-0.76
 11
-1.17
 21
-1.28
 31
-0.50
 12
-1.43
 22
-1.57
 32
-0.72
 13
-1.43
 23
-1.57
 33
-0.72
  0
3DFACE
  8
0----
 10
-1.43
 20
-1.57
 30
-0.72
 11
-1.74
 21
-1.52
 31
-0.93
 12
-1.71
 22
-1.09
 32
-0.76
 13
-1.71
 23
-1.09
 33
-0.76
  0
3DFACE
  8
0----
 10
-1.71
 20
-1.09
 30
-0.76
 11
-1.74
 21
-1.52
 31
-0.93
 12
-2.02
 22
-1.29
 32
-1.27
 13
-2.02
 23
-1.29
 33
-1.27
  0
3DFACE
  8
0----
 10
-1.91
 20
-0.64
 30
-0.98
 11
-1.71
 21
-1.09
 31
-0.76
 12
-2.02
 22
-1.29
 32
-1.27
 13
-2.02
 23
-1.29
 33
-1.27
  0
3DFACE
  8
0----
 10
-2.02
 20
-1.29
 30
-1.27
 11
-2.04
 21
-0.32
 31
-1.25
 12
-1.91
 22
-0.64
 32
-0.98
 13
-1.91
 23
-0.64
 33
-0.98
  0
3DFACE
  8
0----
 10
-2.18
 20
-0.05
 30
-1.61
 11
-2.04
 21
-0.32
 31
-1.25
 12
-2.22
 22
-0.34
 32
-1.75
 13
-2.22
 23
-0.34
 33
-1.75
  0
3DFACE
  8
0----
 10
-2.28
 20
-0.66
 30
-1.87
 11
-2.22
 21
-0.34
 31
-1.75
 12
-2.04
 22
-0.32
 32
-1.25
 13
-2.04
 23
-0.32
 33
-1.25
  0
3DFACE
  8
0----
 10
-2.57
 20
-0.37
 30
-2.57
 11
-2.64
 21
-0.38
 31
-3.00
 12
-2.44
 22
0.01
 32
-3.06
 13
-2.44
 23
0.01
 33
-3.06
  0
3DFACE
  8
0----
 10
-2.44
 20
0.01
 30
-3.06
 11
-2.35
 21
0.22
 31
-2.93
 12
-2.57
 22
-0.37
 32
-2.57
 13
-2.57
 23
-0.37
 33
-2.57
  0
3DFACE
  8
0----
 10
-2.57
 20
-0.37
 30
-2.57
 11
-2.35
 21
0.22
 31
-2.93
 12
-2.38
 22
0.19
 32
-2.64
 13
-2.38
 23
0.19
 33
-2.64
  0
3DFACE
  8
0----
 10
-2.38
 20
0.19
 30
-2.64
 11
-2.29
 21
0.27
 31
-2.06
 12
-2.57
 22
-0.37
 32
-2.57
 13
-2.57
 23
-0.37
 33
-2.57
  0
3DFACE
  8
0----
 10
-2.57
 20
-0.37
 30
-2.57
 11
-2.29
 21
0.27
 31
-2.06
 12
-2.42
 22
-0.38
 32
-2.21
 13
-2.42
 23
-0.38
 33
-2.21
  0
3DFACE
  8
0----
 10
-2.42
 20
-0.38
 30
-2.21
 11
-2.29
 21
0.27
 31
-2.06
 12
-2.18
 22
-0.05
 32
-1.61
 13
-2.18
 23
-0.05
 33
-1.61
  0
3DFACE
  8
0----
 10
-2.18
 20
-0.05
 30
-1.61
 11
-2.22
 21
-0.34
 31
-1.75
 12
-2.42
 22
-0.38
 32
-2.21
 13
-2.42
 23
-0.38
 33
-2.21
  0
3DFACE
  8
0----
 10
-2.42
 20
-0.38
 30
-2.21
 11
-2.22
 21
-0.34
 31
-1.75
 12
-2.28
 22
-0.66
 32
-1.87
 13
-2.28
 23
-0.66
 33
-1.87
  0
3DFACE
  8
0----
 10
-2.28
 20
-0.66
 30
-1.87
 11
-2.46
 21
-0.98
 31
-2.35
 12
-2.42
 22
-0.38
 32
-2.21
 13
-2.42
 23
-0.38
 33
-2.21
  0
3DFACE
  8
0----
 10
-2.53
 20
-0.89
 30
-2.49
 11
-2.42
 21
-0.38
 31
-2.21
 12
-2.46
 22
-0.98
 32
-2.35
 13
-2.46
 23
-0.98
 33
-2.35
  0
3DFACE
  8
0----
 10
-2.57
 20
-0.37
 30
-2.57
 11
-2.42
 21
-0.38
 31
-2.21
 12
-2.53
 22
-0.89
 32
-2.49
 13
-2.53
 23
-0.89
 33
-2.49
  0
3DFACE
  8
0----
 10
-2.53
 20
-0.89
 30
-2.49
 11
-2.61
 21
-0.81
 31
-2.69
 12
-2.57
 22
-0.37
 32
-2.57
 13
-2.57
 23
-0.37
 33
-2.57
  0
3DFACE
  8
0----
 10
-2.77
 20
-0.79
 30
-3.08
 11
-2.57
 21
-0.37
 31
-2.57
 12
-2.61
 22
-0.81
 32
-2.69
 13
-2.61
 23
-0.81
 33
-2.69
  0
3DFACE
  8
0----
 10
-2.57
 20
-0.37
 30
-2.57
 11
-2.77
 21
-0.79
 31
-3.08
 12
-2.64
 22
-0.38
 32
-3.00
 13
-2.64
 23
-0.38
 33
-3.00
  0
3DFACE
  8
0----
 10
-2.64
 20
-0.38
 30
-3.00
 11
-2.77
 21
-0.79
 31
-3.08
 12
-2.70
 22
-0.40
 32
-3.19
 13
-2.70
 23
-0.40
 33
-3.19
  0
3DFACE
  8
0----
 10
-2.52
 20
-0.08
 30
-3.28
 11
-2.64
 21
-0.38
 31
-3.00
 12
-2.70
 22
-0.40
 32
-3.19
 13
-2.70
 23
-0.40
 33
-3.19
  0
3DFACE
  8
0----
 10
-2.70
 20
-0.40
 30
-3.19
 11
-2.52
 21
-0.55
 31
-3.34
 12
-2.52
 22
-0.08
 32
-3.28
 13
-2.52
 23
-0.08
 33
-3.28
  0
3DFACE
  8
0----
 10
-2.52
 20
-0.08
 30
-3.28
 11
-2.52
 21
-0.55
 31
-3.34
 12
-2.42
 22
-0.24
 32
-3.60
 13
-2.42
 23
-0.24
 33
-3.60
  0
3DFACE
  8
0----
 10
-2.42
 20
-0.24
 30
-3.60
 11
-2.52
 21
-0.55
 31
-3.34
 12
-2.53
 22
-0.62
 32
-3.49
 13
-2.53
 23
-0.62
 33
-3.49
  0
3DFACE
  8
0----
 10
-2.53
 20
-0.62
 30
-3.49
 11
-2.57
 21
-0.62
 31
-3.72
 12
-2.42
 22
-0.24
 32
-3.60
 13
-2.42
 23
-0.24
 33
-3.60
  0
3DFACE
  8
0----
 10
-2.42
 20
-0.24
 30
-3.60
 11
-2.57
 21
-0.62
 31
-3.72
 12
-2.50
 22
-0.65
 32
-3.93
 13
-2.50
 23
-0.65
 33
-3.93
  0
3DFACE
  8
0----
 10
-2.60
 20
-0.96
 30
-3.39
 11
-2.59
 21
-1.02
 31
-3.62
 12
-2.57
 22
-0.62
 32
-3.72
 13
-2.57
 23
-0.62
 33
-3.72
  0
3DFACE
  8
0----
 10
-2.57
 20
-0.62
 30
-3.72
 11
-2.53
 21
-0.62
 31
-3.49
 12
-2.60
 22
-0.96
 32
-3.39
 13
-2.60
 23
-0.96
 33
-3.39
  0
3DFACE
  8
0----
 10
-2.60
 20
-0.96
 30
-3.39
 11
-2.53
 21
-0.62
 31
-3.49
 12
-2.54
 22
-0.72
 32
-3.37
 13
-2.54
 23
-0.72
 33
-3.37
  0
3DFACE
  8
0----
 10
-2.59
 20
-1.02
 30
-3.62
 11
-2.60
 21
-0.96
 31
-3.39
 12
-2.58
 22
-1.22
 32
-3.48
 13
-2.58
 23
-1.22
 33
-3.48
  0
3DFACE
  8
0----
 10
-2.55
 20
-1.27
 30
-3.28
 11
-2.55
 21
-1.35
 31
-3.37
 12
-2.58
 22
-1.22
 32
-3.48
 13
-2.58
 23
-1.22
 33
-3.48
  0
3DFACE
  8
0----
 10
-2.56
 20
-0.90
 30
-3.21
 11
-2.60
 21
-0.96
 31
-3.39
 12
-2.54
 22
-0.72
 32
-3.37
 13
-2.54
 23
-0.72
 33
-3.37
  0
3DFACE
  8
0----
 10
-2.54
 20
-0.72
 30
-3.37
 11
-2.52
 21
-0.55
 31
-3.34
 12
-2.56
 22
-0.90
 32
-3.21
 13
-2.56
 23
-0.90
 33
-3.21
  0
3DFACE
  8
0----
 10
-2.70
 20
-0.40
 30
-3.19
 11
-2.77
 21
-0.79
 31
-3.08
 12
-2.52
 22
-0.55
 32
-3.34
 13
-2.52
 23
-0.55
 33
-3.34
  0
3DFACE
  8
0----
 10
-2.52
 20
-0.55
 30
-3.34
 11
-2.77
 21
-0.79
 31
-3.08
 12
-2.56
 22
-0.90
 32
-3.21
 13
-2.56
 23
-0.90
 33
-3.21
  0
3DFACE
  8
0----
 10
-2.56
 20
-0.90
 30
-3.21
 11
-2.55
 21
-1.27
 31
-3.28
 12
-2.60
 22
-0.96
 32
-3.39
 13
-2.60
 23
-0.96
 33
-3.39
  0
3DFACE
  8
0----
 10
-2.60
 20
-0.96
 30
-3.39
 11
-2.55
 21
-1.27
 31
-3.28
 12
-2.58
 22
-1.22
 32
-3.48
 13
-2.58
 23
-1.22
 33
-3.48
  0
3DFACE
  8
0----
 10
-2.53
 20
-1.18
 30
-2.51
 11
-2.61
 21
-1.09
 31
-2.62
 12
-2.46
 22
-0.98
 32
-2.35
 13
-2.46
 23
-0.98
 33
-2.35
  0
3DFACE
  8
0----
 10
-2.64
 20
-1.02
 30
-2.73
 11
-2.77
 21
-0.79
 31
-3.08
 12
-2.61
 22
-0.81
 32
-2.69
 13
-2.61
 23
-0.81
 33
-2.69
  0
3DFACE
  8
0----
 10
-2.61
 20
-0.81
 30
-2.69
 11
-2.53
 21
-0.89
 31
-2.49
 12
-2.64
 22
-1.02
 32
-2.73
 13
-2.64
 23
-1.02
 33
-2.73
  0
3DFACE
  8
0----
 10
-2.64
 20
-1.02
 30
-2.73
 11
-2.53
 21
-0.89
 31
-2.49
 12
-2.61
 22
-1.09
 32
-2.62
 13
-2.61
 23
-1.09
 33
-2.62
  0
3DFACE
  8
0----
 10
-2.61
 20
-1.09
 30
-2.62
 11
-2.53
 21
-0.89
 31
-2.49
 12
-2.46
 22
-0.98
 32
-2.35
 13
-2.46
 23
-0.98
 33
-2.35
  0
3DFACE
  8
0----
 10
-2.54
 20
-1.10
 30
-2.98
 11
-2.64
 21
-1.02
 31
-2.73
 12
-2.54
 22
-1.17
 32
-2.81
 13
-2.54
 23
-1.17
 33
-2.81
  0
3DFACE
  8
0----
 10
-2.54
 20
-1.10
 30
-2.98
 11
-2.55
 21
-1.27
 31
-3.28
 12
-2.56
 22
-0.90
 32
-3.21
 13
-2.56
 23
-0.90
 33
-3.21
  0
3DFACE
  8
0----
 10
-2.56
 20
-0.90
 30
-3.21
 11
-2.77
 21
-0.79
 31
-3.08
 12
-2.54
 22
-1.10
 32
-2.98
 13
-2.54
 23
-1.10
 33
-2.98
  0
3DFACE
  8
0----
 10
-2.54
 20
-1.10
 30
-2.98
 11
-2.77
 21
-0.79
 31
-3.08
 12
-2.64
 22
-1.02
 32
-2.73
 13
-2.64
 23
-1.02
 33
-2.73
  0
3DFACE
  8
0----
 10
-2.64
 20
-1.02
 30
-2.73
 11
-2.61
 21
-1.09
 31
-2.62
 12
-2.54
 22
-1.17
 32
-2.81
 13
-2.54
 23
-1.17
 33
-2.81
  0
3DFACE
  8
0----
 10
-2.54
 20
-1.17
 30
-2.81
 11
-2.61
 21
-1.09
 31
-2.62
 12
-2.53
 22
-1.18
 32
-2.51
 13
-2.53
 23
-1.18
 33
-2.51
  0
3DFACE
  8
0----
 10
-2.46
 20
-0.98
 30
-4.14
 11
-2.50
 21
-0.65
 31
-3.93
 12
-2.58
 22
-0.90
 32
-3.78
 13
-2.58
 23
-0.90
 33
-3.78
  0
3DFACE
  8
0----
 10
-2.58
 20
-0.90
 30
-3.78
 11
-2.50
 21
-1.13
 31
-3.94
 12
-2.46
 22
-0.98
 32
-4.14
 13
-2.46
 23
-0.98
 33
-4.14
  0
3DFACE
  8
0----
 10
-2.46
 20
-0.98
 30
-4.14
 11
-2.50
 21
-1.13
 31
-3.94
 12
-2.39
 22
-1.14
 32
-4.21
 13
-2.39
 23
-1.14
 33
-4.21
  0
3DFACE
  8
0----
 10
-2.39
 20
-1.14
 30
-4.21
 11
-2.50
 21
-1.13
 31
-3.94
 12
-2.43
 22
-1.25
 32
-4.01
 13
-2.43
 23
-1.25
 33
-4.01
  0
3DFACE
  8
0----
 10
-2.43
 20
-1.25
 30
-4.01
 11
-2.50
 21
-1.13
 31
-3.94
 12
-2.51
 22
-1.22
 32
-3.78
 13
-2.51
 23
-1.22
 33
-3.78
  0
3DFACE
  8
0----
 10
-2.51
 20
-1.22
 30
-3.78
 11
-2.50
 21
-1.13
 31
-3.94
 12
-2.58
 22
-0.90
 32
-3.78
 13
-2.58
 23
-0.90
 33
-3.78
  0
3DFACE
  8
0----
 10
-2.58
 20
-0.90
 30
-3.78
 11
-2.59
 21
-1.02
 31
-3.62
 12
-2.51
 22
-1.22
 32
-3.78
 13
-2.51
 23
-1.22
 33
-3.78
  0
3DFACE
  8
0----
 10
-2.53
 20
-1.36
 30
-3.62
 11
-2.51
 21
-1.22
 31
-3.78
 12
-2.59
 22
-1.02
 32
-3.62
 13
-2.59
 23
-1.02
 33
-3.62
  0
3DFACE
  8
0----
 10
-2.59
 20
-1.02
 30
-3.62
 11
-2.58
 21
-1.22
 31
-3.48
 12
-2.53
 22
-1.36
 32
-3.62
 13
-2.53
 23
-1.36
 33
-3.62
  0
3DFACE
  8
0----
 10
-2.53
 20
-1.48
 30
-3.46
 11
-2.53
 21
-1.36
 31
-3.62
 12
-2.58
 22
-1.22
 32
-3.48
 13
-2.58
 23
-1.22
 33
-3.48
  0
3DFACE
  8
0----
 10
-2.58
 20
-1.22
 30
-3.48
 11
-2.55
 21
-1.35
 31
-3.37
 12
-2.53
 22
-1.48
 32
-3.46
 13
-2.53
 23
-1.48
 33
-3.46
  0
3DFACE
  8
0----
 10
-1.67
 20
-1.15
 30
-4.49
 11
-1.71
 21
-1.30
 31
-4.51
 12
-1.75
 22
-1.28
 32
-4.75
 13
-1.75
 23
-1.28
 33
-4.75
  0
3DFACE
  8
0----
 10
-1.75
 20
-1.28
 30
-4.75
 11
-1.71
 21
-1.17
 31
-4.75
 12
-1.67
 22
-1.15
 32
-4.49
 13
-1.67
 23
-1.15
 33
-4.49
  0
3DFACE
  8
0----
 10
-1.67
 20
-1.15
 30
-4.49
 11
-1.71
 21
-1.17
 31
-4.75
 12
-1.62
 22
-0.93
 32
-4.63
 13
-1.62
 23
-0.93
 33
-4.63
  0
3DFACE
  8
0----
 10
-1.62
 20
-0.93
 30
-4.63
 11
-1.63
 21
-0.94
 31
-4.44
 12
-1.67
 22
-1.15
 32
-4.49
 13
-1.67
 23
-1.15
 33
-4.49
  0
3DFACE
  8
0----
 10
-1.68
 20
-0.98
 30
-4.30
 11
-1.71
 21
-1.17
 31
-4.31
 12
-1.63
 22
-0.94
 32
-4.44
 13
-1.63
 23
-0.94
 33
-4.44
  0
3DFACE
  8
0----
 10
-1.67
 20
-1.15
 30
-4.49
 11
-1.63
 21
-0.94
 31
-4.44
 12
-1.71
 22
-1.17
 32
-4.31
 13
-1.71
 23
-1.17
 33
-4.31
  0
3DFACE
  8
0----
 10
-1.73
 20
-1.28
 30
-4.33
 11
-1.67
 21
-1.15
 31
-4.49
 12
-1.71
 22
-1.17
 32
-4.31
 13
-1.71
 23
-1.17
 33
-4.31
  0
3DFACE
  8
0----
 10
-1.73
 20
-1.28
 30
-4.33
 11
-1.71
 21
-1.30
 31
-4.51
 12
-1.67
 22
-1.15
 32
-4.49
 13
-1.67
 23
-1.15
 33
-4.49
  0
3DFACE
  8
0----
 10
-2.17
 20
-0.98
 30
-4.23
 11
-2.26
 21
-1.23
 31
-4.24
 12
-1.98
 22
-1.21
 32
-4.29
 13
-1.98
 23
-1.21
 33
-4.29
  0
3DFACE
  8
0----
 10
-2.26
 20
-1.23
 30
-4.24
 11
-2.12
 21
-1.39
 31
-4.29
 12
-1.98
 22
-1.21
 32
-4.29
 13
-1.98
 23
-1.21
 33
-4.29
  0
3DFACE
  8
0----
 10
-2.12
 20
-1.39
 30
-4.29
 11
-2.26
 21
-1.23
 31
-4.24
 12
-2.16
 22
-1.45
 32
-4.25
 13
-2.16
 23
-1.45
 33
-4.25
  0
3DFACE
  8
0----
 10
-2.16
 20
-1.45
 30
-4.25
 11
-2.26
 21
-1.23
 31
-4.24
 12
-2.35
 22
-1.30
 32
-4.19
 13
-2.35
 23
-1.30
 33
-4.19
  0
3DFACE
  8
0----
 10
-2.17
 20
-0.98
 30
-4.23
 11
-2.39
 21
-1.14
 31
-4.21
 12
-2.26
 22
-1.23
 32
-4.24
 13
-2.26
 23
-1.23
 33
-4.24
  0
3DFACE
  8
0----
 10
-2.26
 20
-1.23
 30
-4.24
 11
-2.39
 21
-1.14
 31
-4.21
 12
-2.35
 22
-1.30
 32
-4.19
 13
-2.35
 23
-1.30
 33
-4.19
  0
3DFACE
  8
0----
 10
-1.75
 20
-1.40
 30
-4.57
 11
-1.78
 21
-1.41
 31
-4.77
 12
-1.75
 22
-1.28
 32
-4.75
 13
-1.75
 23
-1.28
 33
-4.75
  0
3DFACE
  8
0----
 10
-1.75
 20
-1.28
 30
-4.75
 11
-1.71
 21
-1.30
 31
-4.51
 12
-1.75
 22
-1.40
 32
-4.57
 13
-1.75
 23
-1.40
 33
-4.57
  0
3DFACE
  8
0----
 10
-1.77
 20
-1.50
 30
-4.62
 11
-1.81
 21
-1.52
 31
-4.83
 12
-1.78
 22
-1.41
 32
-4.77
 13
-1.78
 23
-1.41
 33
-4.77
  0
3DFACE
  8
0----
 10
-1.78
 20
-1.41
 30
-4.77
 11
-1.75
 21
-1.40
 31
-4.57
 12
-1.77
 22
-1.50
 32
-4.62
 13
-1.77
 23
-1.50
 33
-4.62
  0
3DFACE
  8
0----
 10
-1.68
 20
-0.98
 30
-4.30
 11
-1.98
 21
-1.21
 31
-4.29
 12
-1.71
 22
-1.17
 32
-4.31
 13
-1.71
 23
-1.17
 33
-4.31
  0
3DFACE
  8
0----
 10
-1.73
 20
-1.28
 30
-4.33
 11
-1.71
 21
-1.17
 31
-4.31
 12
-1.98
 22
-1.21
 32
-4.29
 13
-1.98
 23
-1.21
 33
-4.29
  0
3DFACE
  8
0----
 10
-2.12
 20
-1.39
 30
-4.29
 11
-1.80
 21
-1.42
 31
-4.35
 12
-1.98
 22
-1.21
 32
-4.29
 13
-1.98
 23
-1.21
 33
-4.29
  0
3DFACE
  8
0----
 10
-1.98
 20
-1.21
 30
-4.29
 11
-1.80
 21
-1.42
 31
-4.35
 12
-1.73
 22
-1.28
 32
-4.33
 13
-1.73
 23
-1.28
 33
-4.33
  0
3DFACE
  8
0----
 10
-1.80
 20
-1.42
 30
-4.35
 11
-1.75
 21
-1.40
 31
-4.57
 12
-1.71
 22
-1.30
 32
-4.51
 13
-1.71
 23
-1.30
 33
-4.51
  0
3DFACE
  8
0----
 10
-1.71
 20
-1.30
 30
-4.51
 11
-1.73
 21
-1.28
 31
-4.33
 12
-1.80
 22
-1.42
 32
-4.35
 13
-1.80
 23
-1.42
 33
-4.35
  0
3DFACE
  8
0----
 10
-2.53
 20
-1.36
 30
-3.62
 11
-2.53
 21
-1.48
 31
-3.46
 12
-2.48
 22
-1.56
 32
-3.57
 13
-2.48
 23
-1.56
 33
-3.57
  0
3DFACE
  8
0----
 10
-2.48
 20
-1.56
 30
-3.57
 11
-2.44
 21
-1.43
 31
-3.72
 12
-2.53
 22
-1.36
 32
-3.62
 13
-2.53
 23
-1.36
 33
-3.62
  0
3DFACE
  8
0----
 10
-2.51
 20
-1.22
 30
-3.78
 11
-2.53
 21
-1.36
 31
-3.62
 12
-2.44
 22
-1.43
 32
-3.72
 13
-2.44
 23
-1.43
 33
-3.72
  0
3DFACE
  8
0----
 10
-2.44
 20
-1.43
 30
-3.72
 11
-2.44
 21
-1.33
 31
-3.87
 12
-2.51
 22
-1.22
 32
-3.78
 13
-2.51
 23
-1.22
 33
-3.78
  0
3DFACE
  8
0----
 10
-2.51
 20
-1.22
 30
-3.78
 11
-2.44
 21
-1.33
 31
-3.87
 12
-2.43
 22
-1.25
 32
-4.01
 13
-2.43
 23
-1.25
 33
-4.01
  0
3DFACE
  8
0----
 10
-2.43
 20
-1.25
 30
-4.01
 11
-2.38
 21
-1.31
 31
-4.08
 12
-2.39
 22
-1.14
 32
-4.21
 13
-2.39
 23
-1.14
 33
-4.21
  0
3DFACE
  8
0----
 10
-2.39
 20
-1.14
 30
-4.21
 11
-2.38
 21
-1.31
 31
-4.08
 12
-2.35
 22
-1.30
 32
-4.19
 13
-2.35
 23
-1.30
 33
-4.19
  0
3DFACE
  8
0----
 10
-2.20
 20
-1.46
 30
-4.16
 11
-2.16
 21
-1.45
 31
-4.25
 12
-2.35
 22
-1.30
 32
-4.19
 13
-2.35
 23
-1.30
 33
-4.19
  0
3DFACE
  8
0----
 10
-2.44
 20
-1.33
 30
-3.87
 11
-2.44
 21
-1.43
 31
-3.72
 12
-2.23
 22
-1.58
 32
-3.82
 13
-2.23
 23
-1.58
 33
-3.82
  0
3DFACE
  8
0----
 10
-2.23
 20
-1.58
 30
-3.82
 11
-2.28
 21
-1.47
 31
-3.94
 12
-2.44
 22
-1.33
 32
-3.87
 13
-2.44
 23
-1.33
 33
-3.87
  0
3DFACE
  8
0----
 10
-2.38
 20
-1.31
 30
-4.08
 11
-2.43
 21
-1.25
 31
-4.01
 12
-2.44
 22
-1.33
 32
-3.87
 13
-2.44
 23
-1.33
 33
-3.87
  0
3DFACE
  8
0----
 10
-2.44
 20
-1.33
 30
-3.87
 11
-2.28
 21
-1.47
 31
-3.94
 12
-2.38
 22
-1.31
 32
-4.08
 13
-2.38
 23
-1.31
 33
-4.08
  0
3DFACE
  8
0----
 10
-2.38
 20
-1.31
 30
-4.08
 11
-2.28
 21
-1.47
 31
-3.94
 12
-2.20
 22
-1.46
 32
-4.16
 13
-2.20
 23
-1.46
 33
-4.16
  0
3DFACE
  8
0----
 10
-2.35
 20
-1.30
 30
-4.19
 11
-2.38
 21
-1.31
 31
-4.08
 12
-2.20
 22
-1.46
 32
-4.16
 13
-2.20
 23
-1.46
 33
-4.16
  0
3DFACE
  8
0----
 10
-1.97
 20
-1.66
 30
-4.15
 11
-2.20
 21
-1.46
 31
-4.16
 12
-2.09
 22
-1.63
 32
-3.92
 13
-2.09
 23
-1.63
 33
-3.92
  0
3DFACE
  8
0----
 10
-2.09
 20
-1.63
 30
-3.92
 11
-2.20
 21
-1.46
 31
-4.16
 12
-2.28
 22
-1.47
 32
-3.94
 13
-2.28
 23
-1.47
 33
-3.94
  0
3DFACE
  8
0----
 10
-2.28
 20
-1.47
 30
-3.94
 11
-2.23
 21
-1.58
 31
-3.82
 12
-2.09
 22
-1.63
 32
-3.92
 13
-2.09
 23
-1.63
 33
-3.92
  0
3DFACE
  8
0----
 10
-1.80
 20
-1.42
 30
-4.35
 11
-2.12
 21
-1.39
 31
-4.29
 12
-2.16
 22
-1.45
 32
-4.25
 13
-2.16
 23
-1.45
 33
-4.25
  0
3DFACE
  8
0----
 10
-2.16
 20
-1.45
 30
-4.25
 11
-1.93
 21
-1.65
 31
-4.22
 12
-1.80
 22
-1.42
 32
-4.35
 13
-1.80
 23
-1.42
 33
-4.35
  0
3DFACE
  8
0----
 10
-1.93
 20
-1.65
 30
-4.22
 11
-2.16
 21
-1.45
 31
-4.25
 12
-2.20
 22
-1.46
 32
-4.16
 13
-2.20
 23
-1.46
 33
-4.16
  0
3DFACE
  8
0----
 10
-2.20
 20
-1.46
 30
-4.16
 11
-1.97
 21
-1.66
 31
-4.15
 12
-1.93
 22
-1.65
 32
-4.22
 13
-1.93
 23
-1.65
 33
-4.22
  0
3DFACE
  8
0----
 10
-1.93
 20
-1.65
 30
-4.22
 11
-1.97
 21
-1.66
 31
-4.15
 12
-1.87
 22
-1.76
 32
-4.14
 13
-1.87
 23
-1.76
 33
-4.14
  0
3DFACE
  8
0----
 10
-1.87
 20
-1.76
 30
-4.14
 11
-1.83
 21
-1.74
 31
-4.26
 12
-1.93
 22
-1.65
 32
-4.22
 13
-1.93
 23
-1.65
 33
-4.22
  0
3DFACE
  8
0----
 10
-1.86
 20
-1.65
 30
-4.34
 11
-1.80
 21
-1.42
 31
-4.35
 12
-1.93
 22
-1.65
 32
-4.22
 13
-1.93
 23
-1.65
 33
-4.22
  0
3DFACE
  8
0----
 10
-1.93
 20
-1.65
 30
-4.22
 11
-1.83
 21
-1.74
 31
-4.26
 12
-1.86
 22
-1.65
 32
-4.34
 13
-1.86
 23
-1.65
 33
-4.34
  0
3DFACE
  8
0----
 10
-1.86
 20
-1.65
 30
-4.34
 11
-1.83
 21
-1.74
 31
-4.26
 12
-1.82
 22
-1.67
 32
-4.44
 13
-1.82
 23
-1.67
 33
-4.44
  0
3DFACE
  8
0----
 10
-1.80
 20
-1.42
 30
-4.35
 11
-1.86
 21
-1.65
 31
-4.34
 12
-1.82
 22
-1.67
 32
-4.44
 13
-1.82
 23
-1.67
 33
-4.44
  0
3DFACE
  8
0----
 10
-1.77
 20
-1.52
 30
-4.48
 11
-1.77
 21
-1.50
 31
-4.62
 12
-1.75
 22
-1.40
 32
-4.57
 13
-1.75
 23
-1.40
 33
-4.57
  0
3DFACE
  8
0----
 10
-1.75
 20
-1.40
 30
-4.57
 11
-1.80
 21
-1.42
 31
-4.35
 12
-1.77
 22
-1.52
 32
-4.48
 13
-1.77
 23
-1.52
 33
-4.48
  0
3DFACE
  8
0----
 10
-1.77
 20
-1.52
 30
-4.48
 11
-1.80
 21
-1.42
 31
-4.35
 12
-1.82
 22
-1.67
 32
-4.44
 13
-1.82
 23
-1.67
 33
-4.44
  0
3DFACE
  8
0----
 10
-1.82
 20
-1.67
 30
-4.44
 11
-1.81
 21
-1.68
 31
-4.66
 12
-1.77
 22
-1.52
 32
-4.48
 13
-1.77
 23
-1.52
 33
-4.48
  0
3DFACE
  8
0----
 10
-1.77
 20
-1.52
 30
-4.48
 11
-1.81
 21
-1.68
 31
-4.66
 12
-1.77
 22
-1.50
 32
-4.62
 13
-1.77
 23
-1.50
 33
-4.62
  0
3DFACE
  8
0----
 10
-1.81
 20
-1.70
 30
-4.74
 11
-1.82
 21
-1.70
 31
-4.80
 12
-1.81
 22
-1.52
 32
-4.83
 13
-1.81
 23
-1.52
 33
-4.83
  0
3DFACE
  8
0----
 10
-1.81
 20
-1.52
 30
-4.83
 11
-1.77
 21
-1.50
 31
-4.62
 12
-1.81
 22
-1.70
 32
-4.74
 13
-1.81
 23
-1.70
 33
-4.74
  0
3DFACE
  8
0----
 10
-1.77
 20
-1.50
 30
-4.62
 11
-1.81
 21
-1.68
 31
-4.66
 12
-1.81
 22
-1.70
 32
-4.74
 13
-1.81
 23
-1.70
 33
-4.74
  0
3DFACE
  8
0----
 10
-2.53
 20
-1.18
 30
-2.51
 11
-2.47
 21
-1.31
 31
-2.88
 12
-2.54
 22
-1.17
 32
-2.81
 13
-2.54
 23
-1.17
 33
-2.81
  0
3DFACE
  8
0----
 10
-2.47
 20
-1.31
 30
-2.88
 11
-2.54
 21
-1.10
 31
-2.98
 12
-2.54
 22
-1.17
 32
-2.81
 13
-2.54
 23
-1.17
 33
-2.81
  0
3DFACE
  8
0----
 10
-2.50
 20
-1.36
 30
-3.14
 11
-2.55
 21
-1.27
 31
-3.28
 12
-2.54
 22
-1.10
 32
-2.98
 13
-2.54
 23
-1.10
 33
-2.98
  0
3DFACE
  8
0----
 10
-2.54
 20
-1.10
 30
-2.98
 11
-2.47
 21
-1.31
 31
-2.88
 12
-2.50
 22
-1.36
 32
-3.14
 13
-2.50
 23
-1.36
 33
-3.14
  0
3DFACE
  8
0----
 10
-2.43
 20
-1.60
 30
-3.47
 11
-2.48
 21
-1.56
 31
-3.57
 12
-2.53
 22
-1.48
 32
-3.46
 13
-2.53
 23
-1.48
 33
-3.46
  0
3DFACE
  8
0----
 10
-2.53
 20
-1.48
 30
-3.46
 11
-2.55
 21
-1.35
 31
-3.37
 12
-2.49
 22
-1.44
 32
-3.31
 13
-2.49
 23
-1.44
 33
-3.31
  0
3DFACE
  8
0----
 10
-2.55
 20
-1.35
 30
-3.37
 11
-2.55
 21
-1.27
 31
-3.28
 12
-2.49
 22
-1.44
 32
-3.31
 13
-2.49
 23
-1.44
 33
-3.31
  0
3DFACE
  8
0----
 10
-2.49
 20
-1.44
 30
-3.31
 11
-2.55
 21
-1.27
 31
-3.28
 12
-2.50
 22
-1.36
 32
-3.14
 13
-2.50
 23
-1.36
 33
-3.14
  0
3DFACE
  8
0----
 10
-2.53
 20
-1.48
 30
-3.46
 11
-2.49
 21
-1.44
 31
-3.31
 12
-2.43
 22
-1.60
 32
-3.47
 13
-2.43
 23
-1.60
 33
-3.47
  0
3DFACE
  8
0----
 10
-2.43
 20
-1.60
 30
-3.47
 11
-2.49
 21
-1.44
 31
-3.31
 12
-2.25
 22
-1.55
 32
-3.39
 13
-2.25
 23
-1.55
 33
-3.39
  0
3DFACE
  8
0----
 10
-2.32
 20
-1.40
 30
-3.14
 11
-2.50
 21
-1.36
 31
-3.14
 12
-2.47
 22
-1.31
 32
-2.88
 13
-2.47
 23
-1.31
 33
-2.88
  0
3DFACE
  8
0----
 10
-2.50
 20
-1.36
 30
-3.14
 11
-2.32
 21
-1.40
 31
-3.14
 12
-2.49
 22
-1.44
 32
-3.31
 13
-2.49
 23
-1.44
 33
-3.31
  0
3DFACE
  8
0----
 10
-2.25
 20
-1.55
 30
-3.39
 11
-2.49
 21
-1.44
 31
-3.31
 12
-2.32
 22
-1.40
 32
-3.14
 13
-2.32
 23
-1.40
 33
-3.14
  0
3DFACE
  8
0----
 10
-2.44
 20
-1.43
 30
-3.72
 11
-2.48
 21
-1.56
 31
-3.57
 12
-2.23
 22
-1.58
 32
-3.82
 13
-2.23
 23
-1.58
 33
-3.82
  0
3DFACE
  8
0----
 10
-2.23
 20
-1.58
 30
-3.82
 11
-2.48
 21
-1.56
 31
-3.57
 12
-2.25
 22
-1.75
 32
-3.64
 13
-2.25
 23
-1.75
 33
-3.64
  0
3DFACE
  8
0----
 10
-2.48
 20
-1.56
 30
-3.57
 11
-2.43
 21
-1.60
 31
-3.47
 12
-2.25
 22
-1.75
 32
-3.64
 13
-2.25
 23
-1.75
 33
-3.64
  0
3DFACE
  8
0----
 10
-2.25
 20
-1.75
 30
-3.64
 11
-2.43
 21
-1.60
 31
-3.47
 12
-2.24
 22
-1.76
 32
-3.54
 13
-2.24
 23
-1.76
 33
-3.54
  0
3DFACE
  8
0----
 10
-1.70
 20
-1.98
 30
-4.14
 11
-1.87
 21
-1.76
 31
-4.14
 12
-1.88
 22
-1.77
 32
-3.94
 13
-1.88
 23
-1.77
 33
-3.94
  0
3DFACE
  8
0----
 10
-1.70
 20
-1.98
 30
-4.14
 11
-1.83
 21
-1.74
 31
-4.26
 12
-1.87
 22
-1.76
 32
-4.14
 13
-1.87
 23
-1.76
 33
-4.14
  0
3DFACE
  8
0----
 10
-2.10
 20
-1.86
 30
-3.62
 11
-2.24
 21
-1.76
 31
-3.54
 12
-2.11
 22
-1.84
 32
-3.52
 13
-2.11
 23
-1.84
 33
-3.52
  0
3DFACE
  8
0----
 10
-2.10
 20
-1.86
 30
-3.62
 11
-2.11
 21
-1.84
 31
-3.52
 12
-1.96
 22
-1.91
 32
-3.46
 13
-1.96
 23
-1.91
 33
-3.46
  0
3DFACE
  8
0----
 10
-1.94
 20
-1.79
 30
-3.73
 11
-2.10
 21
-1.86
 31
-3.62
 12
-1.96
 22
-1.91
 32
-3.46
 13
-1.96
 23
-1.91
 33
-3.46
  0
3DFACE
  8
0----
 10
-2.24
 20
-1.76
 30
-3.54
 11
-2.10
 21
-1.86
 31
-3.62
 12
-2.25
 22
-1.75
 32
-3.64
 13
-2.25
 23
-1.75
 33
-3.64
  0
3DFACE
  8
0----
 10
-1.88
 20
-1.77
 30
-3.94
 11
-1.87
 21
-1.76
 31
-4.14
 12
-1.97
 22
-1.66
 32
-4.15
 13
-1.97
 23
-1.66
 33
-4.15
  0
3DFACE
  8
0----
 10
-1.97
 20
-1.66
 30
-4.15
 11
-2.09
 21
-1.63
 31
-3.92
 12
-1.88
 22
-1.77
 32
-3.94
 13
-1.88
 23
-1.77
 33
-3.94
  0
3DFACE
  8
0----
 10
-1.94
 20
-1.79
 30
-3.73
 11
-1.88
 21
-1.77
 31
-3.94
 12
-2.09
 22
-1.63
 32
-3.92
 13
-2.09
 23
-1.63
 33
-3.92
  0
3DFACE
  8
0----
 10
-2.09
 20
-1.63
 30
-3.92
 11
-2.23
 21
-1.58
 31
-3.82
 12
-1.94
 22
-1.79
 32
-3.73
 13
-1.94
 23
-1.79
 33
-3.73
  0
3DFACE
  8
0----
 10
-1.94
 20
-1.79
 30
-3.73
 11
-2.23
 21
-1.58
 31
-3.82
 12
-2.25
 22
-1.75
 32
-3.64
 13
-2.25
 23
-1.75
 33
-3.64
  0
3DFACE
  8
0----
 10
-2.25
 20
-1.75
 30
-3.64
 11
-2.10
 21
-1.86
 31
-3.62
 12
-1.94
 22
-1.79
 32
-3.73
 13
-1.94
 23
-1.79
 33
-3.73
  0
3DFACE
  8
0----
 10
-2.09
 20
-1.67
 30
-3.42
 11
-2.24
 21
-1.76
 31
-3.54
 12
-2.43
 22
-1.60
 32
-3.47
 13
-2.43
 23
-1.60
 33
-3.47
  0
3DFACE
  8
0----
 10
-2.43
 20
-1.60
 30
-3.47
 11
-2.25
 21
-1.55
 31
-3.39
 12
-2.09
 22
-1.67
 32
-3.42
 13
-2.09
 23
-1.67
 33
-3.42
  0
3DFACE
  8
0----
 10
-2.38
 20
-1.41
 30
-2.48
 11
-2.29
 21
-1.40
 31
-2.58
 12
-2.47
 22
-1.31
 32
-2.88
 13
-2.47
 23
-1.31
 33
-2.88
  0
3DFACE
  8
0----
 10
-1.90
 20
-1.78
 30
-3.37
 11
-2.09
 21
-1.67
 31
-3.42
 12
-2.16
 22
-1.56
 32
-3.34
 13
-2.16
 23
-1.56
 33
-3.34
  0
3DFACE
  8
0----
 10
-2.09
 20
-1.67
 30
-3.42
 11
-2.25
 21
-1.55
 31
-3.39
 12
-2.16
 22
-1.56
 32
-3.34
 13
-2.16
 23
-1.56
 33
-3.34
  0
3DFACE
  8
0----
 10
-2.16
 20
-1.56
 30
-3.34
 11
-2.25
 21
-1.55
 31
-3.39
 12
-2.32
 22
-1.40
 32
-3.14
 13
-2.32
 23
-1.40
 33
-3.14
  0
3DFACE
  8
0----
 10
-2.32
 20
-1.40
 30
-3.14
 11
-2.47
 21
-1.31
 31
-2.88
 12
-2.36
 22
-1.33
 32
-2.87
 13
-2.36
 23
-1.33
 33
-2.87
  0
3DFACE
  8
0----
 10
-2.36
 20
-1.33
 30
-2.87
 11
-2.47
 21
-1.31
 31
-2.88
 12
-2.29
 22
-1.40
 32
-2.58
 13
-2.29
 23
-1.40
 33
-2.58
  0
3DFACE
  8
0----
 10
-2.46
 20
-1.33
 30
-2.34
 11
-2.38
 21
-1.41
 31
-2.48
 12
-2.47
 22
-1.31
 32
-2.88
 13
-2.47
 23
-1.31
 33
-2.88
  0
3DFACE
  8
0----
 10
-2.47
 20
-1.31
 30
-2.88
 11
-2.53
 21
-1.18
 31
-2.51
 12
-2.46
 22
-1.33
 32
-2.34
 13
-2.46
 23
-1.33
 33
-2.34
  0
3DFACE
  8
0----
 10
-1.43
 20
-1.57
 30
-0.72
 11
-1.68
 21
-1.94
 31
-1.19
 12
-1.74
 22
-1.52
 32
-0.93
 13
-1.74
 23
-1.52
 33
-0.93
  0
3DFACE
  8
0----
 10
-2.16
 20
-0.92
 30
-1.62
 11
-2.35
 21
-1.21
 31
-2.14
 12
-2.46
 22
-0.98
 32
-2.35
 13
-2.46
 23
-0.98
 33
-2.35
  0
3DFACE
  8
0----
 10
-2.28
 20
-0.66
 30
-1.87
 11
-2.16
 21
-0.92
 31
-1.62
 12
-2.46
 22
-0.98
 32
-2.35
 13
-2.46
 23
-0.98
 33
-2.35
  0
3DFACE
  8
0----
 10
-2.28
 20
-0.66
 30
-1.87
 11
-2.04
 21
-0.32
 31
-1.25
 12
-2.16
 22
-0.92
 32
-1.62
 13
-2.16
 23
-0.92
 33
-1.62
  0
3DFACE
  8
0----
 10
-2.16
 20
-0.92
 30
-1.62
 11
-2.04
 21
-0.32
 31
-1.25
 12
-2.02
 22
-1.29
 32
-1.27
 13
-2.02
 23
-1.29
 33
-1.27
  0
3DFACE
  8
0----
 10
-2.02
 20
-1.29
 30
-1.27
 11
-2.11
 21
-1.39
 31
-1.70
 12
-2.16
 22
-0.92
 32
-1.62
 13
-2.16
 23
-0.92
 33
-1.62
  0
3DFACE
  8
0----
 10
-2.00
 20
-1.76
 30
-1.66
 11
-2.11
 21
-1.39
 31
-1.70
 12
-1.96
 22
-1.69
 32
-1.43
 13
-1.96
 23
-1.69
 33
-1.43
  0
3DFACE
  8
0----
 10
-2.11
 20
-1.39
 30
-1.70
 11
-2.02
 21
-1.29
 31
-1.27
 12
-1.96
 22
-1.69
 32
-1.43
 13
-1.96
 23
-1.69
 33
-1.43
  0
3DFACE
  8
0----
 10
-2.02
 20
-1.29
 30
-1.27
 11
-1.74
 21
-1.52
 31
-0.93
 12
-1.96
 22
-1.69
 32
-1.43
 13
-1.96
 23
-1.69
 33
-1.43
  0
3DFACE
  8
0----
 10
-1.74
 20
-1.52
 30
-0.93
 11
-1.68
 21
-1.94
 31
-1.19
 12
-1.96
 22
-1.69
 32
-1.43
 13
-1.96
 23
-1.69
 33
-1.43
  0
3DFACE
  8
0----
 10
-1.68
 20
-1.94
 30
-1.19
 11
-1.77
 21
-2.08
 31
-1.69
 12
-1.96
 22
-1.69
 32
-1.43
 13
-1.96
 23
-1.69
 33
-1.43
  0
3DFACE
  8
0----
 10
-1.77
 20
-2.08
 30
-1.69
 11
-2.00
 21
-1.76
 31
-1.66
 12
-1.96
 22
-1.69
 32
-1.43
 13
-1.96
 23
-1.69
 33
-1.43
  0
3DFACE
  8
0----
 10
-2.28
 20
-1.51
 30
-2.09
 11
-2.35
 21
-1.21
 31
-2.14
 12
-2.21
 22
-1.48
 32
-1.96
 13
-2.21
 23
-1.48
 33
-1.96
  0
3DFACE
  8
0----
 10
-2.11
 20
-1.39
 30
-1.70
 11
-2.21
 21
-1.48
 31
-1.96
 12
-2.16
 22
-0.92
 32
-1.62
 13
-2.16
 23
-0.92
 33
-1.62
  0
3DFACE
  8
0----
 10
-2.16
 20
-0.92
 30
-1.62
 11
-2.21
 21
-1.48
 31
-1.96
 12
-2.35
 22
-1.21
 32
-2.14
 13
-2.35
 23
-1.21
 33
-2.14
  0
3DFACE
  8
0----
 10
-2.46
 20
-1.33
 30
-2.34
 11
-2.42
 21
-1.25
 31
-2.24
 12
-2.44
 22
-1.33
 32
-2.25
 13
-2.44
 23
-1.33
 33
-2.25
  0
3DFACE
  8
0----
 10
-2.44
 20
-1.33
 30
-2.25
 11
-2.42
 21
-1.25
 31
-2.24
 12
-2.35
 22
-1.21
 32
-2.14
 13
-2.35
 23
-1.21
 33
-2.14
  0
3DFACE
  8
0----
 10
-2.42
 20
-1.25
 30
-2.24
 11
-2.46
 21
-1.33
 31
-2.34
 12
-2.53
 22
-1.18
 32
-2.51
 13
-2.53
 23
-1.18
 33
-2.51
  0
3DFACE
  8
0----
 10
-2.53
 20
-1.18
 30
-2.51
 11
-2.46
 21
-0.98
 31
-2.35
 12
-2.42
 22
-1.25
 32
-2.24
 13
-2.42
 23
-1.25
 33
-2.24
  0
3DFACE
  8
0----
 10
-2.42
 20
-1.25
 30
-2.24
 11
-2.46
 21
-0.98
 31
-2.35
 12
-2.35
 22
-1.21
 32
-2.14
 13
-2.35
 23
-1.21
 33
-2.14
  0
3DFACE
  8
0----
 10
-2.35
 20
-1.21
 30
-2.14
 11
-2.28
 21
-1.51
 31
-2.09
 12
-2.44
 22
-1.33
 32
-2.25
 13
-2.44
 23
-1.33
 33
-2.25
  0
3DFACE
  8
0----
 10
-2.44
 20
-1.33
 30
-2.25
 11
-2.28
 21
-1.51
 31
-2.09
 12
-2.36
 22
-1.59
 32
-2.31
 13
-2.36
 23
-1.59
 33
-2.31
  0
3DFACE
  8
0----
 10
-2.36
 20
-1.59
 30
-2.31
 11
-2.46
 21
-1.33
 31
-2.34
 12
-2.44
 22
-1.33
 32
-2.25
 13
-2.44
 23
-1.33
 33
-2.25
  0
3DFACE
  8
0----
 10
-2.38
 20
-1.41
 30
-2.48
 11
-2.46
 21
-1.33
 31
-2.34
 12
-2.36
 22
-1.59
 32
-2.31
 13
-2.36
 23
-1.59
 33
-2.31
  0
3DFACE
  8
0----
 10
-2.36
 20
-1.59
 30
-2.31
 11
-2.16
 21
-1.56
 31
-2.42
 12
-2.38
 22
-1.41
 32
-2.48
 13
-2.38
 23
-1.41
 33
-2.48
  0
3DFACE
  8
0----
 10
-2.38
 20
-1.41
 30
-2.48
 11
-2.16
 21
-1.56
 31
-2.42
 12
-2.29
 22
-1.40
 32
-2.58
 13
-2.29
 23
-1.40
 33
-2.58
  0
3DFACE
  8
0----
 10
-2.06
 20
-1.66
 30
-2.39
 11
-2.16
 21
-1.56
 31
-2.42
 12
-2.36
 22
-1.59
 32
-2.31
 13
-2.36
 23
-1.59
 33
-2.31
  0
3DFACE
  8
0----
 10
-2.36
 20
-1.59
 30
-2.31
 11
-2.19
 21
-1.88
 31
-2.34
 12
-2.06
 22
-1.66
 32
-2.39
 13
-2.06
 23
-1.66
 33
-2.39
  0
3DFACE
  8
0----
 10
-2.06
 20
-1.66
 30
-2.39
 11
-2.19
 21
-1.88
 31
-2.34
 12
-1.92
 22
-1.76
 32
-2.41
 13
-1.92
 23
-1.76
 33
-2.41
  0
3DFACE
  8
0----
 10
-1.76
 20
-1.84
 30
-2.48
 11
-1.92
 21
-1.76
 31
-2.41
 12
-2.19
 22
-1.88
 32
-2.34
 13
-2.19
 23
-1.88
 33
-2.34
  0
3DFACE
  8
0----
 10
-2.19
 20
-1.88
 30
-2.34
 11
-1.95
 21
-2.06
 31
-2.38
 12
-1.76
 22
-1.84
 32
-2.48
 13
-1.76
 23
-1.84
 33
-2.48
  0
3DFACE
  8
0----
 10
-1.61
 20
-1.87
 30
-2.56
 11
-1.76
 21
-1.84
 31
-2.48
 12
-1.95
 22
-2.06
 32
-2.38
 13
-1.95
 23
-2.06
 33
-2.38
  0
3DFACE
  8
0----
 10
-1.95
 20
-2.06
 30
-2.38
 11
-1.75
 21
-2.12
 31
-2.44
 12
-1.61
 22
-1.87
 32
-2.56
 13
-1.61
 23
-1.87
 33
-2.56
  0
3DFACE
  8
0----
 10
-1.58
 20
-2.13
 30
-2.55
 11
-1.51
 21
-1.86
 31
-2.63
 12
-1.61
 22
-1.87
 32
-2.56
 13
-1.61
 23
-1.87
 33
-2.56
  0
3DFACE
  8
0----
 10
-1.61
 20
-1.87
 30
-2.56
 11
-1.75
 21
-2.12
 31
-2.44
 12
-1.58
 22
-2.13
 32
-2.55
 13
-1.58
 23
-2.13
 33
-2.55
  0
3DFACE
  8
0----
 10
-2.11
 20
-1.84
 30
-3.52
 11
-2.24
 21
-1.76
 31
-3.54
 12
-2.09
 22
-1.67
 32
-3.42
 13
-2.09
 23
-1.67
 33
-3.42
  0
3DFACE
  8
0----
 10
-1.96
 20
-1.91
 30
-3.46
 11
-2.11
 21
-1.84
 31
-3.52
 12
-2.09
 22
-1.67
 32
-3.42
 13
-2.09
 23
-1.67
 33
-3.42
  0
3DFACE
  8
0----
 10
-2.09
 20
-1.67
 30
-3.42
 11
-1.90
 21
-1.78
 31
-3.37
 12
-1.96
 22
-1.91
 32
-3.46
 13
-1.96
 23
-1.91
 33
-3.46
  0
3DFACE
  8
0----
 10
-1.80
 20
-1.92
 30
-3.59
 11
-1.94
 21
-1.79
 31
-3.73
 12
-1.96
 22
-1.91
 32
-3.46
 13
-1.96
 23
-1.91
 33
-3.46
  0
3DFACE
  8
0----
 10
-1.75
 20
-1.97
 30
-3.48
 11
-1.96
 21
-1.91
 31
-3.46
 12
-1.75
 22
-1.96
 32
-3.32
 13
-1.75
 23
-1.96
 33
-3.32
  0
3DFACE
  8
0----
 10
-1.74
 20
-1.85
 30
-3.29
 11
-1.75
 21
-1.96
 31
-3.32
 12
-1.96
 22
-1.91
 32
-3.46
 13
-1.96
 23
-1.91
 33
-3.46
  0
3DFACE
  8
0----
 10
-1.96
 20
-1.91
 30
-3.46
 11
-1.90
 21
-1.78
 31
-3.37
 12
-1.74
 22
-1.85
 32
-3.29
 13
-1.74
 23
-1.85
 33
-3.29
  0
3DFACE
  8
0----
 10
-1.74
 20
-1.85
 30
-3.29
 11
-1.64
 21
-1.88
 31
-3.16
 12
-1.75
 22
-1.96
 32
-3.32
 13
-1.75
 23
-1.96
 33
-3.32
  0
3DFACE
  8
0----
 10
-1.75
 20
-1.96
 30
-3.32
 11
-1.64
 21
-1.88
 31
-3.16
 12
-1.60
 22
-2.00
 32
-3.15
 13
-1.60
 23
-2.00
 33
-3.15
  0
3DFACE
  8
0----
 10
-1.58
 20
-2.13
 30
-2.55
 11
-1.50
 21
-2.07
 31
-2.74
 12
-1.51
 22
-1.86
 32
-2.63
 13
-1.51
 23
-1.86
 33
-2.63
  0
3DFACE
  8
0----
 10
-1.51
 20
-1.86
 30
-2.63
 11
-1.50
 21
-2.07
 31
-2.74
 12
-1.50
 22
-1.89
 32
-2.81
 13
-1.50
 23
-1.89
 33
-2.81
  0
3DFACE
  8
0----
 10
-1.54
 20
-1.90
 30
-2.97
 11
-1.50
 21
-1.89
 31
-2.81
 12
-1.50
 22
-2.07
 32
-2.74
 13
-1.50
 23
-2.07
 33
-2.74
  0
3DFACE
  8
0----
 10
-1.50
 20
-2.07
 30
-2.74
 11
-1.50
 21
-2.04
 31
-2.93
 12
-1.54
 22
-1.90
 32
-2.97
 13
-1.54
 23
-1.90
 33
-2.97
  0
3DFACE
  8
0----
 10
-1.50
 20
-2.04
 30
-2.93
 11
-1.60
 21
-2.00
 31
-3.15
 12
-1.64
 22
-1.88
 32
-3.16
 13
-1.64
 23
-1.88
 33
-3.16
  0
3DFACE
  8
0----
 10
-1.64
 20
-1.88
 30
-3.16
 11
-1.54
 21
-1.90
 31
-2.97
 12
-1.50
 22
-2.04
 32
-2.93
 13
-1.50
 23
-2.04
 33
-2.93
  0
3DFACE
  8
0----
 10
-1.96
 20
-1.91
 30
-3.46
 11
-1.75
 21
-1.97
 31
-3.48
 12
-1.80
 22
-1.92
 32
-3.59
 13
-1.80
 23
-1.92
 33
-3.59
  0
3DFACE
  8
0----
 10
-1.75
 20
-1.97
 30
-3.48
 11
-1.75
 21
-1.96
 31
-3.32
 12
-1.60
 22
-2.07
 32
-3.41
 13
-1.60
 23
-2.07
 33
-3.41
  0
3DFACE
  8
0----
 10
-1.60
 20
-2.07
 30
-3.41
 11
-1.64
 21
-2.04
 31
-3.54
 12
-1.75
 22
-1.97
 32
-3.48
 13
-1.75
 23
-1.97
 33
-3.48
  0
3DFACE
  8
0----
 10
-1.75
 20
-1.97
 30
-3.48
 11
-1.64
 21
-2.04
 31
-3.54
 12
-1.80
 22
-1.92
 32
-3.59
 13
-1.80
 23
-1.92
 33
-3.59
  0
3DFACE
  8
0----
 10
-1.80
 20
-1.92
 30
-3.59
 11
-1.64
 21
-2.04
 31
-3.54
 12
-1.67
 22
-2.02
 32
-3.79
 13
-1.67
 23
-2.02
 33
-3.79
  0
3DFACE
  8
0----
 10
-1.67
 20
-2.02
 30
-3.79
 11
-1.76
 21
-1.89
 31
-3.75
 12
-1.80
 22
-1.92
 32
-3.59
 13
-1.80
 23
-1.92
 33
-3.59
  0
3DFACE
  8
0----
 10
-1.80
 20
-1.92
 30
-3.59
 11
-1.76
 21
-1.89
 31
-3.75
 12
-1.94
 22
-1.79
 32
-3.73
 13
-1.94
 23
-1.79
 33
-3.73
  0
3DFACE
  8
0----
 10
-1.94
 20
-1.79
 30
-3.73
 11
-1.76
 21
-1.89
 31
-3.75
 12
-1.88
 22
-1.77
 32
-3.94
 13
-1.88
 23
-1.77
 33
-3.94
  0
3DFACE
  8
0----
 10
-1.70
 20
-1.98
 30
-4.14
 11
-1.88
 21
-1.77
 31
-3.94
 12
-1.76
 22
-1.89
 32
-3.75
 13
-1.76
 23
-1.89
 33
-3.75
  0
3DFACE
  8
0----
 10
-1.76
 20
-1.89
 30
-3.75
 11
-1.67
 21
-2.02
 31
-3.79
 12
-1.70
 22
-1.98
 32
-4.14
 13
-1.70
 23
-1.98
 33
-4.14
  0
3DFACE
  8
0----
 10
-1.74
 20
-1.96
 30
-4.85
 11
-1.74
 21
-1.95
 31
-4.75
 12
-1.74
 22
-2.05
 32
-4.83
 13
-1.74
 23
-2.05
 33
-4.83
  0
3DFACE
  8
0----
 10
-1.78
 20
-1.87
 30
-4.83
 11
-1.78
 21
-1.88
 31
-4.75
 12
-1.74
 22
-1.95
 32
-4.75
 13
-1.74
 23
-1.95
 33
-4.75
  0
3DFACE
  8
0----
 10
-1.74
 20
-1.95
 30
-4.75
 11
-1.78
 21
-1.88
 31
-4.75
 12
-1.76
 22
-1.87
 32
-4.64
 13
-1.76
 23
-1.87
 33
-4.64
  0
3DFACE
  8
0----
 10
-1.78
 20
-1.88
 30
-4.75
 11
-1.78
 21
-1.78
 31
-4.74
 12
-1.76
 22
-1.87
 32
-4.64
 13
-1.76
 23
-1.87
 33
-4.64
  0
3DFACE
  8
0----
 10
-1.78
 20
-1.78
 30
-4.74
 11
-1.78
 21
-1.88
 31
-4.75
 12
-1.80
 22
-1.80
 32
-4.82
 13
-1.80
 23
-1.80
 33
-4.82
  0
3DFACE
  8
0----
 10
-1.80
 20
-1.80
 30
-4.82
 11
-1.78
 21
-1.88
 31
-4.75
 12
-1.78
 22
-1.87
 32
-4.83
 13
-1.78
 23
-1.87
 33
-4.83
  0
3DFACE
  8
0----
 10
-1.78
 20
-1.87
 30
-4.83
 11
-1.74
 21
-1.95
 31
-4.75
 12
-1.74
 22
-1.96
 32
-4.85
 13
-1.74
 23
-1.96
 33
-4.85
  0
3DFACE
  8
0----
 10
-1.77
 20
-1.80
 30
-4.63
 11
-1.81
 21
-1.68
 31
-4.66
 12
-1.73
 22
-1.81
 32
-4.46
 13
-1.73
 23
-1.81
 33
-4.46
  0
3DFACE
  8
0----
 10
-1.73
 20
-1.81
 30
-4.46
 11
-1.82
 21
-1.67
 31
-4.44
 12
-1.75
 22
-1.88
 32
-4.33
 13
-1.75
 23
-1.88
 33
-4.33
  0
3DFACE
  8
0----
 10
-1.71
 20
-1.92
 30
-4.50
 11
-1.75
 21
-1.88
 31
-4.33
 12
-1.69
 22
-1.96
 32
-4.36
 13
-1.69
 23
-1.96
 33
-4.36
  0
3DFACE
  8
0----
 10
-1.78
 20
-1.78
 30
-4.74
 11
-1.80
 21
-1.80
 31
-4.82
 12
-1.82
 22
-1.70
 32
-4.80
 13
-1.82
 23
-1.70
 33
-4.80
  0
3DFACE
  8
0----
 10
-1.82
 20
-1.70
 30
-4.80
 11
-1.81
 21
-1.70
 31
-4.74
 12
-1.78
 22
-1.78
 32
-4.74
 13
-1.78
 23
-1.78
 33
-4.74
  0
3DFACE
  8
0----
 10
-1.78
 20
-1.78
 30
-4.74
 11
-1.81
 21
-1.70
 31
-4.74
 12
-1.77
 22
-1.80
 32
-4.63
 13
-1.77
 23
-1.80
 33
-4.63
  0
3DFACE
  8
0----
 10
-1.77
 20
-1.80
 30
-4.63
 11
-1.81
 21
-1.70
 31
-4.74
 12
-1.81
 22
-1.68
 32
-4.66
 13
-1.81
 23
-1.68
 33
-4.66
  0
3DFACE
  8
0----
 10
-1.73
 20
-1.81
 30
-4.46
 11
-1.81
 21
-1.68
 31
-4.66
 12
-1.82
 22
-1.67
 32
-4.44
 13
-1.82
 23
-1.67
 33
-4.44
  0
3DFACE
  8
0----
 10
-1.82
 20
-1.67
 30
-4.44
 11
-1.83
 21
-1.74
 31
-4.26
 12
-1.75
 22
-1.88
 32
-4.33
 13
-1.75
 23
-1.88
 33
-4.33
  0
3DFACE
  8
0----
 10
-1.75
 20
-1.88
 30
-4.33
 11
-1.83
 21
-1.74
 31
-4.26
 12
-1.70
 22
-1.98
 32
-4.14
 13
-1.70
 23
-1.98
 33
-4.14
  0
3DFACE
  8
0----
 10
-1.70
 20
-1.98
 30
-4.14
 11
-1.69
 21
-1.96
 31
-4.36
 12
-1.75
 22
-1.88
 32
-4.33
 13
-1.75
 23
-1.88
 33
-4.33
  0
3DFACE
  8
0----
 10
-1.73
 20
-2.03
 30
-4.75
 11
-1.74
 21
-1.95
 31
-4.75
 12
-1.72
 22
-1.93
 32
-4.65
 13
-1.72
 23
-1.93
 33
-4.65
  0
3DFACE
  8
0----
 10
-1.72
 20
-1.99
 30
-4.65
 11
-1.72
 21
-1.93
 31
-4.65
 12
-1.71
 22
-1.92
 32
-4.50
 13
-1.71
 23
-1.92
 33
-4.50
  0
3DFACE
  8
0----
 10
-1.76
 20
-1.87
 30
-4.64
 11
-1.73
 21
-1.81
 31
-4.46
 12
-1.71
 22
-1.92
 32
-4.50
 13
-1.71
 23
-1.92
 33
-4.50
  0
3DFACE
  8
0----
 10
-1.78
 20
-1.78
 30
-4.74
 11
-1.77
 21
-1.80
 31
-4.63
 12
-1.76
 22
-1.87
 32
-4.64
 13
-1.76
 23
-1.87
 33
-4.64
  0
3DFACE
  8
0----
 10
-1.76
 20
-1.87
 30
-4.64
 11
-1.77
 21
-1.80
 31
-4.63
 12
-1.73
 22
-1.81
 32
-4.46
 13
-1.73
 23
-1.81
 33
-4.46
  0
3DFACE
  8
0----
 10
-1.73
 20
-1.81
 30
-4.46
 11
-1.75
 21
-1.88
 31
-4.33
 12
-1.71
 22
-1.92
 32
-4.50
 13
-1.71
 23
-1.92
 33
-4.50
  0
3DFACE
  8
0----
 10
-1.71
 20
-1.92
 30
-4.50
 11
-1.72
 21
-1.93
 31
-4.65
 12
-1.76
 22
-1.87
 32
-4.64
 13
-1.76
 23
-1.87
 33
-4.64
  0
3DFACE
  8
0----
 10
-1.76
 20
-1.87
 30
-4.64
 11
-1.72
 21
-1.93
 31
-4.65
 12
-1.74
 22
-1.95
 32
-4.75
 13
-1.74
 23
-1.95
 33
-4.75
  0
3DFACE
  8
0----
 10
-1.74
 20
-2.05
 30
-4.83
 11
-1.73
 21
-2.03
 31
-4.75
 12
-1.63
 22
-2.15
 32
-4.65
 13
-1.63
 23
-2.15
 33
-4.65
  0
3DFACE
  8
0----
 10
-1.67
 20
-2.19
 30
-4.84
 11
-1.63
 21
-2.15
 31
-4.65
 12
-1.60
 22
-2.25
 32
-4.67
 13
-1.60
 23
-2.25
 33
-4.67
  0
3DFACE
  8
0----
 10
-1.66
 20
-2.29
 30
-4.80
 11
-1.67
 21
-2.19
 31
-4.84
 12
-1.60
 22
-2.25
 32
-4.67
 13
-1.60
 23
-2.25
 33
-4.67
  0
3DFACE
  8
0----
 10
-1.74
 20
-1.95
 30
-4.75
 11
-1.73
 21
-2.03
 31
-4.75
 12
-1.74
 22
-2.05
 32
-4.83
 13
-1.74
 23
-2.05
 33
-4.83
  0
3DFACE
  8
0----
 10
-1.74
 20
-2.05
 30
-4.83
 11
-1.63
 21
-2.15
 31
-4.65
 12
-1.67
 22
-2.19
 32
-4.84
 13
-1.67
 23
-2.19
 33
-4.84
  0
3DFACE
  8
0----
 10
-1.72
 20
-1.93
 30
-4.65
 11
-1.72
 21
-1.99
 31
-4.65
 12
-1.73
 22
-2.03
 32
-4.75
 13
-1.73
 23
-2.03
 33
-4.75
  0
3DFACE
  8
0----
 10
-1.73
 20
-2.03
 30
-4.75
 11
-1.72
 21
-1.99
 31
-4.65
 12
-1.63
 22
-2.15
 32
-4.65
 13
-1.63
 23
-2.15
 33
-4.65
  0
3DFACE
  8
0----
 10
-1.64
 20
-2.07
 30
-4.53
 11
-1.68
 21
-1.99
 31
-4.52
 12
-1.69
 22
-1.96
 32
-4.36
 13
-1.69
 23
-1.96
 33
-4.36
  0
3DFACE
  8
0----
 10
-1.60
 20
-2.25
 30
-4.67
 11
-1.63
 21
-2.15
 31
-4.65
 12
-1.60
 22
-2.18
 32
-4.58
 13
-1.60
 23
-2.18
 33
-4.58
  0
3DFACE
  8
0----
 10
-1.63
 20
-2.15
 30
-4.65
 11
-1.64
 21
-2.07
 31
-4.53
 12
-1.60
 22
-2.18
 32
-4.58
 13
-1.60
 23
-2.18
 33
-4.58
  0
3DFACE
  8
0----
 10
-1.63
 20
-2.15
 30
-4.65
 11
-1.72
 21
-1.99
 31
-4.65
 12
-1.64
 22
-2.07
 32
-4.53
 13
-1.64
 23
-2.07
 33
-4.53
  0
3DFACE
  8
0----
 10
-1.64
 20
-2.07
 30
-4.53
 11
-1.72
 21
-1.99
 31
-4.65
 12
-1.68
 22
-1.99
 32
-4.52
 13
-1.68
 23
-1.99
 33
-4.52
  0
3DFACE
  8
0----
 10
-1.72
 20
-1.99
 30
-4.65
 11
-1.71
 21
-1.92
 31
-4.50
 12
-1.68
 22
-1.99
 32
-4.52
 13
-1.68
 23
-1.99
 33
-4.52
  0
3DFACE
  8
0----
 10
-1.68
 20
-1.99
 30
-4.52
 11
-1.71
 21
-1.92
 31
-4.50
 12
-1.69
 22
-1.96
 32
-4.36
 13
-1.69
 23
-1.96
 33
-4.36
  0
3DFACE
  8
0----
 10
-1.69
 20
-1.96
 30
-4.36
 11
-1.62
 21
-2.05
 31
-4.35
 12
-1.64
 22
-2.07
 32
-4.53
 13
-1.64
 23
-2.07
 33
-4.53
  0
3DFACE
  8
0----
 10
-1.64
 20
-2.07
 30
-4.53
 11
-1.62
 21
-2.05
 31
-4.35
 12
-1.60
 22
-2.21
 32
-4.33
 13
-1.60
 23
-2.21
 33
-4.33
  0
3DFACE
  8
0----
 10
-1.44
 20
-2.45
 30
-4.82
 11
-1.53
 21
-2.38
 31
-4.84
 12
-1.50
 22
-2.37
 32
-4.73
 13
-1.50
 23
-2.37
 33
-4.73
  0
3DFACE
  8
0----
 10
-1.44
 20
-2.45
 30
-4.82
 11
-1.50
 21
-2.37
 31
-4.73
 12
-1.42
 22
-2.41
 32
-4.69
 13
-1.42
 23
-2.41
 33
-4.69
  0
3DFACE
  8
0----
 10
-1.44
 20
-2.45
 30
-4.82
 11
-1.42
 21
-2.41
 31
-4.69
 12
-1.29
 22
-2.53
 32
-4.66
 13
-1.29
 23
-2.53
 33
-4.66
  0
3DFACE
  8
0----
 10
-1.44
 20
-2.45
 30
-4.82
 11
-1.29
 21
-2.53
 31
-4.66
 12
-1.32
 22
-2.55
 32
-4.81
 13
-1.32
 23
-2.55
 33
-4.81
  0
3DFACE
  8
0----
 10
-1.32
 20
-2.55
 30
-4.81
 11
-1.29
 21
-2.53
 31
-4.66
 12
-1.20
 22
-2.64
 32
-4.80
 13
-1.20
 23
-2.64
 33
-4.80
  0
3DFACE
  8
0----
 10
-1.20
 20
-2.64
 30
-4.80
 11
-1.29
 21
-2.53
 31
-4.66
 12
-1.20
 22
-2.64
 32
-4.64
 13
-1.20
 23
-2.64
 33
-4.64
  0
3DFACE
  8
0----
 10
-1.64
 20
-2.07
 30
-4.53
 11
-1.57
 21
-2.21
 31
-4.52
 12
-1.60
 22
-2.18
 32
-4.58
 13
-1.60
 23
-2.18
 33
-4.58
  0
3DFACE
  8
0----
 10
-1.64
 20
-2.07
 30
-4.53
 11
-1.60
 21
-2.21
 31
-4.33
 12
-1.57
 22
-2.21
 32
-4.52
 13
-1.57
 23
-2.21
 33
-4.52
  0
3DFACE
  8
0----
 10
-1.60
 20
-2.18
 30
-4.58
 11
-1.57
 21
-2.21
 31
-4.52
 12
-1.51
 22
-2.29
 32
-4.58
 13
-1.51
 23
-2.29
 33
-4.58
  0
3DFACE
  8
0----
 10
-1.54
 20
-2.28
 30
-4.67
 11
-1.60
 21
-2.25
 31
-4.67
 12
-1.51
 22
-2.29
 32
-4.58
 13
-1.51
 23
-2.29
 33
-4.58
  0
3DFACE
  8
0----
 10
-1.59
 20
-2.33
 30
-4.83
 11
-1.54
 21
-2.28
 31
-4.67
 12
-1.50
 22
-2.37
 32
-4.73
 13
-1.50
 23
-2.37
 33
-4.73
  0
3DFACE
  8
0----
 10
-1.50
 20
-2.37
 30
-4.73
 11
-1.54
 21
-2.28
 31
-4.67
 12
-1.51
 22
-2.29
 32
-4.58
 13
-1.51
 23
-2.29
 33
-4.58
  0
3DFACE
  8
0----
 10
-1.51
 20
-2.29
 30
-4.58
 11
-1.42
 21
-2.41
 31
-4.69
 12
-1.50
 22
-2.37
 32
-4.73
 13
-1.50
 23
-2.37
 33
-4.73
  0
3DFACE
  8
0----
 10
-1.50
 20
-2.37
 30
-4.73
 11
-1.53
 21
-2.38
 31
-4.84
 12
-1.59
 22
-2.33
 32
-4.83
 13
-1.59
 23
-2.33
 33
-4.83
  0
3DFACE
  8
0----
 10
-1.59
 20
-2.33
 30
-4.83
 11
-1.66
 21
-2.29
 31
-4.80
 12
-1.54
 22
-2.28
 32
-4.67
 13
-1.54
 23
-2.28
 33
-4.67
  0
3DFACE
  8
0----
 10
-1.54
 20
-2.28
 30
-4.67
 11
-1.66
 21
-2.29
 31
-4.80
 12
-1.60
 22
-2.25
 32
-4.67
 13
-1.60
 23
-2.25
 33
-4.67
  0
3DFACE
  8
0----
 10
-1.60
 20
-2.25
 30
-4.67
 11
-1.60
 21
-2.18
 31
-4.58
 12
-1.51
 22
-2.29
 32
-4.58
 13
-1.51
 23
-2.29
 33
-4.58
  0
3DFACE
  8
0----
 10
-1.54
 20
-2.31
 30
-4.42
 11
-1.51
 21
-2.29
 31
-4.58
 12
-1.57
 22
-2.21
 32
-4.52
 13
-1.57
 23
-2.21
 33
-4.52
  0
3DFACE
  8
0----
 10
-1.57
 20
-2.21
 30
-4.52
 11
-1.60
 21
-2.21
 31
-4.33
 12
-1.54
 22
-2.31
 32
-4.42
 13
-1.54
 23
-2.31
 33
-4.42
  0
3DFACE
  8
0----
 10
-1.29
 20
-2.53
 30
-4.66
 11
-1.42
 21
-2.41
 31
-4.69
 12
-1.31
 22
-2.52
 32
-4.55
 13
-1.31
 23
-2.52
 33
-4.55
  0
3DFACE
  8
0----
 10
-1.50
 20
-2.41
 30
-4.45
 11
-1.54
 21
-2.31
 31
-4.42
 12
-1.49
 22
-2.28
 32
-4.31
 13
-1.49
 23
-2.28
 33
-4.31
  0
3DFACE
  8
0----
 10
-1.60
 20
-2.21
 30
-4.33
 11
-1.49
 21
-2.28
 31
-4.31
 12
-1.54
 22
-2.31
 32
-4.42
 13
-1.54
 23
-2.31
 33
-4.42
  0
3DFACE
  8
0----
 10
-1.51
 20
-2.29
 30
-4.58
 11
-1.54
 21
-2.31
 31
-4.42
 12
-1.50
 22
-2.41
 32
-4.45
 13
-1.50
 23
-2.41
 33
-4.45
  0
3DFACE
  8
0----
 10
-1.31
 20
-2.52
 30
-4.55
 11
-1.42
 21
-2.41
 31
-4.69
 12
-1.51
 22
-2.29
 32
-4.58
 13
-1.51
 23
-2.29
 33
-4.58
  0
3DFACE
  8
0----
 10
-1.51
 20
-2.29
 30
-4.58
 11
-1.50
 21
-2.41
 31
-4.45
 12
-1.31
 22
-2.52
 32
-4.55
 13
-1.31
 23
-2.52
 33
-4.55
  0
3DFACE
  8
0----
 10
-1.31
 20
-2.52
 30
-4.55
 11
-1.50
 21
-2.41
 31
-4.45
 12
-1.40
 22
-2.52
 32
-4.43
 13
-1.40
 23
-2.52
 33
-4.43
  0
3DFACE
  8
0----
 10
-1.40
 20
-2.52
 30
-4.43
 11
-1.35
 21
-2.61
 31
-4.42
 12
-1.31
 22
-2.52
 32
-4.55
 13
-1.31
 23
-2.52
 33
-4.55
  0
3DFACE
  8
0----
 10
-1.21
 20
-2.65
 30
-4.55
 11
-1.20
 21
-2.64
 31
-4.64
 12
-1.29
 22
-2.53
 32
-4.66
 13
-1.29
 23
-2.53
 33
-4.66
  0
3DFACE
  8
0----
 10
-1.29
 20
-2.53
 30
-4.66
 11
-1.31
 21
-2.52
 31
-4.55
 12
-1.21
 22
-2.65
 32
-4.55
 13
-1.21
 23
-2.65
 33
-4.55
  0
3DFACE
  8
0----
 10
-1.22
 20
-2.68
 30
-4.44
 11
-1.21
 21
-2.65
 31
-4.55
 12
-1.31
 22
-2.52
 32
-4.55
 13
-1.31
 23
-2.52
 33
-4.55
  0
3DFACE
  8
0----
 10
-1.31
 20
-2.52
 30
-4.55
 11
-1.35
 21
-2.61
 31
-4.42
 12
-1.22
 22
-2.68
 32
-4.44
 13
-1.22
 23
-2.68
 33
-4.44
  0
3DFACE
  8
0----
 10
-1.60
 20
-2.21
 30
-4.33
 11
-1.62
 21
-2.05
 31
-4.35
 12
-1.57
 22
-2.12
 32
-4.24
 13
-1.57
 23
-2.12
 33
-4.24
  0
3DFACE
  8
0----
 10
-1.49
 20
-2.28
 30
-4.31
 11
-1.60
 21
-2.21
 31
-4.33
 12
-1.58
 22
-2.29
 32
-4.18
 13
-1.58
 23
-2.29
 33
-4.18
  0
3DFACE
  8
0----
 10
-1.58
 20
-2.29
 30
-4.18
 11
-1.60
 21
-2.38
 31
-3.94
 12
-1.54
 22
-2.39
 32
-3.93
 13
-1.54
 23
-2.39
 33
-3.93
  0
3DFACE
  8
0----
 10
-1.19
 20
-2.61
 30
-4.31
 11
-1.22
 21
-2.68
 31
-4.44
 12
-1.35
 22
-2.61
 32
-4.42
 13
-1.35
 23
-2.61
 33
-4.42
  0
3DFACE
  8
0----
 10
-1.25
 20
-2.50
 30
-4.28
 11
-1.19
 21
-2.61
 31
-4.31
 12
-1.35
 22
-2.61
 32
-4.42
 13
-1.35
 23
-2.61
 33
-4.42
  0
3DFACE
  8
0----
 10
-1.35
 20
-2.61
 30
-4.42
 11
-1.40
 21
-2.52
 31
-4.43
 12
-1.25
 22
-2.50
 32
-4.28
 13
-1.25
 23
-2.50
 33
-4.28
  0
3DFACE
  8
0----
 10
-1.25
 20
-2.50
 30
-4.28
 11
-1.40
 21
-2.52
 31
-4.43
 12
-1.36
 22
-2.37
 32
-4.28
 13
-1.36
 23
-2.37
 33
-4.28
  0
3DFACE
  8
0----
 10
-1.36
 20
-2.37
 30
-4.28
 11
-1.40
 21
-2.52
 31
-4.43
 12
-1.50
 22
-2.41
 32
-4.45
 13
-1.50
 23
-2.41
 33
-4.45
  0
3DFACE
  8
0----
 10
-1.50
 20
-2.41
 30
-4.45
 11
-1.49
 21
-2.28
 31
-4.31
 12
-1.36
 22
-2.37
 32
-4.28
 13
-1.36
 23
-2.37
 33
-4.28
  0
3DFACE
  8
0----
 10
-1.57
 20
-2.12
 30
-4.24
 11
-1.62
 21
-2.05
 31
-4.35
 12
-1.69
 22
-1.96
 32
-4.36
 13
-1.69
 23
-1.96
 33
-4.36
  0
3DFACE
  8
0----
 10
-1.69
 20
-1.96
 30
-4.36
 11
-1.70
 21
-1.98
 31
-4.14
 12
-1.57
 22
-2.12
 32
-4.24
 13
-1.57
 23
-2.12
 33
-4.24
  0
3DFACE
  8
0----
 10
-1.57
 20
-2.12
 30
-4.24
 11
-1.70
 21
-1.98
 31
-4.14
 12
-1.58
 22
-2.12
 32
-4.16
 13
-1.58
 23
-2.12
 33
-4.16
  0
3DFACE
  8
0----
 10
-1.58
 20
-2.29
 30
-4.18
 11
-1.60
 21
-2.21
 31
-4.33
 12
-1.57
 22
-2.12
 32
-4.24
 13
-1.57
 23
-2.12
 33
-4.24
  0
3DFACE
  8
0----
 10
-1.57
 20
-2.12
 30
-4.24
 11
-1.58
 21
-2.12
 31
-4.16
 12
-1.58
 22
-2.29
 32
-4.18
 13
-1.58
 23
-2.29
 33
-4.18
  0
3DFACE
  8
0----
 10
-1.58
 20
-2.29
 30
-4.18
 11
-1.58
 21
-2.12
 31
-4.16
 12
-1.60
 22
-2.38
 32
-3.94
 13
-1.60
 23
-2.38
 33
-3.94
  0
3DFACE
  8
0----
 10
-1.60
 20
-2.38
 30
-3.94
 11
-1.58
 21
-2.12
 31
-4.16
 12
-1.61
 22
-2.17
 32
-3.87
 13
-1.61
 23
-2.17
 33
-3.87
  0
3DFACE
  8
0----
 10
-1.61
 20
-2.17
 30
-3.87
 11
-1.58
 21
-2.12
 31
-4.16
 12
-1.70
 22
-1.98
 32
-4.14
 13
-1.70
 23
-1.98
 33
-4.14
  0
3DFACE
  8
0----
 10
-1.70
 20
-1.98
 30
-4.14
 11
-1.67
 21
-2.02
 31
-3.79
 12
-1.61
 22
-2.17
 32
-3.87
 13
-1.61
 23
-2.17
 33
-3.87
  0
3DFACE
  8
0----
 10
-1.61
 20
-2.17
 30
-3.87
 11
-1.67
 21
-2.02
 31
-3.79
 12
-1.56
 22
-2.26
 32
-3.61
 13
-1.56
 23
-2.26
 33
-3.61
  0
3DFACE
  8
0----
 10
-1.67
 20
-2.02
 30
-3.79
 11
-1.64
 21
-2.04
 31
-3.54
 12
-1.56
 22
-2.26
 32
-3.61
 13
-1.56
 23
-2.26
 33
-3.61
  0
3DFACE
  8
0----
 10
-1.56
 20
-2.26
 30
-3.61
 11
-1.64
 21
-2.04
 31
-3.54
 12
-1.60
 22
-2.07
 32
-3.41
 13
-1.60
 23
-2.07
 33
-3.41
  0
3DFACE
  8
0----
 10
-1.60
 20
-2.07
 30
-3.41
 11
-1.49
 21
-2.33
 31
-3.35
 12
-1.56
 22
-2.26
 32
-3.61
 13
-1.56
 23
-2.26
 33
-3.61
  0
3DFACE
  8
0----
 10
-1.55
 20
-2.35
 30
-3.60
 11
-1.56
 21
-2.26
 31
-3.61
 12
-1.49
 22
-2.33
 32
-3.35
 13
-1.49
 23
-2.33
 33
-3.35
  0
3DFACE
  8
0----
 10
-1.60
 20
-2.00
 30
-3.15
 11
-1.51
 21
-2.14
 31
-3.13
 12
-1.75
 22
-1.96
 32
-3.32
 13
-1.75
 23
-1.96
 33
-3.32
  0
3DFACE
  8
0----
 10
-1.60
 20
-2.07
 30
-3.41
 11
-1.75
 21
-1.96
 31
-3.32
 12
-1.51
 22
-2.14
 32
-3.13
 13
-1.51
 23
-2.14
 33
-3.13
  0
3DFACE
  8
0----
 10
-1.51
 20
-2.14
 30
-3.13
 11
-1.44
 21
-2.28
 31
-3.13
 12
-1.60
 22
-2.07
 32
-3.41
 13
-1.60
 23
-2.07
 33
-3.41
  0
3DFACE
  8
0----
 10
-1.51
 20
-2.14
 30
-3.13
 11
-1.45
 21
-2.18
 31
-3.02
 12
-1.44
 22
-2.28
 32
-3.13
 13
-1.44
 23
-2.28
 33
-3.13
  0
3DFACE
  8
0----
 10
-1.44
 20
-2.28
 30
-3.13
 11
-1.45
 21
-2.18
 31
-3.02
 12
-1.34
 22
-2.25
 32
-2.91
 13
-1.34
 23
-2.25
 33
-2.91
  0
3DFACE
  8
0----
 10
-1.34
 20
-2.25
 30
-2.91
 11
-1.39
 21
-2.34
 31
-3.09
 12
-1.44
 22
-2.28
 32
-3.13
 13
-1.44
 23
-2.28
 33
-3.13
  0
3DFACE
  8
0----
 10
-1.60
 20
-2.07
 30
-3.41
 11
-1.44
 21
-2.28
 31
-3.13
 12
-1.49
 22
-2.33
 32
-3.35
 13
-1.49
 23
-2.33
 33
-3.35
  0
3DFACE
  8
0----
 10
-1.49
 20
-2.33
 30
-3.35
 11
-1.44
 21
-2.28
 31
-3.13
 12
-1.39
 22
-2.34
 32
-3.09
 13
-1.39
 23
-2.34
 33
-3.09
  0
3DFACE
  8
0----
 10
-1.39
 20
-2.34
 30
-3.09
 11
-1.45
 21
-2.42
 31
-3.36
 12
-1.49
 22
-2.33
 32
-3.35
 13
-1.49
 23
-2.33
 33
-3.35
  0
3DFACE
  8
0----
 10
-1.47
 20
-2.43
 30
-3.43
 11
-1.49
 21
-2.33
 31
-3.35
 12
-1.45
 22
-2.42
 32
-3.36
 13
-1.45
 23
-2.42
 33
-3.36
  0
3DFACE
  8
0----
 10
-1.47
 20
-2.43
 30
-3.43
 11
-1.51
 21
-2.44
 31
-3.60
 12
-1.55
 22
-2.35
 32
-3.60
 13
-1.55
 23
-2.35
 33
-3.60
  0
3DFACE
  8
0----
 10
-1.55
 20
-2.35
 30
-3.60
 11
-1.49
 21
-2.33
 31
-3.35
 12
-1.47
 22
-2.43
 32
-3.43
 13
-1.47
 23
-2.43
 33
-3.43
  0
3DFACE
  8
0----
 10
-1.49
 20
-2.57
 30
-3.39
 11
-1.50
 21
-2.57
 31
-3.49
 12
-1.47
 22
-2.43
 32
-3.43
 13
-1.47
 23
-2.43
 33
-3.43
  0
3DFACE
  8
0----
 10
-1.47
 20
-2.43
 30
-3.43
 11
-1.50
 21
-2.57
 31
-3.49
 12
-1.51
 22
-2.44
 32
-3.60
 13
-1.51
 23
-2.44
 33
-3.60
  0
3DFACE
  8
0----
 10
-1.50
 20
-2.53
 30
-3.65
 11
-1.54
 21
-2.45
 31
-3.75
 12
-1.55
 22
-2.39
 32
-3.76
 13
-1.55
 23
-2.39
 33
-3.76
  0
3DFACE
  8
0----
 10
-1.54
 20
-2.45
 30
-3.75
 11
-1.54
 21
-2.39
 31
-3.93
 12
-1.55
 22
-2.39
 32
-3.76
 13
-1.55
 23
-2.39
 33
-3.76
  0
3DFACE
  8
0----
 10
-1.54
 20
-2.39
 30
-3.93
 11
-1.60
 21
-2.38
 31
-3.94
 12
-1.55
 22
-2.39
 32
-3.76
 13
-1.55
 23
-2.39
 33
-3.76
  0
3DFACE
  8
0----
 10
-1.60
 20
-2.38
 30
-3.94
 11
-1.61
 21
-2.17
 31
-3.87
 12
-1.55
 22
-2.39
 32
-3.76
 13
-1.55
 23
-2.39
 33
-3.76
  0
3DFACE
  8
0----
 10
-1.61
 20
-2.17
 30
-3.87
 11
-1.56
 21
-2.26
 31
-3.61
 12
-1.55
 22
-2.39
 32
-3.76
 13
-1.55
 23
-2.39
 33
-3.76
  0
3DFACE
  8
0----
 10
-1.56
 20
-2.26
 30
-3.61
 11
-1.55
 21
-2.35
 31
-3.60
 12
-1.55
 22
-2.39
 32
-3.76
 13
-1.55
 23
-2.39
 33
-3.76
  0
3DFACE
  8
0----
 10
-1.55
 20
-2.35
 30
-3.60
 11
-1.51
 21
-2.44
 31
-3.60
 12
-1.55
 22
-2.39
 32
-3.76
 13
-1.55
 23
-2.39
 33
-3.76
  0
3DFACE
  8
0----
 10
-1.51
 20
-2.44
 30
-3.60
 11
-1.50
 21
-2.53
 31
-3.65
 12
-1.55
 22
-2.39
 32
-3.76
 13
-1.55
 23
-2.39
 33
-3.76
  0
3DFACE
  8
0----
 10
-1.50
 20
-2.57
 30
-3.49
 11
-1.49
 21
-2.63
 31
-3.60
 12
-1.50
 22
-2.53
 32
-3.65
 13
-1.50
 23
-2.53
 33
-3.65
  0
3DFACE
  8
0----
 10
-1.50
 20
-2.53
 30
-3.65
 11
-1.51
 21
-2.44
 31
-3.60
 12
-1.50
 22
-2.57
 32
-3.49
 13
-1.50
 23
-2.57
 33
-3.49
  0
3DFACE
  8
0----
 10
-1.45
 20
-2.52
 30
-3.22
 11
-1.49
 21
-2.57
 31
-3.39
 12
-1.47
 22
-2.43
 32
-3.43
 13
-1.47
 23
-2.43
 33
-3.43
  0
3DFACE
  8
0----
 10
-1.47
 20
-2.43
 30
-3.43
 11
-1.45
 21
-2.42
 31
-3.36
 12
-1.45
 22
-2.52
 32
-3.22
 13
-1.45
 23
-2.52
 33
-3.22
  0
3DFACE
  8
0----
 10
-1.39
 20
-2.34
 30
-3.09
 11
-1.39
 21
-2.47
 31
-3.04
 12
-1.45
 22
-2.52
 32
-3.22
 13
-1.45
 23
-2.52
 33
-3.22
  0
3DFACE
  8
0----
 10
-1.45
 20
-2.52
 30
-3.22
 11
-1.45
 21
-2.42
 31
-3.36
 12
-1.39
 22
-2.34
 32
-3.09
 13
-1.39
 23
-2.34
 33
-3.09
  0
3DFACE
  8
0----
 10
-1.77
 20
-2.08
 30
-1.69
 11
-2.04
 21
-1.78
 31
-1.82
 12
-2.00
 22
-1.76
 32
-1.66
 13
-2.00
 23
-1.76
 33
-1.66
  0
3DFACE
  8
0----
 10
-2.00
 20
-1.76
 30
-1.66
 11
-2.04
 21
-1.78
 31
-1.82
 12
-2.11
 22
-1.39
 32
-1.70
 13
-2.11
 23
-1.39
 33
-1.70
  0
3DFACE
  8
0----
 10
-2.21
 20
-1.48
 30
-1.96
 11
-2.11
 21
-1.39
 31
-1.70
 12
-2.04
 22
-1.78
 32
-1.82
 13
-2.04
 23
-1.78
 33
-1.82
  0
3DFACE
  8
0----
 10
-2.04
 20
-1.78
 30
-1.82
 11
-2.12
 21
-1.90
 31
-2.09
 12
-2.21
 22
-1.48
 32
-1.96
 13
-2.21
 23
-1.48
 33
-1.96
  0
3DFACE
  8
0----
 10
-2.21
 20
-1.48
 30
-1.96
 11
-2.12
 21
-1.90
 31
-2.09
 12
-2.28
 22
-1.51
 32
-2.09
 13
-2.28
 23
-1.51
 33
-2.09
  0
3DFACE
  8
0----
 10
-2.28
 20
-1.51
 30
-2.09
 11
-2.12
 21
-1.90
 31
-2.09
 12
-2.36
 22
-1.59
 32
-2.31
 13
-2.36
 23
-1.59
 33
-2.31
  0
3DFACE
  8
0----
 10
-2.36
 20
-1.59
 30
-2.31
 11
-2.12
 21
-1.90
 31
-2.09
 12
-2.19
 22
-1.88
 32
-2.34
 13
-2.19
 23
-1.88
 33
-2.34
  0
3DFACE
  8
0----
 10
-2.19
 20
-1.88
 30
-2.34
 11
-2.12
 21
-1.90
 31
-2.09
 12
-2.06
 22
-2.03
 32
-2.21
 13
-2.06
 23
-2.03
 33
-2.21
  0
3DFACE
  8
0----
 10
-1.97
 20
-2.12
 30
-2.25
 11
-1.95
 21
-2.06
 31
-2.38
 12
-2.19
 22
-1.88
 32
-2.34
 13
-2.19
 23
-1.88
 33
-2.34
  0
3DFACE
  8
0----
 10
-2.19
 20
-1.88
 30
-2.34
 11
-2.06
 21
-2.03
 31
-2.21
 12
-1.97
 22
-2.12
 32
-2.25
 13
-1.97
 23
-2.12
 33
-2.25
  0
3DFACE
  8
0----
 10
-1.83
 20
-2.22
 30
-2.30
 11
-1.75
 21
-2.12
 31
-2.44
 12
-1.95
 22
-2.06
 32
-2.38
 13
-1.95
 23
-2.06
 33
-2.38
  0
3DFACE
  8
0----
 10
-1.95
 20
-2.06
 30
-2.38
 11
-1.97
 21
-2.12
 31
-2.25
 12
-1.83
 22
-2.22
 32
-2.30
 13
-1.83
 23
-2.22
 33
-2.30
  0
3DFACE
  8
0----
 10
-1.46
 20
-2.68
 30
-3.50
 11
-1.49
 21
-2.57
 31
-3.39
 12
-1.46
 22
-2.72
 32
-3.36
 13
-1.46
 23
-2.72
 33
-3.36
  0
3DFACE
  8
0----
 10
-1.49
 20
-2.63
 30
-3.60
 11
-1.50
 21
-2.57
 31
-3.49
 12
-1.46
 22
-2.68
 32
-3.50
 13
-1.46
 23
-2.68
 33
-3.50
  0
3DFACE
  8
0----
 10
-1.46
 20
-2.68
 30
-3.50
 11
-1.50
 21
-2.57
 31
-3.49
 12
-1.49
 22
-2.57
 32
-3.39
 13
-1.49
 23
-2.57
 33
-3.39
  0
3DFACE
  8
0----
 10
-1.51
 20
-2.14
 30
-3.13
 11
-1.60
 21
-2.00
 31
-3.15
 12
-1.45
 22
-2.18
 32
-3.02
 13
-1.45
 23
-2.18
 33
-3.02
  0
3DFACE
  8
0----
 10
-1.60
 20
-2.00
 30
-3.15
 11
-1.50
 21
-2.04
 31
-2.93
 12
-1.45
 22
-2.18
 32
-3.02
 13
-1.45
 23
-2.18
 33
-3.02
  0
3DFACE
  8
0----
 10
-1.50
 20
-2.04
 30
-2.93
 11
-1.34
 21
-2.25
 31
-2.91
 12
-1.45
 22
-2.18
 32
-3.02
 13
-1.45
 23
-2.18
 33
-3.02
  0
3DFACE
  8
0----
 10
-1.33
 20
-2.29
 30
-2.76
 11
-1.34
 21
-2.25
 31
-2.91
 12
-1.50
 22
-2.04
 32
-2.93
 13
-1.50
 23
-2.04
 33
-2.93
  0
3DFACE
  8
0----
 10
-1.50
 20
-2.04
 30
-2.93
 11
-1.50
 21
-2.07
 31
-2.74
 12
-1.33
 22
-2.29
 32
-2.76
 13
-1.33
 23
-2.29
 33
-2.76
  0
3DFACE
  8
0----
 10
-1.49
 20
-2.57
 30
-3.39
 11
-1.45
 21
-2.70
 31
-3.26
 12
-1.46
 22
-2.72
 32
-3.36
 13
-1.46
 23
-2.72
 33
-3.36
  0
3DFACE
  8
0----
 10
-1.39
 20
-2.47
 30
-3.04
 11
-1.39
 21
-2.34
 31
-3.09
 12
-1.34
 22
-2.45
 32
-2.90
 13
-1.34
 23
-2.45
 33
-2.90
  0
3DFACE
  8
0----
 10
-1.34
 20
-2.45
 30
-2.90
 11
-1.39
 21
-2.34
 31
-3.09
 12
-1.34
 22
-2.25
 32
-2.91
 13
-1.34
 23
-2.25
 33
-2.91
  0
3DFACE
  8
0----
 10
-1.34
 20
-2.25
 30
-2.91
 11
-1.33
 21
-2.29
 31
-2.76
 12
-1.34
 22
-2.45
 32
-2.90
 13
-1.34
 23
-2.45
 33
-2.90
  0
3DFACE
  8
0----
 10
-1.34
 20
-2.45
 30
-2.90
 11
-1.33
 21
-2.29
 31
-2.76
 12
-1.35
 22
-2.35
 32
-2.60
 13
-1.35
 23
-2.35
 33
-2.60
  0
3DFACE
  8
0----
 10
-1.35
 20
-2.35
 30
-2.60
 11
-1.33
 21
-2.29
 31
-2.76
 12
-1.50
 22
-2.07
 32
-2.74
 13
-1.50
 23
-2.07
 33
-2.74
  0
3DFACE
  8
0----
 10
-1.50
 20
-2.07
 30
-2.74
 11
-1.58
 21
-2.13
 31
-2.55
 12
-1.35
 22
-2.35
 32
-2.60
 13
-1.35
 23
-2.35
 33
-2.60
  0
3DFACE
  8
0----
 10
-1.42
 20
-2.64
 30
-3.13
 11
-1.45
 21
-2.70
 31
-3.26
 12
-1.49
 22
-2.57
 32
-3.39
 13
-1.49
 23
-2.57
 33
-3.39
  0
3DFACE
  8
0----
 10
-1.49
 20
-2.57
 30
-3.39
 11
-1.45
 21
-2.52
 31
-3.22
 12
-1.42
 22
-2.64
 32
-3.13
 13
-1.42
 23
-2.64
 33
-3.13
  0
3DFACE
  8
0----
 10
-1.39
 20
-2.56
 30
-3.01
 11
-1.42
 21
-2.64
 31
-3.13
 12
-1.45
 22
-2.52
 32
-3.22
 13
-1.45
 23
-2.52
 33
-3.22
  0
3DFACE
  8
0----
 10
-1.45
 20
-2.52
 30
-3.22
 11
-1.39
 21
-2.47
 31
-3.04
 12
-1.39
 22
-2.56
 32
-3.01
 13
-1.39
 23
-2.56
 33
-3.01
  0
3DFACE
  8
0----
 10
-1.36
 20
-2.51
 30
-2.92
 11
-1.39
 21
-2.56
 31
-3.01
 12
-1.39
 22
-2.47
 32
-3.04
 13
-1.39
 23
-2.47
 33
-3.04
  0
3DFACE
  8
0----
 10
-1.39
 20
-2.47
 30
-3.04
 11
-1.34
 21
-2.45
 31
-2.90
 12
-1.36
 22
-2.51
 32
-2.92
 13
-1.36
 23
-2.51
 33
-2.92
  0
3DFACE
  8
0----
 10
-1.29
 20
-2.47
 30
-2.77
 11
-1.36
 21
-2.51
 31
-2.92
 12
-1.34
 22
-2.45
 32
-2.90
 13
-1.34
 23
-2.45
 33
-2.90
  0
3DFACE
  8
0----
 10
-1.34
 20
-2.45
 30
-2.90
 11
-1.35
 21
-2.35
 31
-2.60
 12
-1.29
 22
-2.47
 32
-2.77
 13
-1.29
 23
-2.47
 33
-2.77
  0
3DFACE
  8
0----
 10
-1.46
 20
-2.72
 30
-3.36
 11
-1.37
 21
-2.70
 31
-3.43
 12
-1.46
 22
-2.68
 32
-3.50
 13
-1.46
 23
-2.68
 33
-3.50
  0
3DFACE
  8
0----
 10
-1.42
 20
-2.64
 30
-3.13
 11
-1.39
 21
-2.56
 31
-3.01
 12
-1.37
 22
-2.68
 32
-3.10
 13
-1.37
 23
-2.68
 33
-3.10
  0
3DFACE
  8
0----
 10
-1.46
 20
-2.72
 30
-3.36
 11
-1.45
 21
-2.70
 31
-3.26
 12
-1.40
 22
-2.76
 32
-3.21
 13
-1.40
 23
-2.76
 33
-3.21
  0
3DFACE
  8
0----
 10
-1.39
 20
-2.81
 30
-3.32
 11
-1.46
 21
-2.72
 31
-3.36
 12
-1.40
 22
-2.76
 32
-3.21
 13
-1.40
 23
-2.76
 33
-3.21
  0
3DFACE
  8
0----
 10
-1.29
 20
-2.86
 30
-3.17
 11
-1.40
 21
-2.76
 31
-3.21
 12
-1.26
 22
-2.80
 32
-3.07
 13
-1.26
 23
-2.80
 33
-3.07
  0
3DFACE
  8
0----
 10
-1.26
 20
-2.80
 30
-3.07
 11
-1.37
 21
-2.68
 31
-3.10
 12
-1.24
 22
-2.74
 32
-2.95
 13
-1.24
 23
-2.74
 33
-2.95
  0
3DFACE
  8
0----
 10
-1.46
 20
-2.72
 30
-3.36
 11
-1.39
 21
-2.81
 31
-3.32
 12
-1.37
 22
-2.70
 32
-3.43
 13
-1.37
 23
-2.70
 33
-3.43
  0
3DFACE
  8
0----
 10
-1.30
 20
-2.75
 30
-3.42
 11
-1.37
 21
-2.70
 31
-3.43
 12
-1.39
 22
-2.81
 32
-3.32
 13
-1.39
 23
-2.81
 33
-3.32
  0
3DFACE
  8
0----
 10
-1.31
 20
-2.91
 30
-3.29
 11
-1.28
 21
-2.83
 31
-3.44
 12
-1.30
 22
-2.75
 32
-3.42
 13
-1.30
 23
-2.75
 33
-3.42
  0
3DFACE
  8
0----
 10
-1.30
 20
-2.75
 30
-3.42
 11
-1.39
 21
-2.81
 31
-3.32
 12
-1.31
 22
-2.91
 32
-3.29
 13
-1.31
 23
-2.91
 33
-3.29
  0
3DFACE
  8
0----
 10
-1.40
 20
-2.76
 30
-3.21
 11
-1.29
 21
-2.86
 31
-3.17
 12
-1.31
 22
-2.91
 32
-3.29
 13
-1.31
 23
-2.91
 33
-3.29
  0
3DFACE
  8
0----
 10
-1.31
 20
-2.91
 30
-3.29
 11
-1.39
 21
-2.81
 31
-3.32
 12
-1.40
 22
-2.76
 32
-3.21
 13
-1.40
 23
-2.76
 33
-3.21
  0
3DFACE
  8
0----
 10
-1.40
 20
-2.76
 30
-3.21
 11
-1.37
 21
-2.68
 31
-3.10
 12
-1.26
 22
-2.80
 32
-3.07
 13
-1.26
 23
-2.80
 33
-3.07
  0
3DFACE
  8
0----
 10
-1.24
 20
-2.74
 30
-2.95
 11
-1.39
 21
-2.56
 31
-3.01
 12
-1.36
 22
-2.51
 32
-2.92
 13
-1.36
 23
-2.51
 33
-2.92
  0
3DFACE
  8
0----
 10
-1.37
 20
-2.68
 30
-3.10
 11
-1.40
 21
-2.76
 31
-3.21
 12
-1.45
 22
-2.70
 32
-3.26
 13
-1.45
 23
-2.70
 33
-3.26
  0
3DFACE
  8
0----
 10
-1.45
 20
-2.70
 30
-3.26
 11
-1.42
 21
-2.64
 31
-3.13
 12
-1.37
 22
-2.68
 32
-3.10
 13
-1.37
 23
-2.68
 33
-3.10
  0
3DFACE
  8
0----
 10
-1.37
 20
-2.68
 30
-3.10
 11
-1.39
 21
-2.56
 31
-3.01
 12
-1.24
 22
-2.74
 32
-2.95
 13
-1.24
 23
-2.74
 33
-2.95
  0
3DFACE
  8
0----
 10
-1.56
 20
-2.48
 30
-2.24
 11
-1.46
 21
-2.43
 31
-2.43
 12
-1.60
 22
-2.26
 32
-2.42
 13
-1.60
 23
-2.26
 33
-2.42
  0
3DFACE
  8
0----
 10
-1.46
 20
-2.43
 30
-2.43
 11
-1.35
 21
-2.35
 31
-2.60
 12
-1.60
 22
-2.26
 32
-2.42
 13
-1.60
 23
-2.26
 33
-2.42
  0
3DFACE
  8
0----
 10
-1.35
 20
-2.35
 30
-2.60
 11
-1.58
 21
-2.13
 31
-2.55
 12
-1.60
 22
-2.26
 32
-2.42
 13
-1.60
 23
-2.26
 33
-2.42
  0
3DFACE
  8
0----
 10
-1.58
 20
-2.13
 30
-2.55
 11
-1.75
 21
-2.12
 31
-2.44
 12
-1.60
 22
-2.26
 32
-2.42
 13
-1.60
 23
-2.26
 33
-2.42
  0
3DFACE
  8
0----
 10
-1.75
 20
-2.12
 30
-2.44
 11
-1.83
 21
-2.22
 31
-2.30
 12
-1.60
 22
-2.26
 32
-2.42
 13
-1.60
 23
-2.26
 33
-2.42
  0
3DFACE
  8
0----
 10
-1.83
 20
-2.22
 30
-2.30
 11
-1.56
 21
-2.48
 31
-2.24
 12
-1.60
 22
-2.26
 32
-2.42
 13
-1.60
 23
-2.26
 33
-2.42
  0
3DFACE
  8
0----
 10
-1.18
 20
-2.62
 30
-2.18
 11
-1.35
 21
-2.35
 31
-2.60
 12
-1.46
 22
-2.43
 32
-2.43
 13
-1.46
 23
-2.43
 33
-2.43
  0
3DFACE
  8
0----
 10
-1.46
 20
-2.43
 30
-2.43
 11
-1.56
 21
-2.48
 31
-2.24
 12
-1.18
 22
-2.62
 32
-2.18
 13
-1.18
 23
-2.62
 33
-2.18
  0
3DFACE
  8
0----
 10
-1.24
 20
-2.74
 30
-2.95
 11
-1.36
 21
-2.51
 31
-2.92
 12
-1.29
 22
-2.47
 32
-2.77
 13
-1.29
 23
-2.47
 33
-2.77
  0
3DFACE
  8
0----
 10
-1.17
 20
-2.59
 30
-2.58
 11
-1.24
 21
-2.74
 31
-2.95
 12
-1.29
 22
-2.47
 32
-2.77
 13
-1.29
 23
-2.47
 33
-2.77
  0
3DFACE
  8
0----
 10
-1.29
 20
-2.47
 30
-2.77
 11
-1.35
 21
-2.35
 31
-2.60
 12
-1.17
 22
-2.59
 32
-2.58
 13
-1.17
 23
-2.59
 33
-2.58
  0
3DFACE
  8
0----
 10
-1.17
 20
-2.59
 30
-2.58
 11
-1.35
 21
-2.35
 31
-2.60
 12
-1.18
 22
-2.62
 32
-2.18
 13
-1.18
 23
-2.62
 33
-2.18
  0
3DFACE
  8
0----
 10
-1.56
 20
-2.48
 30
-2.24
 11
-1.83
 21
-2.22
 31
-2.30
 12
-1.89
 22
-2.25
 32
-2.02
 13
-1.89
 23
-2.25
 33
-2.02
  0
3DFACE
  8
0----
 10
-1.89
 20
-2.25
 30
-2.02
 11
-1.83
 21
-2.22
 31
-2.30
 12
-1.97
 22
-2.12
 32
-2.25
 13
-1.97
 23
-2.12
 33
-2.25
  0
3DFACE
  8
0----
 10
-1.97
 20
-2.12
 30
-2.25
 11
-2.06
 21
-2.03
 31
-2.21
 12
-1.89
 22
-2.25
 32
-2.02
 13
-1.89
 23
-2.25
 33
-2.02
  0
3DFACE
  8
0----
 10
-1.89
 20
-2.25
 30
-2.02
 11
-2.06
 21
-2.03
 31
-2.21
 12
-2.12
 22
-1.90
 32
-2.09
 13
-2.12
 23
-1.90
 33
-2.09
  0
3DFACE
  8
0----
 10
-2.12
 20
-1.90
 30
-2.09
 11
-2.04
 21
-1.78
 31
-1.82
 12
-1.89
 22
-2.25
 32
-2.02
 13
-1.89
 23
-2.25
 33
-2.02
  0
3DFACE
  8
0----
 10
-1.89
 20
-2.25
 30
-2.02
 11
-2.04
 21
-1.78
 31
-1.82
 12
-1.77
 22
-2.08
 32
-1.69
 13
-1.77
 23
-2.08
 33
-1.69
  0
3DFACE
  8
0----
 10
-1.51
 20
-2.30
 30
-1.76
 11
-1.12
 21
-2.49
 31
-1.81
 12
-1.18
 22
-2.62
 32
-2.18
 13
-1.18
 23
-2.62
 33
-2.18
  0
3DFACE
  8
0----
 10
-1.18
 20
-2.62
 30
-2.18
 11
-1.56
 21
-2.48
 31
-2.24
 12
-1.51
 22
-2.30
 32
-1.76
 13
-1.51
 23
-2.30
 33
-1.76
  0
3DFACE
  8
0----
 10
-1.51
 20
-2.30
 30
-1.76
 11
-1.56
 21
-2.48
 31
-2.24
 12
-1.89
 22
-2.25
 32
-2.02
 13
-1.89
 23
-2.25
 33
-2.02
  0
3DFACE
  8
0----
 10
-1.89
 20
-2.25
 30
-2.02
 11
-1.77
 21
-2.08
 31
-1.69
 12
-1.51
 22
-2.30
 32
-1.76
 13
-1.51
 23
-2.30
 33
-1.76
  0
3DFACE
  8
0----
 10
-1.37
 20
-2.10
 30
-1.19
 11
-1.02
 21
-2.29
 31
-1.21
 12
-1.12
 22
-2.49
 32
-1.81
 13
-1.12
 23
-2.49
 33
-1.81
  0
3DFACE
  8
0----
 10
-1.12
 20
-2.49
 30
-1.81
 11
-1.51
 21
-2.30
 31
-1.76
 12
-1.37
 22
-2.10
 32
-1.19
 13
-1.37
 23
-2.10
 33
-1.19
  0
3DFACE
  8
0----
 10
-1.37
 20
-2.10
 30
-1.19
 11
-1.51
 21
-2.30
 31
-1.76
 12
-1.77
 22
-2.08
 32
-1.69
 13
-1.77
 23
-2.08
 33
-1.69
  0
3DFACE
  8
0----
 10
-1.77
 20
-2.08
 30
-1.69
 11
-1.68
 21
-1.94
 31
-1.19
 12
-1.37
 22
-2.10
 32
-1.19
 13
-1.37
 23
-2.10
 33
-1.19
  0
3DFACE
  8
0----
 10
-0.65
 20
-1.46
 30
-0.42
 11
-1.03
 21
-1.09
 31
-0.41
 12
-0.40
 22
-0.90
 32
-0.21
 13
-0.40
 23
-0.90
 33
-0.21
  0
3DFACE
  8
0----
 10
-0.40
 20
-0.90
 30
-0.21
 11
-0.49
 21
-0.50
 31
-0.15
 12
-0.30
 22
-0.68
 32
-0.14
 13
-0.30
 23
-0.68
 33
-0.14
  0
3DFACE
  8
0----
 10
-1.37
 20
-2.10
 30
-1.19
 11
-1.68
 21
-1.94
 31
-1.19
 12
-1.43
 22
-1.57
 32
-0.72
 13
-1.43
 23
-1.57
 33
-0.72
  0
3DFACE
  8
0----
 10
-0.93
 20
-2.08
 30
-0.85
 11
-1.02
 21
-2.29
 31
-1.21
 12
-1.37
 22
-2.10
 32
-1.19
 13
-1.37
 23
-2.10
 33
-1.19
  0
3DFACE
  8
0----
 10
-1.37
 20
-2.10
 30
-1.19
 11
-1.43
 21
-1.57
 31
-0.72
 12
-0.93
 22
-2.08
 32
-0.85
 13
-0.93
 23
-2.08
 33
-0.85
  0
3DFACE
  8
0----
 10
-0.78
 20
-1.75
 30
-0.57
 11
-0.93
 21
-2.08
 31
-0.85
 12
-1.43
 22
-1.57
 32
-0.72
 13
-1.43
 23
-1.57
 33
-0.72
  0
3DFACE
  8
0----
 10
-1.43
 20
-1.57
 30
-0.72
 11
-1.17
 21
-1.28
 31
-0.50
 12
-0.78
 22
-1.75
 32
-0.57
 13
-0.78
 23
-1.75
 33
-0.57
  0
3DFACE
  8
0----
 10
-0.65
 20
-1.46
 30
-0.42
 11
-0.78
 21
-1.75
 31
-0.57
 12
-1.17
 22
-1.28
 32
-0.50
 13
-1.17
 23
-1.28
 33
-0.50
  0
3DFACE
  8
0----
 10
-1.17
 20
-1.28
 30
-0.50
 11
-1.03
 21
-1.09
 31
-0.41
 12
-0.65
 22
-1.46
 32
-0.42
 13
-0.65
 23
-1.46
 33
-0.42
  0
3DFACE
  8
0----
 10
-1.03
 20
-1.09
 30
-0.41
 11
-0.66
 21
-0.70
 31
-0.23
 12
-0.40
 22
-0.90
 32
-0.21
 13
-0.40
 23
-0.90
 33
-0.21
  0
3DFACE
  8
0----
 10
-0.40
 20
-0.90
 30
-0.21
 11
-0.66
 21
-0.70
 31
-0.23
 12
-0.49
 22
-0.50
 32
-0.15
 13
-0.49
 23
-0.50
 33
-0.15
  0
3DFACE
  8
0----
 10
-0.24
 20
-0.54
 30
-0.10
 11
-0.30
 21
-0.68
 31
-0.14
 12
-0.49
 22
-0.50
 32
-0.15
 13
-0.49
 23
-0.50
 33
-0.15
  0
3DFACE
  8
0----
 10
-0.49
 20
-0.50
 30
-0.15
 11
-0.38
 21
-0.41
 31
-0.11
 12
-0.24
 22
-0.54
 32
-0.10
 13
-0.24
 23
-0.54
 33
-0.10
  0
3DFACE
  8
0----
 10
-0.24
 20
-0.54
 30
-0.10
 11
-0.38
 21
-0.41
 31
-0.11
 12
-0.01
 22
-0.02
 32
0.02
 13
-0.01
 23
-0.02
 33
0.02
  0
3DFACE
  8
0----
 10
-0.38
 20
-0.41
 30
-0.11
 11
-0.47
 21
-0.30
 31
-0.12
 12
-0.01
 22
-0.02
 32
0.02
 13
-0.01
 23
-0.02
 33
0.02
  0
3DFACE
  8
0----
 10
-0.47
 20
-0.30
 30
-0.12
 11
-0.49
 21
-0.10
 31
-0.10
 12
-0.01
 22
-0.02
 32
0.02
 13
-0.01
 23
-0.02
 33
0.02
  0
3DFACE
  8
0----
 10
-0.49
 20
-0.10
 30
-0.10
 11
-0.47
 21
0.02
 31
-0.08
 12
-0.01
 22
-0.02
 32
0.02
 13
-0.01
 23
-0.02
 33
0.02
  0
3DFACE
  8
0----
 10
-0.47
 20
0.02
 30
-0.08
 11
-0.42
 21
0.11
 31
-0.06
 12
-0.01
 22
-0.02
 32
0.02
 13
-0.01
 23
-0.02
 33
0.02
  0
3DFACE
  8
0----
 10
-0.42
 20
0.11
 30
-0.06
 11
-0.35
 21
0.23
 31
-0.04
 12
-0.01
 22
-0.02
 32
0.02
 13
-0.01
 23
-0.02
 33
0.02
  0
3DFACE
  8
0----
 10
-0.35
 20
0.23
 30
-0.04
 11
-0.29
 21
0.35
 31
-0.01
 12
-0.01
 22
-0.02
 32
0.02
 13
-0.01
 23
-0.02
 33
0.02
  0
3DFACE
  8
0----
 10
-0.29
 20
0.35
 30
-0.01
 11
-0.22
 21
0.44
 31
0.00
 12
-0.01
 22
-0.02
 32
0.02
 13
-0.01
 23
-0.02
 33
0.02
  0
3DFACE
  8
0----
 10
-0.22
 20
0.44
 30
0.00
 11
-0.14
 21
0.56
 31
0.01
 12
-0.01
 22
-0.02
 32
0.02
 13
-0.01
 23
-0.02
 33
0.02
  0
3DFACE
  8
0----
 10
-0.14
 20
0.56
 30
0.01
 11
-0.04
 21
0.66
 31
0.02
 12
-0.01
 22
-0.02
 32
0.02
 13
-0.01
 23
-0.02
 33
0.02
  0
3DFACE
  8
0----
 10
-0.04
 20
0.66
 30
0.02
 11
0.14
 21
0.65
 31
0.06
 12
-0.01
 22
-0.02
 32
0.02
 13
-0.01
 23
-0.02
 33
0.02
  0
3DFACE
  8
0----
 10
0.14
 20
0.65
 30
0.06
 11
0.30
 21
0.65
 31
0.08
 12
-0.01
 22
-0.02
 32
0.02
 13
-0.01
 23
-0.02
 33
0.02
  0
3DFACE
  8
0----
 10
0.65
 20
-2.70
 30
-2.90
 11
0.63
 21
-2.76
 31
-3.16
 12
0.48
 22
-2.65
 32
-3.16
 13
0.48
 23
-2.65
 33
-3.16
  0
3DFACE
  8
0----
 10
0.56
 20
-2.64
 30
-2.89
 11
0.65
 21
-2.70
 31
-2.90
 12
0.48
 22
-2.65
 32
-3.16
 13
0.48
 23
-2.65
 33
-3.16
  0
3DFACE
  8
0----
 10
0.79
 20
-2.67
 30
-2.53
 11
0.91
 21
-2.66
 31
-2.64
 12
0.80
 22
-2.66
 32
-2.83
 13
0.80
 23
-2.66
 33
-2.83
  0
3DFACE
  8
0----
 10
0.80
 20
-2.66
 30
-2.83
 11
0.65
 21
-2.70
 31
-2.90
 12
0.79
 22
-2.67
 32
-2.53
 13
0.79
 23
-2.67
 33
-2.53
  0
3DFACE
  8
0----
 10
0.98
 20
-2.64
 30
-2.75
 11
0.80
 21
-2.66
 31
-2.83
 12
0.91
 22
-2.66
 32
-2.64
 13
0.91
 23
-2.66
 33
-2.64
  0
3DFACE
  8
0----
 10
0.85
 20
-2.62
 30
-3.00
 11
0.80
 21
-2.66
 31
-2.83
 12
0.98
 22
-2.64
 32
-2.75
 13
0.98
 23
-2.64
 33
-2.75
  0
3DFACE
  8
0----
 10
0.85
 20
-2.62
 30
-3.00
 11
1.01
 21
-2.50
 31
-3.23
 12
0.73
 22
-2.74
 32
-3.30
 13
0.73
 23
-2.74
 33
-3.30
  0
3DFACE
  8
0----
 10
0.85
 20
-2.62
 30
-3.00
 11
0.73
 21
-2.74
 31
-3.30
 12
0.63
 22
-2.76
 32
-3.16
 13
0.63
 23
-2.76
 33
-3.16
  0
3DFACE
  8
0----
 10
0.85
 20
-2.62
 30
-3.00
 11
0.63
 21
-2.76
 31
-3.16
 12
0.65
 22
-2.70
 32
-2.90
 13
0.65
 23
-2.70
 33
-2.90
  0
3DFACE
  8
0----
 10
0.85
 20
-2.62
 30
-3.00
 11
0.65
 21
-2.70
 31
-2.90
 12
0.80
 22
-2.66
 32
-2.83
 13
0.80
 23
-2.66
 33
-2.83
  0
3DFACE
  8
0----
 10
1.24
 20
-2.58
 30
-3.10
 11
1.01
 21
-2.50
 31
-3.23
 12
0.85
 22
-2.62
 32
-3.00
 13
0.85
 23
-2.62
 33
-3.00
  0
3DFACE
  8
0----
 10
0.98
 20
-2.64
 30
-2.75
 11
1.24
 21
-2.58
 31
-3.10
 12
0.85
 22
-2.62
 32
-3.00
 13
0.85
 23
-2.62
 33
-3.00
  0
3DFACE
  8
0----
 10
1.12
 20
-2.48
 30
-2.71
 11
1.24
 21
-2.58
 31
-3.10
 12
0.98
 22
-2.64
 32
-2.75
 13
0.98
 23
-2.64
 33
-2.75
  0
3DFACE
  8
0----
 10
1.42
 20
-2.15
 30
-2.59
 11
1.24
 21
-2.58
 31
-3.10
 12
1.12
 22
-2.48
 32
-2.71
 13
1.12
 23
-2.48
 33
-2.71
  0
3DFACE
  8
0----
 10
1.42
 20
-2.15
 30
-2.59
 11
1.45
 21
-2.21
 31
-3.03
 12
1.24
 22
-2.58
 32
-3.10
 13
1.24
 23
-2.58
 33
-3.10
  0
3DFACE
  8
0----
 10
1.48
 20
-2.27
 30
-3.22
 11
1.24
 21
-2.58
 31
-3.10
 12
1.45
 22
-2.21
 32
-3.03
 13
1.45
 23
-2.21
 33
-3.03
  0
3DFACE
  8
0----
 10
1.24
 20
-2.23
 30
-3.36
 11
1.01
 21
-2.50
 31
-3.23
 12
1.24
 22
-2.58
 32
-3.10
 13
1.24
 23
-2.58
 33
-3.10
  0
3DFACE
  8
0----
 10
1.48
 20
-2.27
 30
-3.22
 11
1.24
 21
-2.23
 31
-3.36
 12
1.24
 22
-2.58
 32
-3.10
 13
1.24
 23
-2.58
 33
-3.10
  0
3DFACE
  8
0----
 10
1.60
 20
-1.92
 30
-3.31
 11
1.24
 21
-2.23
 31
-3.36
 12
1.48
 22
-2.27
 32
-3.22
 13
1.48
 23
-2.27
 33
-3.22
  0
3DFACE
  8
0----
 10
1.60
 20
-1.92
 30
-3.31
 11
1.41
 21
-1.95
 31
-3.62
 12
1.24
 22
-2.23
 32
-3.36
 13
1.24
 23
-2.23
 33
-3.36
  0
3DFACE
  8
0----
 10
1.41
 20
-1.95
 30
-3.62
 11
1.20
 21
-2.29
 31
-3.51
 12
1.24
 22
-2.23
 32
-3.36
 13
1.24
 23
-2.23
 33
-3.36
  0
3DFACE
  8
0----
 10
1.20
 20
-2.29
 30
-3.51
 11
1.22
 21
-2.32
 31
-3.74
 12
0.99
 22
-2.56
 32
-3.41
 13
0.99
 23
-2.56
 33
-3.41
  0
3DFACE
  8
0----
 10
1.13
 20
-2.36
 30
-3.39
 11
1.20
 21
-2.29
 31
-3.51
 12
0.99
 22
-2.56
 32
-3.41
 13
0.99
 23
-2.56
 33
-3.41
  0
3DFACE
  8
0----
 10
1.13
 20
-2.36
 30
-3.39
 11
1.24
 21
-2.23
 31
-3.36
 12
1.20
 22
-2.29
 32
-3.51
 13
1.20
 23
-2.29
 33
-3.51
  0
3DFACE
  8
0----
 10
1.01
 20
-2.50
 30
-3.23
 11
1.24
 21
-2.23
 31
-3.36
 12
1.13
 22
-2.36
 32
-3.39
 13
1.13
 23
-2.36
 33
-3.39
  0
3DFACE
  8
0----
 10
1.01
 20
-2.50
 30
-3.23
 11
1.13
 21
-2.36
 31
-3.39
 12
0.99
 22
-2.56
 32
-3.41
 13
0.99
 23
-2.56
 33
-3.41
  0
3DFACE
  8
0----
 10
0.73
 20
-2.74
 30
-3.30
 11
1.01
 21
-2.50
 31
-3.23
 12
0.99
 22
-2.56
 32
-3.41
 13
0.99
 23
-2.56
 33
-3.41
  0
3DFACE
  8
0----
 10
0.73
 20
-2.74
 30
-3.30
 11
0.99
 21
-2.56
 31
-3.41
 12
0.78
 22
-2.72
 32
-3.50
 13
0.78
 23
-2.72
 33
-3.50
  0
3DFACE
  8
0----
 10
0.94
 20
-2.60
 30
-3.64
 11
0.78
 21
-2.72
 31
-3.50
 12
0.99
 22
-2.56
 32
-3.41
 13
0.99
 23
-2.56
 33
-3.41
  0
3DFACE
  8
0----
 10
1.41
 20
-1.95
 30
-3.62
 11
1.22
 21
-2.32
 31
-3.74
 12
1.20
 22
-2.29
 32
-3.51
 13
1.20
 23
-2.29
 33
-3.51
  0
3DFACE
  8
0----
 10
1.22
 20
-2.32
 30
-3.74
 11
1.15
 21
-2.28
 31
-3.95
 12
1.02
 22
-2.51
 32
-3.80
 13
1.02
 23
-2.51
 33
-3.80
  0
3DFACE
  8
0----
 10
1.22
 20
-2.32
 30
-3.74
 11
1.02
 21
-2.51
 31
-3.80
 12
0.94
 22
-2.60
 32
-3.64
 13
0.94
 23
-2.60
 33
-3.64
  0
3DFACE
  8
0----
 10
0.99
 20
-2.56
 30
-3.41
 11
1.22
 21
-2.32
 31
-3.74
 12
0.94
 22
-2.60
 32
-3.64
 13
0.94
 23
-2.60
 33
-3.64
  0
3DFACE
  8
0----
 10
1.41
 20
-1.95
 30
-3.62
 11
1.15
 21
-2.28
 31
-3.95
 12
1.22
 22
-2.32
 32
-3.74
 13
1.22
 23
-2.32
 33
-3.74
  0
3DFACE
  8
0----
 10
1.04
 20
-2.12
 30
-3.96
 11
1.15
 21
-2.28
 31
-3.95
 12
1.41
 22
-1.95
 32
-3.62
 13
1.41
 23
-1.95
 33
-3.62
  0
3DFACE
  8
0----
 10
1.41
 20
-1.95
 30
-3.62
 11
0.90
 21
-1.93
 31
-3.92
 12
1.04
 22
-2.12
 32
-3.96
 13
1.04
 23
-2.12
 33
-3.96
  0
3DFACE
  8
0----
 10
0.90
 20
-1.93
 30
-3.92
 11
0.66
 21
-2.05
 31
-4.26
 12
1.04
 22
-2.12
 32
-3.96
 13
1.04
 23
-2.12
 33
-3.96
  0
3DFACE
  8
0----
 10
1.04
 20
-2.12
 30
-3.96
 11
0.66
 21
-2.05
 31
-4.26
 12
0.97
 22
-2.25
 32
-4.09
 13
0.97
 23
-2.25
 33
-4.09
  0
3DFACE
  8
0----
 10
1.15
 20
-2.28
 30
-3.95
 11
1.04
 21
-2.12
 31
-3.96
 12
0.97
 22
-2.25
 32
-4.09
 13
0.97
 23
-2.25
 33
-4.09
  0
3DFACE
  8
0----
 10
0.97
 20
-2.25
 30
-4.09
 11
0.66
 21
-2.05
 31
-4.26
 12
0.68
 22
-2.25
 32
-4.25
 13
0.68
 23
-2.25
 33
-4.25
  0
3DFACE
  8
0----
 10
0.97
 20
-2.25
 30
-4.09
 11
0.68
 21
-2.25
 31
-4.25
 12
0.87
 22
-2.47
 32
-4.16
 13
0.87
 23
-2.47
 33
-4.16
  0
3DFACE
  8
0----
 10
1.02
 20
-2.51
 30
-3.80
 11
1.15
 21
-2.28
 31
-3.95
 12
0.87
 22
-2.47
 32
-4.16
 13
0.87
 23
-2.47
 33
-4.16
  0
3DFACE
  8
0----
 10
1.02
 20
-2.51
 30
-3.80
 11
0.87
 21
-2.47
 31
-4.16
 12
0.79
 22
-2.60
 32
-3.96
 13
0.79
 23
-2.60
 33
-3.96
  0
3DFACE
  8
0----
 10
1.15
 20
-2.28
 30
-3.95
 11
0.97
 21
-2.25
 31
-4.09
 12
0.87
 22
-2.47
 32
-4.16
 13
0.87
 23
-2.47
 33
-4.16
  0
3DFACE
  8
0----
 10
0.87
 20
-2.47
 30
-4.16
 11
0.68
 21
-2.25
 31
-4.25
 12
0.71
 22
-2.52
 32
-4.23
 13
0.71
 23
-2.52
 33
-4.23
  0
3DFACE
  8
0----
 10
0.87
 20
-2.47
 30
-4.16
 11
0.71
 21
-2.52
 31
-4.23
 12
0.79
 22
-2.60
 32
-3.96
 13
0.79
 23
-2.60
 33
-3.96
  0
3DFACE
  8
0----
 10
0.79
 20
-2.60
 30
-3.96
 11
0.71
 21
-2.52
 31
-4.23
 12
0.66
 22
-2.63
 32
-4.03
 13
0.66
 23
-2.63
 33
-4.03
  0
3DFACE
  8
0----
 10
0.48
 20
-2.65
 30
-3.16
 11
0.56
 21
-2.81
 31
-3.33
 12
0.32
 22
-2.70
 32
-3.41
 13
0.32
 23
-2.70
 33
-3.41
  0
3DFACE
  8
0----
 10
0.48
 20
-2.65
 30
-3.16
 11
0.32
 21
-2.70
 31
-3.41
 12
0.25
 22
-2.64
 32
-3.35
 13
0.25
 23
-2.64
 33
-3.35
  0
3DFACE
  8
0----
 10
0.63
 20
-2.76
 30
-3.16
 11
0.56
 21
-2.81
 31
-3.33
 12
0.48
 22
-2.65
 32
-3.16
 13
0.48
 23
-2.65
 33
-3.16
  0
3DFACE
  8
0----
 10
0.63
 20
-2.76
 30
-3.16
 11
0.73
 21
-2.74
 31
-3.30
 12
0.56
 22
-2.81
 32
-3.33
 13
0.56
 23
-2.81
 33
-3.33
  0
3DFACE
  8
0----
 10
0.73
 20
-2.74
 30
-3.30
 11
0.67
 21
-2.79
 31
-3.39
 12
0.56
 22
-2.81
 32
-3.33
 13
0.56
 23
-2.81
 33
-3.33
  0
3DFACE
  8
0----
 10
0.56
 20
-2.81
 30
-3.33
 11
0.67
 21
-2.79
 31
-3.39
 12
0.56
 22
-2.86
 32
-3.48
 13
0.56
 23
-2.86
 33
-3.48
  0
3DFACE
  8
0----
 10
0.73
 20
-2.74
 30
-3.30
 11
0.78
 21
-2.72
 31
-3.50
 12
0.67
 22
-2.79
 32
-3.39
 13
0.67
 23
-2.79
 33
-3.39
  0
3DFACE
  8
0----
 10
0.67
 20
-2.79
 30
-3.39
 11
0.78
 21
-2.72
 31
-3.50
 12
0.56
 22
-2.86
 32
-3.48
 13
0.56
 23
-2.86
 33
-3.48
  0
3DFACE
  8
0----
 10
0.56
 20
-2.86
 30
-3.48
 11
0.78
 21
-2.72
 31
-3.50
 12
0.65
 22
-2.78
 32
-3.64
 13
0.65
 23
-2.78
 33
-3.64
  0
3DFACE
  8
0----
 10
0.78
 20
-2.72
 30
-3.50
 11
0.94
 21
-2.60
 31
-3.64
 12
0.65
 22
-2.78
 32
-3.64
 13
0.65
 23
-2.78
 33
-3.64
  0
3DFACE
  8
0----
 10
0.32
 20
-2.70
 30
-3.41
 11
0.56
 21
-2.81
 31
-3.33
 12
0.40
 22
-2.86
 32
-3.49
 13
0.40
 23
-2.86
 33
-3.49
  0
3DFACE
  8
0----
 10
0.56
 20
-2.81
 30
-3.33
 11
0.56
 21
-2.86
 31
-3.48
 12
0.40
 22
-2.86
 32
-3.49
 13
0.40
 23
-2.86
 33
-3.49
  0
3DFACE
  8
0----
 10
0.56
 20
-2.86
 30
-3.48
 11
0.46
 21
-2.88
 31
-3.59
 12
0.40
 22
-2.86
 32
-3.49
 13
0.40
 23
-2.86
 33
-3.49
  0
3DFACE
  8
0----
 10
0.40
 20
-2.86
 30
-3.49
 11
0.46
 21
-2.88
 31
-3.59
 12
0.17
 22
-2.83
 32
-3.65
 13
0.17
 23
-2.83
 33
-3.65
  0
3DFACE
  8
0----
 10
0.40
 20
-2.86
 30
-3.49
 11
0.17
 21
-2.83
 31
-3.65
 12
0.15
 22
-2.83
 32
-3.55
 13
0.15
 23
-2.83
 33
-3.55
  0
3DFACE
  8
0----
 10
0.12
 20
-2.66
 30
-3.43
 11
0.25
 21
-2.64
 31
-3.35
 12
0.32
 22
-2.70
 32
-3.41
 13
0.32
 23
-2.70
 33
-3.41
  0
3DFACE
  8
0----
 10
0.32
 20
-2.70
 30
-3.41
 11
0.15
 21
-2.83
 31
-3.55
 12
0.12
 22
-2.66
 32
-3.43
 13
0.12
 23
-2.66
 33
-3.43
  0
3DFACE
  8
0----
 10
0.32
 20
-2.70
 30
-3.41
 11
0.40
 21
-2.86
 31
-3.49
 12
0.15
 22
-2.83
 32
-3.55
 13
0.15
 23
-2.83
 33
-3.55
  0
3DFACE
  8
0----
 10
0.56
 20
-2.86
 30
-3.48
 11
0.65
 21
-2.78
 31
-3.64
 12
0.46
 22
-2.88
 32
-3.59
 13
0.46
 23
-2.88
 33
-3.59
  0
3DFACE
  8
0----
 10
0.53
 20
-2.76
 30
-3.74
 11
0.46
 21
-2.88
 31
-3.59
 12
0.65
 22
-2.78
 32
-3.64
 13
0.65
 23
-2.78
 33
-3.64
  0
3DFACE
  8
0----
 10
0.46
 20
-2.88
 30
-3.59
 11
0.53
 21
-2.76
 31
-3.74
 12
0.28
 22
-2.70
 32
-3.84
 13
0.28
 23
-2.70
 33
-3.84
  0
3DFACE
  8
0----
 10
0.46
 20
-2.88
 30
-3.59
 11
0.28
 21
-2.70
 31
-3.84
 12
0.17
 22
-2.83
 32
-3.65
 13
0.17
 23
-2.83
 33
-3.65
  0
3DFACE
  8
0----
 10
0.65
 20
-2.78
 30
-3.64
 11
0.73
 21
-2.67
 31
-3.80
 12
0.53
 22
-2.76
 32
-3.74
 13
0.53
 23
-2.76
 33
-3.74
  0
3DFACE
  8
0----
 10
0.65
 20
-2.78
 30
-3.64
 11
0.94
 21
-2.60
 31
-3.64
 12
0.73
 22
-2.67
 32
-3.80
 13
0.73
 23
-2.67
 33
-3.80
  0
3DFACE
  8
0----
 10
0.94
 20
-2.60
 30
-3.64
 11
1.02
 21
-2.51
 31
-3.80
 12
0.73
 22
-2.67
 32
-3.80
 13
0.73
 23
-2.67
 33
-3.80
  0
3DFACE
  8
0----
 10
0.79
 20
-2.60
 30
-3.96
 11
0.73
 21
-2.67
 31
-3.80
 12
1.02
 22
-2.51
 32
-3.80
 13
1.02
 23
-2.51
 33
-3.80
  0
3DFACE
  8
0----
 10
0.79
 20
-2.60
 30
-3.96
 11
0.66
 21
-2.63
 31
-4.03
 12
0.73
 22
-2.67
 32
-3.80
 13
0.73
 23
-2.67
 33
-3.80
  0
3DFACE
  8
0----
 10
0.73
 20
-2.67
 30
-3.80
 11
0.66
 21
-2.63
 31
-4.03
 12
0.60
 22
-2.69
 32
-3.89
 13
0.60
 23
-2.69
 33
-3.89
  0
3DFACE
  8
0----
 10
0.53
 20
-2.76
 30
-3.74
 11
0.73
 21
-2.67
 31
-3.80
 12
0.60
 22
-2.69
 32
-3.89
 13
0.60
 23
-2.69
 33
-3.89
  0
3DFACE
  8
0----
 10
0.60
 20
-2.69
 30
-3.89
 11
0.28
 21
-2.70
 31
-3.84
 12
0.53
 22
-2.76
 32
-3.74
 13
0.53
 23
-2.76
 33
-3.74
  0
3DFACE
  8
0----
 10
0.60
 20
-2.69
 30
-3.89
 11
0.39
 21
-2.66
 31
-3.96
 12
0.28
 22
-2.70
 32
-3.84
 13
0.28
 23
-2.70
 33
-3.84
  0
3DFACE
  8
0----
 10
0.60
 20
-2.69
 30
-3.89
 11
0.58
 21
-2.63
 31
-4.10
 12
0.39
 22
-2.66
 32
-3.96
 13
0.39
 23
-2.66
 33
-3.96
  0
3DFACE
  8
0----
 10
0.60
 20
-2.69
 30
-3.89
 11
0.66
 21
-2.63
 31
-4.03
 12
0.58
 22
-2.63
 32
-4.10
 13
0.58
 23
-2.63
 33
-4.10
  0
3DFACE
  8
0----
 10
0.68
 20
-2.25
 30
-4.25
 11
0.66
 21
-2.05
 31
-4.26
 12
0.38
 22
-2.27
 32
-4.30
 13
0.38
 23
-2.27
 33
-4.30
  0
3DFACE
  8
0----
 10
0.56
 20
-2.49
 30
-4.26
 11
0.68
 21
-2.25
 31
-4.25
 12
0.38
 22
-2.27
 32
-4.30
 13
0.38
 23
-2.27
 33
-4.30
  0
3DFACE
  8
0----
 10
0.56
 20
-2.49
 30
-4.26
 11
0.71
 21
-2.52
 31
-4.23
 12
0.68
 22
-2.25
 32
-4.25
 13
0.68
 23
-2.25
 33
-4.25
  0
3DFACE
  8
0----
 10
0.56
 20
-2.60
 30
-4.21
 11
0.71
 21
-2.52
 31
-4.23
 12
0.56
 22
-2.49
 32
-4.26
 13
0.56
 23
-2.49
 33
-4.26
  0
3DFACE
  8
0----
 10
0.58
 20
-2.63
 30
-4.10
 11
0.71
 21
-2.52
 31
-4.23
 12
0.56
 22
-2.60
 32
-4.21
 13
0.56
 23
-2.60
 33
-4.21
  0
3DFACE
  8
0----
 10
0.66
 20
-2.63
 30
-4.03
 11
0.71
 21
-2.52
 31
-4.23
 12
0.58
 22
-2.63
 32
-4.10
 13
0.58
 23
-2.63
 33
-4.10
  0
3DFACE
  8
0----
 10
0.66
 20
-2.05
 30
-4.26
 11
0.36
 21
-1.89
 31
-4.31
 12
0.38
 22
-2.27
 32
-4.30
 13
0.38
 23
-2.27
 33
-4.30
  0
3DFACE
  8
0----
 10
0.38
 20
-2.27
 30
-4.30
 11
0.36
 21
-1.89
 31
-4.31
 12
0.23
 22
-2.04
 32
-4.32
 13
0.23
 23
-2.04
 33
-4.32
  0
3DFACE
  8
0----
 10
0.38
 20
-2.27
 30
-4.30
 11
0.23
 21
-2.04
 31
-4.32
 12
0.16
 22
-2.13
 32
-4.34
 13
0.16
 23
-2.13
 33
-4.34
  0
3DFACE
  8
0----
 10
0.38
 20
-2.27
 30
-4.30
 11
0.16
 21
-2.13
 31
-4.34
 12
0.10
 22
-2.27
 32
-4.36
 13
0.10
 23
-2.27
 33
-4.36
  0
3DFACE
  8
0----
 10
0.38
 20
-2.27
 30
-4.30
 11
0.10
 21
-2.27
 31
-4.36
 12
0.34
 22
-2.49
 32
-4.31
 13
0.34
 23
-2.49
 33
-4.31
  0
3DFACE
  8
0----
 10
0.56
 20
-2.49
 30
-4.26
 11
0.38
 21
-2.27
 31
-4.30
 12
0.34
 22
-2.49
 32
-4.31
 13
0.34
 23
-2.49
 33
-4.31
  0
3DFACE
  8
0----
 10
0.34
 20
-2.60
 30
-4.18
 11
0.56
 21
-2.60
 31
-4.21
 12
0.33
 22
-2.56
 32
-4.27
 13
0.33
 23
-2.56
 33
-4.27
  0
3DFACE
  8
0----
 10
0.56
 20
-2.60
 30
-4.21
 11
0.56
 21
-2.49
 31
-4.26
 12
0.33
 22
-2.56
 32
-4.27
 13
0.33
 23
-2.56
 33
-4.27
  0
3DFACE
  8
0----
 10
0.34
 20
-2.49
 30
-4.31
 11
0.33
 21
-2.56
 31
-4.27
 12
0.56
 22
-2.49
 32
-4.26
 13
0.56
 23
-2.49
 33
-4.26
  0
3DFACE
  8
0----
 10
0.33
 20
-2.56
 30
-4.27
 11
0.34
 21
-2.49
 31
-4.31
 12
0.10
 22
-2.27
 32
-4.36
 13
0.10
 23
-2.27
 33
-4.36
  0
3DFACE
  8
0----
 10
0.39
 20
-2.66
 30
-3.96
 11
0.58
 21
-2.63
 31
-4.10
 12
0.34
 22
-2.60
 32
-4.18
 13
0.34
 23
-2.60
 33
-4.18
  0
3DFACE
  8
0----
 10
0.34
 20
-2.60
 30
-4.18
 11
0.58
 21
-2.63
 31
-4.10
 12
0.56
 22
-2.60
 32
-4.21
 13
0.56
 23
-2.60
 33
-4.21
  0
3DFACE
  8
0----
 10
0.39
 20
-2.66
 30
-3.96
 11
0.34
 21
-2.60
 31
-4.18
 12
0.04
 22
-2.56
 32
-4.16
 13
0.04
 23
-2.56
 33
-4.16
  0
3DFACE
  8
0----
 10
0.15
 20
-2.63
 30
-3.93
 11
0.39
 21
-2.66
 31
-3.96
 12
0.04
 22
-2.56
 32
-4.16
 13
0.04
 23
-2.56
 33
-4.16
  0
3DFACE
  8
0----
 10
0.17
 20
-2.83
 30
-3.65
 11
-0.07
 21
-2.63
 31
-3.74
 12
-0.02
 22
-2.79
 32
-3.63
 13
-0.02
 23
-2.79
 33
-3.63
  0
3DFACE
  8
0----
 10
0.28
 20
-2.70
 30
-3.84
 11
-0.07
 21
-2.63
 31
-3.74
 12
0.17
 22
-2.83
 32
-3.65
 13
0.17
 23
-2.83
 33
-3.65
  0
3DFACE
  8
0----
 10
0.28
 20
-2.70
 30
-3.84
 11
0.15
 21
-2.63
 31
-3.93
 12
-0.07
 22
-2.63
 32
-3.74
 13
-0.07
 23
-2.63
 33
-3.74
  0
3DFACE
  8
0----
 10
0.28
 20
-2.70
 30
-3.84
 11
0.39
 21
-2.66
 31
-3.96
 12
0.15
 22
-2.63
 32
-3.93
 13
0.15
 23
-2.63
 33
-3.93
  0
3DFACE
  8
0----
 10
-0.09
 20
-2.59
 30
-3.38
 11
0.12
 21
-2.66
 31
-3.43
 12
0.01
 22
-2.79
 32
-3.53
 13
0.01
 23
-2.79
 33
-3.53
  0
3DFACE
  8
0----
 10
-0.09
 20
-2.59
 30
-3.38
 11
0.01
 21
-2.79
 31
-3.53
 12
-0.14
 22
-2.72
 32
-3.47
 13
-0.14
 23
-2.72
 33
-3.47
  0
3DFACE
  8
0----
 10
-0.14
 20
-2.72
 30
-3.47
 11
0.01
 21
-2.79
 31
-3.53
 12
-0.02
 22
-2.79
 32
-3.63
 13
-0.02
 23
-2.79
 33
-3.63
  0
3DFACE
  8
0----
 10
-0.02
 20
-2.79
 30
-3.63
 11
-0.26
 21
-2.61
 31
-3.60
 12
-0.14
 22
-2.72
 32
-3.47
 13
-0.14
 23
-2.72
 33
-3.47
  0
3DFACE
  8
0----
 10
-0.02
 20
-2.79
 30
-3.63
 11
-0.07
 21
-2.63
 31
-3.74
 12
-0.26
 22
-2.61
 32
-3.60
 13
-0.26
 23
-2.61
 33
-3.60
  0
3DFACE
  8
0----
 10
0.12
 20
-2.66
 30
-3.43
 11
0.15
 21
-2.83
 31
-3.55
 12
0.01
 22
-2.79
 32
-3.53
 13
0.01
 23
-2.79
 33
-3.53
  0
3DFACE
  8
0----
 10
0.15
 20
-2.83
 30
-3.55
 11
-0.02
 21
-2.79
 31
-3.63
 12
0.01
 22
-2.79
 32
-3.53
 13
0.01
 23
-2.79
 33
-3.53
  0
3DFACE
  8
0----
 10
0.17
 20
-2.83
 30
-3.65
 11
-0.02
 21
-2.79
 31
-3.63
 12
0.15
 22
-2.83
 32
-3.55
 13
0.15
 23
-2.83
 33
-3.55
  0
3DFACE
  8
0----
 10
-0.24
 20
-2.52
 30
-3.30
 11
-0.09
 21
-2.59
 31
-3.38
 12
-0.14
 22
-2.72
 32
-3.47
 13
-0.14
 23
-2.72
 33
-3.47
  0
3DFACE
  8
0----
 10
-0.24
 20
-2.52
 30
-3.30
 11
-0.14
 21
-2.72
 31
-3.47
 12
-0.32
 22
-2.60
 32
-3.33
 13
-0.32
 23
-2.60
 33
-3.33
  0
3DFACE
  8
0----
 10
-0.14
 20
-2.72
 30
-3.47
 11
-0.26
 21
-2.61
 31
-3.60
 12
-0.33
 22
-2.61
 32
-3.49
 13
-0.33
 23
-2.61
 33
-3.49
  0
3DFACE
  8
0----
 10
-0.32
 20
-2.60
 30
-3.33
 11
-0.14
 21
-2.72
 31
-3.47
 12
-0.33
 22
-2.61
 32
-3.49
 13
-0.33
 23
-2.61
 33
-3.49
  0
3DFACE
  8
0----
 10
-0.33
 20
-2.61
 30
-3.49
 11
-0.26
 21
-2.61
 31
-3.60
 12
-0.46
 22
-2.57
 32
-3.55
 13
-0.46
 23
-2.57
 33
-3.55
  0
3DFACE
  8
0----
 10
-0.26
 20
-2.61
 30
-3.60
 11
-0.27
 21
-2.56
 31
-3.76
 12
-0.42
 22
-2.58
 32
-3.80
 13
-0.42
 23
-2.58
 33
-3.80
  0
3DFACE
  8
0----
 10
-0.46
 20
-2.57
 30
-3.55
 11
-0.26
 21
-2.61
 31
-3.60
 12
-0.42
 22
-2.58
 32
-3.80
 13
-0.42
 23
-2.58
 33
-3.80
  0
3DFACE
  8
0----
 10
-0.26
 20
-2.61
 30
-3.60
 11
-0.07
 21
-2.63
 31
-3.74
 12
-0.27
 22
-2.56
 32
-3.76
 13
-0.27
 23
-2.56
 33
-3.76
  0
3DFACE
  8
0----
 10
-0.07
 20
-2.63
 30
-3.74
 11
-0.10
 21
-2.57
 31
-3.95
 12
-0.27
 22
-2.56
 32
-3.76
 13
-0.27
 23
-2.56
 33
-3.76
  0
3DFACE
  8
0----
 10
-0.27
 20
-2.56
 30
-3.76
 11
-0.10
 21
-2.57
 31
-3.95
 12
-0.38
 22
-2.57
 32
-4.15
 13
-0.38
 23
-2.57
 33
-4.15
  0
3DFACE
  8
0----
 10
-0.07
 20
-2.63
 30
-3.74
 11
0.15
 21
-2.63
 31
-3.93
 12
-0.10
 22
-2.57
 32
-3.95
 13
-0.10
 23
-2.57
 33
-3.95
  0
3DFACE
  8
0----
 10
0.15
 20
-2.63
 30
-3.93
 11
0.04
 21
-2.56
 31
-4.16
 12
-0.10
 22
-2.57
 32
-3.95
 13
-0.10
 23
-2.57
 33
-3.95
  0
3DFACE
  8
0----
 10
0.36
 20
-1.89
 30
-4.31
 11
0.35
 21
-1.82
 31
-4.45
 12
0.23
 22
-2.04
 32
-4.32
 13
0.23
 23
-2.04
 33
-4.32
  0
3DFACE
  8
0----
 10
0.23
 20
-2.04
 30
-4.32
 11
0.35
 21
-1.82
 31
-4.45
 12
0.22
 22
-1.99
 32
-4.50
 13
0.22
 23
-1.99
 33
-4.50
  0
3DFACE
  8
0----
 10
0.35
 20
-1.82
 30
-4.45
 11
0.35
 21
-1.81
 31
-4.64
 12
0.22
 22
-1.99
 32
-4.50
 13
0.22
 23
-1.99
 33
-4.50
  0
3DFACE
  8
0----
 10
0.22
 20
-1.99
 30
-4.50
 11
0.35
 21
-1.81
 31
-4.64
 12
0.23
 22
-2.04
 32
-4.76
 13
0.23
 23
-2.04
 33
-4.76
  0
3DFACE
  8
0----
 10
0.16
 20
-2.13
 30
-4.34
 11
0.23
 21
-2.04
 31
-4.32
 12
0.22
 22
-1.99
 32
-4.50
 13
0.22
 23
-1.99
 33
-4.50
  0
3DFACE
  8
0----
 10
0.22
 20
-1.99
 30
-4.50
 11
0.13
 21
-2.12
 31
-4.52
 12
0.16
 22
-2.13
 32
-4.34
 13
0.16
 23
-2.13
 33
-4.34
  0
3DFACE
  8
0----
 10
0.22
 20
-1.99
 30
-4.50
 11
0.17
 21
-2.14
 31
-4.76
 12
0.13
 22
-2.12
 32
-4.52
 13
0.13
 23
-2.12
 33
-4.52
  0
3DFACE
  8
0----
 10
0.23
 20
-2.04
 30
-4.76
 11
0.17
 21
-2.14
 31
-4.76
 12
0.22
 22
-1.99
 32
-4.50
 13
0.22
 23
-1.99
 33
-4.50
  0
3DFACE
  8
0----
 10
0.04
 20
-2.56
 30
-4.16
 11
0.34
 21
-2.60
 31
-4.18
 12
0.02
 22
-2.52
 32
-4.23
 13
0.02
 23
-2.52
 33
-4.23
  0
3DFACE
  8
0----
 10
0.34
 20
-2.60
 30
-4.18
 11
0.33
 21
-2.56
 31
-4.27
 12
0.02
 22
-2.52
 32
-4.23
 13
0.02
 23
-2.52
 33
-4.23
  0
3DFACE
  8
0----
 10
0.33
 20
-2.56
 30
-4.27
 11
0.10
 21
-2.27
 31
-4.36
 12
0.02
 22
-2.52
 32
-4.23
 13
0.02
 23
-2.52
 33
-4.23
  0
ENDSEC
  0
EOF
